<?xml version="1.0" encoding="UTF-8" standalone="no"?>
<!-- Created with Inkscape (http://www.inkscape.org/) -->

<svg
   width="500mm"
   height="500mm"
   viewBox="0 0 500 500"
   version="1.1"
   id="svg5"
   xml:space="preserve"
   inkscape:version="1.2.2 (732a01da63, 2022-12-09)"
   sodipodi:docname="saladfork_logo_hex_and_stripe_master.svg"
   xmlns:inkscape="http://www.inkscape.org/namespaces/inkscape"
   xmlns:sodipodi="http://sodipodi.sourceforge.net/DTD/sodipodi-0.dtd"
   xmlns="http://www.w3.org/2000/svg"
   xmlns:svg="http://www.w3.org/2000/svg"><sodipodi:namedview
     id="namedview7"
     pagecolor="#ffffff"
     bordercolor="#000000"
     borderopacity="0.25"
     inkscape:showpageshadow="2"
     inkscape:pageopacity="0.0"
     inkscape:pagecheckerboard="0"
     inkscape:deskcolor="#d1d1d1"
     inkscape:document-units="mm"
     showgrid="false"
     inkscape:zoom="0.27181401"
     inkscape:cx="369.73812"
     inkscape:cy="882.9567"
     inkscape:window-width="1920"
     inkscape:window-height="1017"
     inkscape:window-x="1912"
     inkscape:window-y="-8"
     inkscape:window-maximized="1"
     inkscape:current-layer="svg5" /><defs
     id="defs2"><rect
       x="58.863781"
       y="800.1795"
       width="678.77295"
       height="224.41817"
       id="rect7014" /><inkscape:path-effect
       effect="spiro"
       id="path-effect1602"
       is_visible="true"
       lpeversion="1" /><inkscape:path-effect
       effect="powerstroke"
       id="path-effect1596"
       is_visible="true"
       lpeversion="1"
       offset_points="0.94619741,0.64527809"
       not_jump="true"
       sort_points="true"
       interpolator_type="CentripetalCatmullRom"
       interpolator_beta="0.75"
       start_linecap_type="round"
       linejoin_type="spiro"
       miter_limit="4"
       scale_width="1"
       end_linecap_type="round" /><inkscape:path-effect
       effect="simplify"
       id="path-effect1594"
       is_visible="true"
       lpeversion="1"
       steps="1"
       threshold="0.0047745358"
       smooth_angles="0"
       helper_size="0"
       simplify_individual_paths="false"
       simplify_just_coalesce="false"
       step="1" /><inkscape:path-effect
       effect="spiro"
       id="path-effect1591"
       is_visible="true"
       lpeversion="1" /><inkscape:path-effect
       effect="powerstroke"
       id="path-effect533"
       is_visible="true"
       lpeversion="1"
       offset_points="2.4594699,5.1622247"
       not_jump="true"
       sort_points="true"
       interpolator_type="CentripetalCatmullRom"
       interpolator_beta="0.75"
       start_linecap_type="round"
       linejoin_type="spiro"
       miter_limit="4"
       scale_width="1"
       end_linecap_type="round" /><inkscape:path-effect
       effect="simplify"
       id="path-effect531"
       is_visible="true"
       lpeversion="1"
       steps="1"
       threshold="0.0047745358"
       smooth_angles="0"
       helper_size="0"
       simplify_individual_paths="false"
       simplify_just_coalesce="false"
       step="1" /><marker
       id="DistanceX"
       orient="auto"
       refX="0"
       refY="0"
       style="overflow:visible"><path
         d="M 3,-3 -3,3 M 0,-5 V 5"
         style="stroke:#000000;stroke-width:0.5"
         id="path1606" /></marker><pattern
       id="Hatch"
       patternUnits="userSpaceOnUse"
       width="8"
       height="8"
       x="0"
       y="0"><path
         d="M8 4 l-4,4"
         stroke="#000000"
         stroke-width="0.25"
         linecap="square"
         id="path1609" /><path
         d="M6 2 l-4,4"
         stroke="#000000"
         stroke-width="0.25"
         linecap="square"
         id="path1611" /><path
         d="M4 0 l-4,4"
         stroke="#000000"
         stroke-width="0.25"
         linecap="square"
         id="path1613" /></pattern><symbol
       id="*MODEL_SPACE" /><symbol
       id="*PAPER_SPACE" /><inkscape:path-effect
       effect="fill_between_many"
       method="originald"
       linkedpaths="#path1620,0,1"
       id="path-effect1650"
       is_visible="true"
       lpeversion="0"
       join="true"
       close="true"
       autoreverse="true" /></defs><g
     inkscape:label="Layer 1"
     inkscape:groupmode="layer"
     id="layer1"
     style="display:inline" /><path
     id="path8782"
     style="display:inline;fill:#0cff28;fill-opacity:1;stroke-width:8.99999;stroke-linecap:square;stroke-miterlimit:5;paint-order:stroke markers fill"
     inkscape:transform-center-x="4.5659469e-06"
     inkscape:transform-center-y="-1.5748031e-06"
     d="m 399.77128,162.95111 a 7.9463104,7.9463104 0 0 0 -7.94629,7.94628 v 94.08677 a 9.5355714,9.5355714 0 0 1 -16.28169,6.74481 l -0.92708,-0.93173 a 6.3570487,6.3570487 0 0 1 -1.01285,-1.31775 6.3570487,6.3570487 0 0 1 -0.85215,-3.17707 v -82.60994 a 3.1785244,3.1785244 0 0 0 -2.01228,-2.95538 22.209174,22.209174 0 0 1 -13.79244,-17.18861 0.6357041,0.6357041 0 0 0 -0.76481,-0.52348 3.1785244,3.1785244 0 0 0 -2.50011,3.10472 v 104.66751 a 15.89262,15.89262 0 0 0 4.65553,11.23704 l 13.63173,13.63224 a 46.088596,46.088596 0 0 1 13.49788,32.5882 v 25.41136 h 31.78411 v -25.41136 a 46.088596,46.088596 0 0 1 13.49995,-32.5882 l 13.63224,-13.63224 a 15.89262,15.89262 0 0 0 4.6514,-11.23704 v -99.89985 a 7.9463104,7.9463104 0 0 0 -7.94473,-7.94628 h -3.17862 a 7.9463104,7.9463104 0 0 0 -3.44734,0.78651 7.9463104,7.9463104 0 0 0 -4.49895,7.15977 v 95.40503 a 6.3570487,6.3570487 0 0 1 -1.85932,4.49482 l -0.93172,0.93173 a 9.5355714,9.5355714 0 0 1 -16.27859,-6.74481 v -94.08677 a 7.9463104,7.9463104 0 0 0 -7.94629,-7.94628 z" /><path
     id="path463-4"
     style="display:inline;fill:#0cff28;fill-opacity:1;stroke-width:19.458;stroke-linecap:square;stroke-miterlimit:5;paint-order:stroke markers fill"
     d="M 155.25705,125 47.003858,187.50033 V 312.49965 L 155.25705,375 263.51024,312.49965 V 187.50033 Z m -1.58651,36.97766 h 3.17714 a 7.9463104,7.9463104 0 0 1 7.9463,7.94628 v 94.08685 a 9.5355714,9.5355714 0 0 0 16.27893,6.74476 l 0.93165,-0.93163 a 6.3570487,6.3570487 0 0 0 1.85914,-4.49513 v -95.40485 a 7.9463104,7.9463104 0 0 1 4.49925,-7.15988 7.9463104,7.9463104 0 0 1 3.44705,-0.7864 h 3.17851 a 7.9463104,7.9463104 0 0 1 7.94493,7.94628 v 99.89998 a 15.89262,15.89262 0 0 1 -4.6513,11.23718 l -13.63203,13.63199 a 46.088596,46.088596 0 0 0 -13.50046,32.58803 v 25.41169 H 139.36583 V 327.28112 A 46.088596,46.088596 0 0 0 125.86809,294.69309 L 112.23608,281.0611 a 15.89262,15.89262 0 0 1 -4.65541,-11.23718 V 165.15618 a 3.1785244,3.1785244 0 0 1 2.50032,-3.10456 0.6357041,0.6357041 0 0 1 0.76451,0.52338 22.209174,22.209174 0 0 0 13.7923,17.18865 3.1785244,3.1785244 0 0 1 2.0126,2.9552 v 82.60994 a 6.3570487,6.3570487 0 0 0 0.85217,3.17716 6.3570487,6.3570487 0 0 0 1.01247,1.31797 l 0.92752,0.93163 a 9.5355714,9.5355714 0 0 0 16.28167,-6.74476 v -94.08685 a 7.9463104,7.9463104 0 0 1 7.94631,-7.94628 z"
     inkscape:export-filename="SF_Hexagon_Logo.svg"
     inkscape:export-xdpi="96"
     inkscape:export-ydpi="96" /></svg>
