<?xml version="1.0" encoding="UTF-8" standalone="no"?>
<!-- Created with Inkscape (http://www.inkscape.org/) -->

<svg
   width="35.965958mm"
   height="71.9347mm"
   viewBox="0 0 35.965958 71.9347"
   version="1.1"
   id="svg5"
   xml:space="preserve"
   inkscape:version="1.2.2 (732a01da63, 2022-12-09)"
   sodipodi:docname="saladfork_logo_hex_and_stripe.svg"
   xmlns:inkscape="http://www.inkscape.org/namespaces/inkscape"
   xmlns:sodipodi="http://sodipodi.sourceforge.net/DTD/sodipodi-0.dtd"
   xmlns="http://www.w3.org/2000/svg"
   xmlns:svg="http://www.w3.org/2000/svg"><sodipodi:namedview
     id="namedview7"
     pagecolor="#ffffff"
     bordercolor="#000000"
     borderopacity="0.25"
     inkscape:showpageshadow="2"
     inkscape:pageopacity="0.0"
     inkscape:pagecheckerboard="0"
     inkscape:deskcolor="#d1d1d1"
     inkscape:document-units="mm"
     showgrid="false"
     inkscape:zoom="0.76880612"
     inkscape:cx="444.19522"
     inkscape:cy="646.45688"
     inkscape:window-width="1920"
     inkscape:window-height="1017"
     inkscape:window-x="1912"
     inkscape:window-y="-8"
     inkscape:window-maximized="1"
     inkscape:current-layer="svg5" /><defs
     id="defs2" /><path
     id="path1652-0"
     d="M 17.384382,-1.4643972e-6 A 2.9972393,2.9972393 0 0 0 14.387212,2.9971485 V 38.485329 a 3.5966867,3.5966867 0 0 1 -6.141245,2.54408 L 7.895859,40.677939 A 2.3977915,2.3977915 0 0 1 7.514184,40.180929 2.3977915,2.3977915 0 0 1 7.192911,38.982319 V 7.8230885 A 1.1988958,1.1988958 0 0 0 6.433665,6.7082685 8.3769954,8.3769954 0 0 1 1.231535,0.22514854 0.23977887,0.23977887 0 0 0 0.94321397,0.02746854 1.1988958,1.1988958 0 0 0 -6.0311822e-6,1.1986085 V 40.677959 A 5.9944782,5.9944782 0 0 0 1.756003,44.916279 l 5.141723,5.14171 a 17.383986,17.383986 0 0 1 5.090936,12.29208 v 9.58463 h 11.98865 v -9.58463 a 17.383986,17.383986 0 0 1 5.0923,-12.29208 l 5.14171,-5.14171 a 5.9944782,5.9944782 0 0 0 1.75463,-4.23832 V 2.9971785 A 2.9972393,2.9972393 0 0 0 32.968802,-1.4643972e-6 h -1.19859 A 2.9972393,2.9972393 0 0 0 30.470022,0.29654854 2.9972393,2.9972393 0 0 0 28.773052,2.9971485 V 38.982319 a 2.3977915,2.3977915 0 0 1 -0.70158,1.69562 l -0.35149,0.35147 a 3.5966867,3.5966867 0 0 1 -6.13985,-2.54408 V 2.9971485 A 2.9972393,2.9972393 0 0 0 18.582972,-1.4643972e-6 Z"
     style="fill:#0cff28;fill-opacity:1;stroke-width:2.65683" /></svg>
