<?xml version="1.0" encoding="UTF-8" standalone="no"?>
<!-- Created with Inkscape (http://www.inkscape.org/) -->

<svg
   width="127.54259mm"
   height="161.42767mm"
   viewBox="0 0 127.54259 161.42767"
   version="1.1"
   id="svg135"
   xml:space="preserve"
   inkscape:version="1.2.2 (732a01da63, 2022-12-09)"
   sodipodi:docname="PFA.svg"
   xmlns:inkscape="http://www.inkscape.org/namespaces/inkscape"
   xmlns:sodipodi="http://sodipodi.sourceforge.net/DTD/sodipodi-0.dtd"
   xmlns="http://www.w3.org/2000/svg"
   xmlns:svg="http://www.w3.org/2000/svg"><sodipodi:namedview
     id="namedview137"
     pagecolor="#ffffff"
     bordercolor="#000000"
     borderopacity="0.25"
     inkscape:showpageshadow="2"
     inkscape:pageopacity="0.0"
     inkscape:pagecheckerboard="0"
     inkscape:deskcolor="#d1d1d1"
     inkscape:document-units="mm"
     showgrid="false"
     inkscape:zoom="0.38440306"
     inkscape:cx="248.43715"
     inkscape:cy="332.98382"
     inkscape:window-width="1920"
     inkscape:window-height="1017"
     inkscape:window-x="1912"
     inkscape:window-y="-8"
     inkscape:window-maximized="1"
     inkscape:current-layer="layer1" /><defs
     id="defs132" /><g
     inkscape:label="Layer 1"
     inkscape:groupmode="layer"
     id="layer1"
     transform="translate(-42.879093,-182.44235)"><path
       id="path6810"
       style="fill:#000000;fill-opacity:1;stroke-width:8.99999;stroke-linecap:square;stroke-miterlimit:5;paint-order:stroke markers fill"
       d="m 89.661251,182.44236 -46.78216,26.86399 34.159672,96.22152 29.603357,17.33434 29.60543,-17.32969 34.17414,-96.21738 -46.77905,-26.8702 24.22074,35.54254 -26.72343,74.98663 -14.49628,8.49406 -14.495749,-8.49612 -26.712068,-74.99078 z m 16.989139,24.06881 -34.003091,19.29908 22.916952,64.33458 11.079419,6.49417 11.08098,-6.49262 22.92573,-64.33148 z m -56.373301,35.6278 v 42.57311 l 11.224638,6.54121 3.153812,-8.86096 z m 112.740921,0.008 -14.38465,40.25078 3.15226,8.86147 11.22567,-6.53914 z m -96.264408,46.11787 -13.444657,37.77444 30.979506,17.82785 -13.824998,-20.02152 4.615739,-12.27263 z m 79.781688,0.006 -8.3292,23.30659 4.61419,12.27315 -13.8281,20.01945 30.98209,-17.8232 z"
       inkscape:export-filename="Vectors\PFA_Logo.svg"
       inkscape:export-xdpi="96"
       inkscape:export-ydpi="96" /></g></svg>
