<?xml version="1.0" encoding="UTF-8" standalone="no"?>
<!-- Created with Inkscape (http://www.inkscape.org/) -->

<svg
   width="500mm"
   height="500mm"
   viewBox="0 0 500 500"
   version="1.1"
   id="svg135"
   xml:space="preserve"
   inkscape:version="1.2.2 (732a01da63, 2022-12-09)"
   sodipodi:docname="PFA.svg"
   xmlns:inkscape="http://www.inkscape.org/namespaces/inkscape"
   xmlns:sodipodi="http://sodipodi.sourceforge.net/DTD/sodipodi-0.dtd"
   xmlns="http://www.w3.org/2000/svg"
   xmlns:svg="http://www.w3.org/2000/svg"><sodipodi:namedview
     id="namedview137"
     pagecolor="#ffffff"
     bordercolor="#000000"
     borderopacity="0.25"
     inkscape:showpageshadow="2"
     inkscape:pageopacity="0.0"
     inkscape:pagecheckerboard="0"
     inkscape:deskcolor="#d1d1d1"
     inkscape:document-units="mm"
     showgrid="false"
     inkscape:zoom="0.27181401"
     inkscape:cx="-340.30623"
     inkscape:cy="871.91973"
     inkscape:window-width="1920"
     inkscape:window-height="1017"
     inkscape:window-x="1912"
     inkscape:window-y="-8"
     inkscape:window-maximized="1"
     inkscape:current-layer="layer1" /><defs
     id="defs132"><marker
       id="DistanceX"
       orient="auto"
       refX="0"
       refY="0"
       style="overflow:visible"><path
         d="M 3,-3 -3,3 M 0,-5 V 5"
         style="stroke:#000000;stroke-width:0.5"
         id="path258" /></marker><pattern
       id="Hatch"
       patternUnits="userSpaceOnUse"
       width="8"
       height="8"
       x="0"
       y="0"><path
         d="M8 4 l-4,4"
         stroke="#000000"
         stroke-width="0.25"
         linecap="square"
         id="path261" /><path
         d="M6 2 l-4,4"
         stroke="#000000"
         stroke-width="0.25"
         linecap="square"
         id="path263" /><path
         d="M4 0 l-4,4"
         stroke="#000000"
         stroke-width="0.25"
         linecap="square"
         id="path265" /></pattern><symbol
       id="*MODEL_SPACE" /><symbol
       id="*PAPER_SPACE" /></defs><g
     inkscape:label="Layer 1"
     inkscape:groupmode="layer"
     id="layer1"><path
       id="path6810"
       style="fill:#000000;stroke-width:8.99999;stroke-linecap:square;stroke-miterlimit:5;paint-order:stroke markers fill;fill-opacity:1"
       d="m 89.661251,182.44236 -46.78216,26.86399 34.159672,96.22152 29.603357,17.33434 29.60543,-17.32969 34.17414,-96.21738 -46.77905,-26.8702 24.22074,35.54254 -26.72343,74.98663 -14.49628,8.49406 -14.495749,-8.49612 -26.712068,-74.99078 z m 16.989139,24.06881 -34.003091,19.29908 22.916952,64.33458 11.079419,6.49417 11.08098,-6.49262 22.92573,-64.33148 z m -56.373301,35.6278 v 42.57311 l 11.224638,6.54121 3.153812,-8.86096 z m 112.740921,0.008 -14.38465,40.25078 3.15226,8.86147 11.22567,-6.53914 z m -96.264408,46.11787 -13.444657,37.77444 30.979506,17.82785 -13.824998,-20.02152 4.615739,-12.27263 z m 79.781688,0.006 -8.3292,23.30659 4.61419,12.27315 -13.8281,20.01945 30.98209,-17.8232 z"
       inkscape:export-filename="Vectors\PFA_Logo.svg"
       inkscape:export-xdpi="96"
       inkscape:export-ydpi="96" /><path
       id="path284-0"
       style="display:inline;fill:#000000;fill-opacity:1;stroke:none;stroke-width:0.107233"
       inkscape:label="path284"
       d="m 364.03986,148.29923 -88.65144,49.85277 -1.15238,101.70025 87.49957,51.84852 88.65144,-49.85277 1.15187,-101.70025 z m -16.8677,18.7265 -24.22539,35.53892 26.71206,74.99077 14.49576,8.49613 14.49627,-8.49406 26.72343,-74.98664 -24.22074,-35.54254 46.77906,26.87021 -34.17415,96.21738 -29.60542,17.32969 L 334.54967,290.11125 300.39,193.88972 Z m 16.98914,24.06883 33.99999,19.30373 -22.92573,64.33147 -11.08097,6.49262 -11.07943,-6.49417 -22.91695,-64.33458 z m -56.3733,35.62779 14.37845,40.25335 -3.15381,8.86097 -11.22464,-6.5412 z m 112.74093,0.008 -0.007,42.57311 -11.22567,6.53914 -3.15227,-8.86148 z m -96.26442,46.11811 8.32559,23.30814 -4.61574,12.27264 13.825,20.02151 -30.9795,-17.82785 z m 79.7817,0.006 13.43897,37.77599 -30.98209,17.8232 13.8281,-20.01945 -4.61419,-12.27315 z"
       inkscape:export-filename="PFA_Hex_logo.svg"
       inkscape:export-xdpi="96"
       inkscape:export-ydpi="96" /></g></svg>
