<?xml version="1.0" encoding="UTF-8" standalone="no"?>
<!-- Created with Inkscape (http://www.inkscape.org/) -->

<svg
   width="177.30289mm"
   height="203.40152mm"
   viewBox="0 0 177.30289 203.40152"
   version="1.1"
   id="svg135"
   xml:space="preserve"
   inkscape:version="1.2.2 (732a01da63, 2022-12-09)"
   sodipodi:docname="PFA.svg"
   xmlns:inkscape="http://www.inkscape.org/namespaces/inkscape"
   xmlns:sodipodi="http://sodipodi.sourceforge.net/DTD/sodipodi-0.dtd"
   xmlns="http://www.w3.org/2000/svg"
   xmlns:svg="http://www.w3.org/2000/svg"><sodipodi:namedview
     id="namedview137"
     pagecolor="#ffffff"
     bordercolor="#000000"
     borderopacity="0.25"
     inkscape:showpageshadow="2"
     inkscape:pageopacity="0.0"
     inkscape:pagecheckerboard="0"
     inkscape:deskcolor="#d1d1d1"
     inkscape:document-units="mm"
     showgrid="false"
     inkscape:zoom="0.38440306"
     inkscape:cx="248.43715"
     inkscape:cy="332.98382"
     inkscape:window-width="1920"
     inkscape:window-height="1017"
     inkscape:window-x="1912"
     inkscape:window-y="-8"
     inkscape:window-maximized="1"
     inkscape:current-layer="layer1" /><defs
     id="defs132" /><g
     inkscape:label="Layer 1"
     inkscape:groupmode="layer"
     id="layer1"
     transform="translate(-274.23606,-148.29923)"><path
       id="path284-0"
       style="display:inline;fill:#000000;fill-opacity:1;stroke:none;stroke-width:0.107233"
       inkscape:label="path284"
       d="m 364.03986,148.29923 -88.65144,49.85277 -1.15238,101.70025 87.49957,51.84852 88.65144,-49.85277 1.15187,-101.70025 z m -16.8677,18.7265 -24.22539,35.53892 26.71206,74.99077 14.49576,8.49613 14.49627,-8.49406 26.72343,-74.98664 -24.22074,-35.54254 46.77906,26.87021 -34.17415,96.21738 -29.60542,17.32969 L 334.54967,290.11125 300.39,193.88972 Z m 16.98914,24.06883 33.99999,19.30373 -22.92573,64.33147 -11.08097,6.49262 -11.07943,-6.49417 -22.91695,-64.33458 z m -56.3733,35.62779 14.37845,40.25335 -3.15381,8.86097 -11.22464,-6.5412 z m 112.74093,0.008 -0.007,42.57311 -11.22567,6.53914 -3.15227,-8.86148 z m -96.26442,46.11811 8.32559,23.30814 -4.61574,12.27264 13.825,20.02151 -30.9795,-17.82785 z m 79.7817,0.006 13.43897,37.77599 -30.98209,17.8232 13.8281,-20.01945 -4.61419,-12.27315 z"
       inkscape:export-filename="PFA_Hex_logo.png"
       inkscape:export-xdpi="96"
       inkscape:export-ydpi="96" /></g></svg>
