<?xml version="1.0" encoding="UTF-8" standalone="no"?>
<svg xmlns="http://www.w3.org/2000/svg" xmlns:xlink="http://www.w3.org/1999/xlink" width="2000.000mm" height="1700.000mm" viewBox="0.000000 0.000000 2000.000000 1700.000000" stroke-linejoin="round" stroke-linecap="round" fill="none" fill-rule="evenodd"><desc>Composer Export</desc><script type="text/ecmascript"><![CDATA[
if(typeof(top) != "undefined")
{
	top.ShowPaper = ShowPaper;
}
function ShowHotSpot(evt,hotspotid)
{
	var svgDocument = evt.target.ownerDocument;
	var strId = "hotspot."+hotspotid;
	var hotspot = svgDocument.getElementById(strId);
	if(hotspot)
		hotspot.setAttribute("opacity",".5");
}
function HideHotSpot(evt,hotspotid)
{
	var svgDocument = evt.target.ownerDocument;
	var strId = "hotspot."+hotspotid;
	var hotspot = svgDocument.getElementById(strId);
	if(hotspot)
		hotspot.setAttribute("opacity","0");

	var toolTip = svgDocument.getElementById('ToolTip');
	if(toolTip)
		toolTip.setAttribute("visibility","hidden");
}
function ShowToolTip(evt,hotspotid,strTooltip)
{
	if(strTooltip=="")
	return;

	// change text
	var svgDocument = evt.target.ownerDocument;
	var tiptext = svgDocument.getElementById('ToolTipText');
	if( !tiptext )
	return;
	tiptext.firstChild.nodeValue = " " + strTooltip + "  " ;

	// show tooltip before, else some refresh issue

	var toolTip = svgDocument.getElementById('ToolTip');
	if(!toolTip)
	return;

	toolTip.setAttribute("visibility","visible");
	toolTip.setAttribute("opacity",".95");

	// move tooltip
	// get viewbox

	var root = svgDocument.documentElement;
	var vbox = (root.getAttribute("viewBox")).split(' ');
	var x0 = parseFloat(vbox[0]);
	var y0 = parseFloat(vbox[1]);
	var vboxW = parseFloat(vbox[2]);
	var vboxH = parseFloat(vbox[3]);

	// get default width of svg

	var strW = root.getAttribute("width");
	var svgW = parseFloat(strW);
	if(strW.indexOf('mm') != -1)
	svgW *= 3.779;

	var strH = root.getAttribute("height");
	var svgH = parseFloat(strH);
	if(strH.indexOf('mm') != -1)
	svgH *= 3.779;  	// 96 dpi  -> 96/25.4 = 3.779

	// update the viewbox / width / height if svg is embedded in html with zoom fit all
	var realx0 = x0;
	var realy0 = y0;
	var realvboxW = vboxW;
	var realvboxH = vboxH;
	var realsvgW = svgW;
	var realsvgH = svgH;

	if ((typeof(top) == "undefined") || (typeof(top.svgctl1) != "undefined")) // embedded in html
	{
		// get window size in pxl

		svgW = window.innerWidth;
		svgH = window.innerHeight;

		// calculate real viewbox

		realsvgW = svgW;
		realsvgH = svgH;
		if((svgW / svgH) > (vboxW / vboxH))
		{
			realvboxW = (vboxH * svgW) / svgH;
			realvboxH = vboxH;
			realx0 = x0 - (realvboxW - vboxW)/2 ;
		}
		else
		{
			realvboxH = (vboxW * svgH) / svgW;
			realvboxW = vboxW;
			realy0 = y0 - (realvboxH - vboxH)/2 ;
		}
	}

	// get user zoom/pan

	var newScale = root.currentScale;
	var translation = root.currentTranslate;

	// transform pxl to user unit

	var xPos = (((evt.clientX+10- translation.x)/newScale) * realvboxW)/realsvgW  + realx0 ;
	var yPos = (((evt.clientY+5- translation.y)/newScale) * realvboxH)/ realsvgH  + realy0 ;
	var scaleForWidth = ( (1 / newScale) * realvboxH) / realsvgH;

	// move tooltip

	toolTip.setAttribute("transform", "translate(" + xPos + "," + yPos + ")" );

	// resize tooltip

	var fontsize = 12;
	tiptext.setAttribute("font-size",fontsize*scaleForWidth);
	tiptext.setAttribute("y", fontsize*scaleForWidth);
	var tipBG = svgDocument.getElementById('ToolTipBG');
	var outline = tiptext.getBBox();
	if(tipBG)
	{
		tipBG.setAttribute("stroke-width", 1*scaleForWidth);
		tipBG.setAttribute("width", Number(outline.width) );
		tipBG.setAttribute("height", Number(outline.height) + fontsize*.5*scaleForWidth );
	}
	var ToolTipShadow = svgDocument.getElementById('ToolTipShadow');
	if(ToolTipShadow)
	{
		ToolTipShadow.setAttribute("width", Number(outline.width) );
		ToolTipShadow.setAttribute("height", Number(outline.height) + fontsize*.5*scaleForWidth );
		ToolTipShadow.setAttribute("x", 3*scaleForWidth);
		ToolTipShadow.setAttribute("y", 3*scaleForWidth);
	}
}
function ShowPaper()
{
  var svgDocument = getDocument();
  var paper = svgDocument.getElementById("paperID");
  if(paper)
  {
    paper.setAttribute("transform","scale(1)");
    paper.setAttribute("opacity","1");
    paper.setAttribute("visibility","visible");
  }
  var svg = svgDocument.getRootElement();
  if(svg)
  {
    svg.setAttribute("width","2010.000mm");
    svg.setAttribute("height","1710.000mm");
    svg.setAttribute("viewBox","-5.000000 -5.000000 2010.000000 1710.000000");
  }
}
]]></script><defs/><g><path style="fill:#ffffff" d="M1999.44,1699.60L0.38,1699.60L0.38,0.38L1999.44,0.38z"/><path style="fill:#000020" d="M733.13,246.40L730.63,247.76L732.28,245.55z"/><path style="fill:#000020" d="M729.58,249.54L727.02,249.41L728.19,248.16L730.63,247.76z"/><path style="fill:#000020" d="M619.41,334.94L620.89,331.94L620.88,337.57L619.63,337.30z"/><path style="fill:#000020" d="M505.13,450.63L503.52,450.25L505.45,447.71z"/><path style="fill:#000020" d="M1043.94,498.63L1042.41,499.02L1042.60,494.60z"/><path style="fill:#000020" d="M612.06,704.74L611.63,703.11L613.09,702.87z"/><path style="fill:#000020" d="M1235.69,742.30L1234.44,746.68L1234.52,728.33z"/><path style="fill:#000020" d="M1007.10,1150.79L1007.24,1142.86L1008.49,1142.65z"/><path style="fill:#000020" d="M971.01,1227.77L980.56,1227.95L980.74,1229.23z"/><path style="fill:#000020" d="M1056.58,1573.68L1054.94,1573.25L1056.82,1572.23z"/><g id="Actor_.0"><g style="stroke:#000000;stroke-width:1.411"><path d="M723.63,1602.99 C706.94,1595.50 706.94,1595.50 690.32,1587.86 C680.89,1582.94 680.93,1582.86 671.53,1577.86 C664.23,1573.98 664.20,1574.04 656.93,1570.09 C640.25,1560.00 640.24,1559.99 623.62,1549.78 "/><path d="M496.95,1447.71 C481.64,1432.15 481.64,1432.15 466.37,1416.54 C463.09,1412.94 463.11,1412.91 459.85,1409.28 C448.33,1396.43 448.27,1396.48 436.81,1383.58 C422.54,1366.34 422.54,1366.34 408.40,1348.99 "/><path d="M310.75,1200.96 C300.26,1180.98 300.25,1180.97 289.91,1160.91 C282.83,1145.94 282.90,1145.90 275.89,1130.90 C273.41,1125.60 273.38,1125.62 270.94,1120.30 C262.40,1099.84 262.40,1099.84 253.94,1079.35 "/><path d="M207.73,919.31 C204.43,899.43 204.43,899.43 201.34,879.51 C199.22,860.05 199.22,860.04 197.32,840.56 C196.36,821.61 196.36,821.60 195.62,802.63 "/><path d="M211.34,667.19 C216.03,651.97 216.03,651.96 220.98,636.82 C226.77,622.59 226.77,622.57 232.82,608.45 C239.68,595.28 239.69,595.27 246.81,582.23 "/><path d="M320.92,502.45 C332.55,495.35 332.56,495.34 344.31,488.43 C350.93,485.32 350.99,485.41 357.66,482.40 C363.48,479.77 363.45,479.68 369.30,477.15 C382.50,472.80 382.51,472.80 395.77,468.64 "/><path d="M425.47,439.68 C429.98,439.94 430.05,439.95 434.54,440.50 C439.34,442.39 439.38,442.43 444.09,444.57 C449.23,448.13 449.20,448.21 454.25,451.92 C461.91,458.23 461.92,458.23 469.52,464.62 "/><path d="M334.76,926.61 C332.78,913.46 332.49,913.47 330.80,900.31 C330.52,866.07 330.23,865.98 330.80,831.79 C335.73,800.98 335.71,800.81 341.82,770.23 C352.04,743.77 352.27,743.68 363.50,717.62 C371.11,706.76 371.53,706.97 379.56,696.32 C387.36,685.98 387.03,685.60 395.15,675.64 C415.09,660.30 415.14,659.95 435.76,645.64 C459.49,636.47 459.77,636.40 484.00,628.59 C510.99,626.11 511.23,626.18 538.34,625.03 C564.80,628.93 564.79,629.57 591.24,634.10 C594.14,634.59 594.17,634.49 597.03,635.09 C627.63,646.66 627.86,646.27 658.18,658.43 C689.23,675.86 689.31,675.95 719.83,694.31 C750.19,717.51 750.24,717.58 779.99,741.57 C808.68,769.76 808.72,769.83 836.74,798.69 C862.83,830.95 862.86,831.01 888.24,863.84 C910.90,899.12 910.94,899.17 932.84,934.93 C951.37,972.07 951.36,972.14 969.11,1009.66 C980.57,1040.93 980.19,1041.10 991.27,1072.53 C993.58,1079.09 993.72,1079.05 995.88,1085.64 C1004.23,1123.00 1004.60,1122.98 1012.30,1160.43 C1015.57,1195.94 1015.62,1196.04 1017.83,1231.62 C1015.62,1264.25 1015.54,1264.37 1012.30,1296.92 C1007.30,1316.12 1006.82,1316.06 1001.34,1335.19 C998.61,1344.71 998.92,1344.87 995.89,1354.24 C982.82,1378.10 983.05,1378.45 969.11,1401.72 C951.58,1420.20 951.39,1420.42 932.84,1437.86 C911.02,1450.25 910.75,1450.38 888.24,1461.48 C862.77,1467.34 862.50,1467.35 836.73,1471.82 C808.45,1470.88 808.23,1470.81 779.99,1468.56 C749.83,1460.81 749.71,1460.65 719.83,1451.79 C695.52,1440.63 695.68,1440.15 671.53,1428.50 C664.86,1425.28 664.76,1425.44 658.18,1422.06 C627.52,1401.36 627.29,1401.58 597.03,1380.33 C567.39,1354.52 567.40,1354.40 538.34,1327.92 C518.68,1306.31 518.95,1306.02 499.56,1284.12 C491.78,1275.33 491.62,1275.45 484.00,1266.54 C459.72,1232.47 459.49,1232.57 435.76,1198.15 C415.08,1161.79 415.04,1161.73 395.16,1124.94 C378.92,1087.32 378.88,1087.26 363.50,1049.28 C352.22,1011.60 352.28,1011.51 341.82,973.59 C337.91,950.19 338.29,950.10 334.76,926.61 "/><path d="M498.03,518.88 C498.15,508.70 498.15,508.70 498.37,498.53 C498.94,490.04 498.93,490.03 499.62,481.54 C500.63,474.69 500.65,474.69 501.77,467.85 C508.90,430.91 508.90,430.91 516.12,393.99 "/><path d="M516.12,393.99 C514.00,406.11 514.00,406.16 512.30,418.34 C511.59,440.55 512.31,440.66 511.29,462.79 C505.28,490.46 505.25,490.60 498.23,518.03 "/><path d="M459.72,470.89 C461.91,468.85 461.95,468.82 464.30,466.96 C469.63,464.45 469.67,464.50 475.08,462.12 C490.08,456.26 490.08,456.26 505.11,450.49 "/><path d="M511.29,462.79 C527.20,465.43 527.21,465.44 543.08,468.34 C559.31,472.40 559.32,472.41 575.50,476.72 C591.98,482.18 591.99,482.18 608.39,487.88 "/><path d="M646.57,557.26 C643.64,521.51 643.64,521.51 640.48,485.78 C637.02,456.49 636.97,456.49 633.33,427.22 C631.45,415.22 631.41,415.22 629.42,403.24 C627.72,394.53 627.73,394.53 625.94,385.84 C623.55,376.37 623.57,376.36 621.05,366.92 C618.91,360.87 619.01,360.79 616.62,354.86 C609.46,343.49 609.43,343.45 601.94,332.29 "/><path d="M601.94,332.29 C602.75,335.51 602.76,335.52 603.50,338.75 C604.29,344.15 604.29,344.16 605.01,349.57 C605.67,356.77 605.67,356.77 606.27,363.98 C606.81,373.08 606.82,373.08 607.30,382.19 C607.96,405.23 608.00,405.23 608.54,428.27 C608.54,458.08 608.54,458.03 608.39,487.88 "/><path d="M524.56,374.90 C539.20,365.56 539.20,365.56 553.91,356.34 C565.50,349.61 565.46,349.53 577.15,342.99 C589.47,337.51 589.50,337.50 601.94,332.29 "/><path d="M1007.92,1140.49 C1007.25,1151.95 1007.24,1152.03 1006.00,1163.44 C1000.63,1183.46 1000.77,1183.61 994.70,1203.39 C985.91,1220.15 985.85,1220.29 976.26,1236.60 C964.30,1249.78 964.18,1249.90 951.55,1262.44 "/><path d="M913.39,1281.25 C891.22,1284.77 890.95,1284.80 868.61,1287.00 C844.14,1283.74 843.92,1283.64 819.62,1279.12 C793.69,1269.08 793.55,1268.96 768.04,1257.86 C742.01,1241.54 741.92,1241.43 716.45,1224.24 C691.55,1202.42 691.50,1202.34 667.24,1179.80 C644.62,1153.53 644.57,1153.46 622.67,1126.60 C602.93,1096.38 602.90,1096.31 583.94,1065.60 C569.30,1035.16 569.27,1035.08 555.45,1004.25 C545.21,972.68 545.14,972.60 535.81,940.75 C530.81,910.23 530.75,910.12 526.77,879.47 C527.22,851.38 527.17,851.22 528.74,823.20 C534.59,798.80 534.58,798.57 541.62,774.51 C552.60,754.85 552.74,754.62 564.84,735.63 "/><path d="M613.05,702.68 C612.58,703.00 612.57,703.01 612.13,703.39 C600.99,717.56 600.62,717.37 589.88,731.78 C581.46,749.00 581.46,749.13 573.77,766.71 C568.49,786.76 568.51,786.86 563.92,807.10 C561.76,829.34 561.78,829.41 560.27,851.71 C561.22,875.49 561.23,875.54 562.78,899.29 C566.80,923.98 566.81,924.02 571.40,948.61 C578.45,973.58 578.47,973.62 586.07,998.42 C596.07,1023.06 596.10,1023.09 606.61,1047.51 C619.18,1071.22 619.21,1071.24 632.23,1094.71 C646.89,1116.94 646.91,1116.97 661.99,1138.91 C678.28,1159.10 678.30,1159.12 694.97,1178.99 C711.84,1196.06 711.85,1196.09 729.08,1212.79 C746.61,1226.92 746.63,1226.97 764.49,1240.65 C782.23,1251.39 782.28,1251.43 800.33,1261.65 C817.87,1268.89 817.94,1268.92 835.70,1275.59 C852.06,1279.25 852.14,1279.28 868.61,1282.32 C884.00,1282.67 884.09,1282.66 899.47,1282.39 C910.67,1280.05 910.77,1280.03 921.82,1277.09 "/><path d="M584.78,1067.07 C574.15,1042.60 574.14,1042.56 564.01,1017.88 C556.15,992.97 556.14,992.94 548.80,967.87 C543.82,943.17 543.80,943.12 539.38,918.32 C537.40,894.46 537.37,894.41 535.99,870.51 C537.11,848.12 537.08,848.05 538.86,825.72 C543.20,805.44 543.18,805.33 548.24,785.24 C555.83,767.61 555.87,767.50 564.19,750.21 C574.80,735.54 574.92,735.49 586.13,721.26 C595.47,713.13 595.56,713.05 605.33,705.45 "/><path d="M670.74,693.13 C667.27,699.67 667.24,699.71 664.09,706.41 C658.57,724.12 658.44,724.14 653.39,741.97 C650.49,761.58 650.50,761.65 648.19,781.34 C648.14,802.56 648.17,802.61 648.67,823.83 C651.35,846.14 651.38,846.18 654.55,868.43 C659.77,891.31 659.79,891.34 665.45,914.12 C673.02,937.06 673.04,937.08 681.02,959.88 C690.75,982.34 690.76,982.37 700.89,1004.66 C712.60,1026.14 712.60,1026.17 724.70,1047.44 C738.19,1067.44 738.20,1067.47 752.06,1087.21 C767.01,1105.35 767.04,1105.37 782.33,1123.23 C798.34,1139.21 798.37,1139.23 814.69,1154.90 C831.34,1168.45 831.36,1168.48 848.30,1181.66 C865.18,1192.50 865.20,1192.54 882.34,1202.95 C899.03,1210.79 899.07,1210.85 915.98,1218.19 C932.08,1222.76 932.15,1222.82 948.39,1226.80 C963.53,1227.93 963.60,1227.66 978.81,1228.42 C979.92,1228.26 979.94,1228.26 981.03,1228.01 "/><path d="M1454.75,420.33 C1474.97,446.79 1474.98,446.81 1494.84,473.55 C1513.33,501.51 1513.34,501.52 1531.44,529.72 C1547.97,558.81 1547.98,558.83 1564.10,588.13 "/><path d="M1564.10,588.13 C1538.18,554.04 1538.18,554.03 1512.56,519.71 C1499.58,500.40 1499.82,500.24 1486.91,480.88 C1473.47,462.14 1473.46,462.14 1459.85,443.52 C1445.55,425.31 1445.55,425.31 1431.09,407.23 "/><path d="M1431.09,407.23 C1404.04,400.69 1404.04,400.69 1376.96,394.29 C1348.70,388.19 1348.70,388.17 1320.41,382.22 C1286.17,375.82 1286.18,375.74 1251.90,369.60 C1195.82,361.40 1195.82,361.30 1139.67,353.55 C1086.61,348.36 1086.57,348.00 1033.49,343.70 C1000.54,345.10 1000.39,345.11 967.52,347.75 "/><path d="M967.52,347.75 C960.37,342.18 960.37,342.18 953.19,336.66 C945.61,331.06 945.62,331.04 938.00,325.49 C923.50,315.60 923.50,315.60 908.95,305.79 "/><path d="M901.96,280.86 C885.92,276.20 885.90,276.20 869.79,271.78 C854.63,268.62 854.62,268.62 839.42,265.71 C823.39,263.69 823.38,263.69 807.32,261.92 "/><path d="M765.30,308.27 C758.23,306.64 758.23,306.64 751.15,305.06 C743.79,303.67 743.79,303.67 736.42,302.33 C729.05,301.25 729.05,301.25 721.67,300.23 C715.30,299.55 715.30,299.55 708.92,298.93 "/><path d="M693.85,275.73 C681.24,280.77 681.22,280.78 668.73,286.09 C656.87,292.48 656.85,292.49 645.14,299.14 C634.09,306.84 634.07,306.85 623.20,314.80 "/><path d="M616.62,354.86 C623.69,355.50 623.69,355.50 630.75,356.20 C637.81,357.13 637.81,357.13 644.86,358.13 C651.92,359.36 651.93,359.36 658.98,360.64 C666.02,362.15 666.02,362.15 673.06,363.72 "/><path d="M673.06,363.72 C674.86,370.18 674.86,370.19 676.58,376.67 C678.67,386.30 678.67,386.30 680.67,395.95 C682.68,407.49 682.67,407.49 684.59,419.05 C686.49,432.43 686.48,432.43 688.31,445.82 C690.08,460.94 690.08,460.94 691.79,476.07 C693.44,492.86 693.44,492.86 695.03,509.64 C696.55,528.00 696.55,528.00 698.01,546.36 C699.37,566.21 699.37,566.21 700.69,586.06 "/><path d="M972.23,1240.81 C962.73,1242.60 962.63,1242.62 953.04,1243.85 C937.69,1242.85 937.60,1242.87 922.30,1241.29 C905.91,1236.97 905.86,1236.92 889.62,1232.04 C872.63,1224.55 872.59,1224.50 855.82,1216.53 C838.67,1206.07 838.65,1206.04 821.76,1195.16 C804.91,1181.98 804.88,1181.95 788.32,1168.40 C772.08,1152.63 772.05,1152.61 756.15,1136.50 C741.03,1118.44 741.02,1118.41 726.26,1100.05 C712.57,1080.06 712.56,1080.02 699.23,1059.78 C687.21,1038.34 687.20,1038.31 675.55,1016.67 C665.44,994.30 665.43,994.28 655.71,971.75 C647.76,948.97 647.74,948.94 640.20,926.02 C634.64,903.33 634.61,903.31 629.52,880.51 C626.59,858.41 626.56,858.37 624.15,836.22 C624.01,815.19 624.01,815.13 624.43,794.11 C627.03,774.51 627.03,774.45 630.19,754.93 C635.38,737.12 635.41,737.06 641.14,719.42 C647.48,706.36 647.51,706.30 654.34,693.49 "/><path d="M645.14,299.14 C678.22,278.52 678.25,278.50 711.69,258.45 C761.77,232.29 761.81,232.29 812.20,206.71 C844.48,192.59 844.56,192.72 877.03,179.03 C904.76,168.60 904.79,168.68 932.60,158.47 C947.79,153.35 947.81,153.39 963.04,148.37 C975.31,144.55 975.31,144.55 987.60,140.79 "/><path d="M987.60,140.79 C1003.46,141.93 1003.48,141.93 1019.32,143.36 C1035.22,145.94 1035.24,145.95 1051.10,148.81 C1068.13,153.02 1068.15,153.02 1085.12,157.50 "/><path d="M1085.12,157.50 C1060.49,161.74 1060.48,161.74 1035.88,166.17 C1006.98,172.19 1006.96,172.16 978.10,178.40 C943.20,187.14 943.18,187.13 908.35,196.15 C878.56,204.97 878.56,204.98 848.86,214.07 C820.60,223.79 820.59,223.79 792.42,233.77 C765.15,244.58 765.15,244.59 737.98,255.63 C715.87,265.57 715.86,265.58 693.85,275.73 "/><path d="M738.86,557.31 C736.31,514.34 736.31,514.34 733.57,471.39 C730.74,437.94 730.75,437.93 727.71,404.50 C724.32,376.45 724.30,376.45 720.71,348.43 C718.11,332.64 718.11,332.64 715.33,316.88 "/><path d="M1000.43,1183.12 C997.59,1182.77 997.56,1182.77 994.75,1182.23 C976.57,1175.82 976.45,1176.02 958.44,1169.22 C939.82,1159.23 939.77,1159.18 921.47,1148.63 C902.97,1134.91 902.95,1134.85 884.81,1120.65 C866.94,1103.66 866.92,1103.61 849.43,1086.23 C832.65,1066.53 832.64,1066.50 816.25,1046.48 C801.04,1024.65 801.02,1024.63 786.23,1002.52 C773.05,979.14 773.02,979.11 760.30,955.48 C749.62,931.11 749.58,931.08 739.41,906.49 C731.60,881.68 731.59,881.64 724.34,856.67 C719.56,832.11 719.54,832.06 715.33,807.40 C713.56,783.50 713.54,783.45 712.37,759.52 C713.66,737.10 713.81,737.07 715.58,714.67 C716.94,708.10 716.95,708.06 718.62,701.56 "/><path d="M715.33,316.88 C730.56,318.31 730.58,318.32 745.78,320.01 C761.47,322.83 761.49,322.84 777.13,325.92 C793.13,330.11 793.14,330.11 809.07,334.55 "/><path d="M809.07,334.55 C812.75,346.46 812.75,346.47 816.25,358.44 C819.77,373.56 819.77,373.56 823.10,388.72 C825.94,405.45 825.94,405.46 828.60,422.23 C830.82,440.93 830.89,440.93 832.86,459.66 C835.21,500.67 835.34,500.68 837.24,541.71 C836.89,588.62 835.79,588.72 835.96,635.55 C841.77,670.68 841.82,670.91 849.22,705.75 "/><path d="M849.22,705.75 C849.69,654.08 849.69,654.03 849.55,602.34 C847.08,555.39 846.94,555.37 844.00,508.44 C841.70,487.10 841.61,487.10 839.07,465.78 C836.49,448.93 836.51,448.92 833.77,432.11 C829.49,411.41 829.49,411.41 825.01,390.76 C820.73,374.58 820.73,374.57 816.25,358.44 "/><path d="M1006.09,1162.38 C992.60,1157.52 992.55,1157.50 979.25,1152.15 C960.58,1141.81 960.51,1141.81 942.12,1130.98 C923.64,1117.17 923.60,1117.13 905.49,1102.84 C887.74,1085.71 887.73,1085.66 870.38,1068.13 C853.81,1048.21 853.80,1048.17 837.65,1027.92 C822.68,1005.85 822.67,1005.82 808.13,983.46 C795.17,959.85 795.15,959.83 782.65,935.98 C772.11,911.46 772.08,911.43 762.03,886.71 C754.31,861.90 754.28,861.87 747.11,836.89 C742.54,812.40 742.52,812.35 738.55,787.75 C737.15,764.14 737.20,764.08 736.37,740.43 C737.53,724.98 737.54,724.93 739.21,709.53 "/><path d="M738.86,557.31 C755.36,569.14 755.37,569.15 771.76,581.15 C787.40,593.62 787.40,593.63 802.92,606.26 C819.50,620.83 819.51,620.83 835.96,635.55 "/><path d="M788.32,209.48 C811.74,195.46 811.74,195.45 835.22,181.54 C847.52,174.68 847.54,174.72 859.89,167.94 C869.39,162.90 869.39,162.90 878.91,157.91 "/><path d="M994.52,1081.77 C992.61,1080.56 992.60,1080.55 990.75,1079.26 C972.52,1063.75 972.36,1063.90 954.34,1048.15 C936.90,1029.99 936.87,1029.96 919.82,1011.42 C903.85,990.79 903.82,990.76 888.28,969.80 C874.25,947.13 874.24,947.09 860.69,924.13 C848.93,900.03 848.92,899.99 837.64,875.66 C828.40,850.80 828.38,850.77 819.63,825.73 C813.13,800.80 813.31,800.73 807.14,775.70 C806.54,771.79 806.54,771.78 806.10,767.85 "/><path d="M807.32,261.92 C851.88,251.73 851.91,251.72 896.62,242.22 C953.33,233.41 953.36,233.47 1010.18,225.29 C1050.10,221.52 1050.13,221.65 1090.10,218.32 C1123.27,216.75 1123.28,216.83 1156.45,215.50 C1176.76,215.21 1176.77,215.21 1197.08,215.09 "/><path d="M850.30,1635.73 C865.57,1636.56 865.59,1636.56 880.88,1637.10 C895.66,1636.50 895.68,1636.50 910.44,1635.60 C924.66,1633.57 924.68,1633.57 938.85,1631.24 "/><path d="M1036.50,1587.14 C1088.61,1548.74 1088.68,1548.69 1140.03,1509.28 C1186.26,1467.57 1186.09,1467.31 1231.69,1424.88 C1252.89,1402.48 1252.79,1402.35 1273.64,1379.60 C1292.80,1356.71 1292.82,1356.70 1311.72,1333.59 C1329.24,1309.98 1329.24,1309.96 1346.50,1286.15 C1360.53,1264.77 1360.53,1264.75 1374.29,1243.19 "/><path d="M1374.29,1243.19 C1376.46,1226.27 1376.46,1226.27 1378.58,1209.35 C1378.77,1206.61 1378.73,1206.60 1378.89,1203.86 C1379.76,1188.96 1379.86,1188.97 1380.62,1174.07 C1380.62,1155.80 1380.62,1155.80 1380.41,1137.52 "/><path d="M1380.41,1137.52 C1360.04,1177.99 1360.01,1178.05 1338.77,1218.07 C1304.54,1272.50 1304.63,1272.65 1269.46,1326.45 C1230.64,1376.49 1230.60,1376.58 1190.75,1425.80 C1142.55,1476.33 1142.48,1476.39 1093.31,1525.98 "/><path d="M1139.58,1415.15 C1177.36,1362.15 1177.41,1362.08 1214.18,1308.37 C1245.45,1254.00 1245.21,1253.80 1275.68,1198.95 C1289.07,1170.89 1288.95,1170.80 1301.91,1142.52 C1313.25,1114.62 1313.26,1114.61 1324.30,1086.60 C1333.91,1058.53 1333.90,1058.52 1343.20,1030.35 C1350.16,1005.51 1350.17,1005.49 1356.83,980.57 "/><path d="M1356.83,980.57 C1351.26,960.43 1351.25,960.43 1345.51,940.34 C1339.68,922.51 1339.67,922.50 1333.68,904.72 C1325.25,882.13 1325.25,882.12 1316.66,859.59 "/><path d="M1316.66,859.59 C1304.04,917.91 1304.03,917.97 1290.38,976.06 C1272.47,1033.54 1272.42,1033.59 1253.53,1090.76 C1230.76,1146.93 1230.72,1146.97 1207.05,1202.77 C1179.78,1257.25 1179.76,1257.29 1151.63,1311.33 "/><path d="M1135.91,1159.15 C1131.19,1138.82 1131.19,1138.82 1126.27,1118.53 C1120.78,1099.16 1120.77,1099.15 1115.09,1079.83 C1107.86,1058.12 1107.85,1058.11 1100.44,1036.46 "/><path d="M1100.44,1036.46 C1115.76,970.75 1115.77,970.71 1130.23,904.81 C1139.72,846.15 1139.72,846.10 1148.35,787.30 C1153.37,729.33 1153.28,729.29 1157.53,671.24 C1158.15,631.66 1158.15,631.65 1158.09,592.04 "/><path d="M1082.82,552.85 C1084.42,573.62 1084.42,573.63 1085.80,594.42 C1086.53,620.67 1086.55,620.68 1087.05,646.94 C1086.54,674.37 1086.53,674.37 1085.77,701.79 C1083.99,730.30 1083.98,730.31 1081.96,758.80 C1078.95,787.99 1078.95,788.00 1075.71,817.17 C1071.48,846.97 1071.48,846.98 1067.02,876.75 C1061.57,907.08 1061.57,907.09 1055.90,937.37 C1049.26,967.99 1049.26,967.99 1042.39,998.56 "/><path d="M1011.65,932.74 C1019.41,905.43 1019.43,905.35 1026.33,877.80 C1035.20,820.00 1035.20,819.94 1043.19,762.00 C1047.26,707.95 1047.06,707.91 1050.46,653.80 C1050.76,627.87 1050.66,627.85 1050.60,601.91 C1049.62,577.48 1049.62,577.47 1048.39,553.05 C1046.21,529.76 1046.20,529.75 1043.77,506.49 C1040.84,486.97 1040.84,486.96 1037.66,467.48 "/><path d="M1037.66,467.48 C1021.79,454.46 1021.79,454.46 1005.88,441.49 C1002.96,439.29 1002.94,439.32 1000.00,437.15 C986.81,427.42 986.86,427.34 973.62,417.68 C957.37,406.85 957.36,406.85 941.01,396.18 "/><path d="M874.73,400.50 C867.59,395.00 867.59,395.00 860.42,389.53 C853.14,384.20 853.14,384.20 845.83,378.91 C838.43,373.77 838.42,373.77 831.00,368.67 C823.74,363.91 823.74,363.91 816.45,359.18 "/><path d="M1380.19,1181.53 C1386.39,1159.59 1386.42,1159.47 1391.67,1137.28 C1394.93,1101.71 1395.00,1101.60 1397.22,1065.96 C1395.00,1027.37 1394.95,1027.27 1391.67,988.74 C1383.95,948.18 1383.90,948.10 1375.20,907.74 C1362.19,866.33 1361.91,866.37 1348.24,825.15 C1343.37,813.79 1343.18,813.86 1338.13,802.57 C1324.83,772.90 1325.17,772.72 1311.53,743.23 C1289.15,703.55 1289.18,703.47 1266.08,664.21 C1239.98,627.00 1239.95,626.95 1213.11,590.26 C1183.97,556.55 1183.93,556.49 1154.09,523.39 C1122.69,494.08 1122.65,494.01 1090.61,465.41 C1057.83,441.29 1057.78,441.21 1024.41,417.92 C991.15,399.63 991.07,399.54 957.30,382.21 C924.45,370.22 924.33,370.13 891.10,359.25 C859.54,353.87 859.37,354.22 827.63,349.67 C820.79,349.90 820.70,349.90 813.90,350.62 "/><path d="M976.61,1030.94 C958.62,1011.80 958.59,1011.77 941.00,992.27 C925.17,971.54 925.15,971.51 909.74,950.45 C895.79,927.74 895.76,927.71 882.27,904.72 C870.72,880.63 870.70,880.59 859.65,856.27 C850.64,831.01 850.63,830.97 842.15,805.54 "/><path d="M874.73,400.50 C878.04,415.00 878.04,415.01 881.19,429.55 C884.54,448.70 884.55,448.70 887.72,467.89 C890.39,488.74 890.38,488.74 892.87,509.61 C894.83,532.05 894.82,532.06 896.62,554.51 C897.85,578.30 897.85,578.30 898.93,602.10 C899.44,627.19 899.44,627.19 899.80,652.29 C899.58,678.51 899.58,678.51 899.22,704.74 C898.25,731.95 898.25,731.95 897.14,759.17 "/><path d="M951.48,764.34 C964.77,782.63 964.78,782.63 977.95,801.01 C985.75,812.70 985.69,812.74 993.43,824.46 C998.23,831.76 998.28,831.73 1003.04,839.06 C1014.73,858.40 1014.73,858.40 1026.33,877.80 "/><path d="M901.96,280.86 C926.67,279.10 926.67,279.10 951.38,277.50 C981.21,276.26 981.22,276.25 1011.06,275.17 C1041.34,274.79 1041.34,274.80 1071.63,274.59 C1102.93,275.08 1102.93,275.07 1134.23,275.73 C1170.23,277.30 1170.23,277.31 1206.22,279.05 C1235.46,281.10 1235.46,281.12 1264.69,283.31 C1289.28,285.66 1289.29,285.66 1313.87,288.13 "/><path d="M1313.87,288.13 C1297.26,274.66 1297.25,274.66 1280.55,261.31 C1271.42,254.63 1271.37,254.69 1262.20,248.07 C1254.50,242.51 1254.54,242.45 1246.80,236.95 C1229.80,225.98 1229.80,225.97 1212.72,215.12 "/><path d="M908.95,305.79 C941.14,306.24 941.15,306.24 973.34,306.88 C1000.24,308.13 1000.25,308.13 1027.14,309.57 C1059.71,312.11 1059.72,312.10 1092.28,314.83 C1122.07,318.05 1122.07,318.06 1151.84,321.47 C1184.32,325.97 1184.33,325.96 1216.79,330.65 C1248.11,335.94 1248.10,335.98 1279.40,341.42 C1298.25,345.07 1298.24,345.09 1317.08,348.83 C1358.73,357.58 1358.73,357.58 1400.38,366.39 "/><path d="M941.01,396.18 C945.31,425.72 945.32,425.74 949.14,455.35 C952.65,501.51 952.70,501.53 955.67,547.73 C956.42,597.33 956.41,597.35 956.58,646.96 C954.31,705.65 954.31,705.67 951.48,764.34 "/><path d="M1036.50,1587.14 C1047.53,1577.75 1047.55,1577.74 1058.40,1568.13 C1067.45,1558.60 1067.47,1558.58 1076.31,1548.84 C1084.92,1537.51 1084.94,1537.49 1093.31,1525.98 "/><path d="M1033.49,343.70 C1049.87,354.64 1049.87,354.64 1066.21,365.63 C1069.62,368.14 1069.60,368.17 1072.99,370.71 C1085.79,380.29 1085.85,380.22 1098.58,389.87 C1114.57,403.02 1114.57,403.02 1130.44,416.30 "/><path d="M1127.75,437.26 C1158.14,446.42 1158.14,446.42 1188.50,455.68 C1213.40,463.62 1213.40,463.63 1238.27,471.66 C1267.84,481.63 1267.84,481.62 1297.39,491.68 C1323.89,501.08 1323.89,501.08 1350.36,510.57 C1378.78,521.18 1378.78,521.17 1407.16,531.87 C1433.98,542.39 1433.97,542.41 1460.77,553.01 C1476.65,559.50 1476.65,559.51 1492.51,566.05 C1527.29,580.72 1527.29,580.72 1562.04,595.43 "/><path d="M1592.45,660.91 C1543.29,639.56 1543.29,639.56 1494.08,618.34 C1468.17,607.62 1468.16,607.65 1442.21,597.04 C1416.45,586.92 1416.46,586.88 1390.65,576.88 C1337.37,557.38 1337.37,557.38 1284.02,538.05 C1256.33,528.61 1256.32,528.66 1228.59,519.34 C1201.90,510.77 1201.90,510.77 1175.18,502.28 "/><path d="M1052.41,1575.18 C1058.12,1572.48 1058.14,1572.47 1063.75,1569.58 C1129.13,1529.53 1129.13,1529.52 1194.40,1489.30 C1218.80,1473.63 1218.83,1473.66 1243.10,1457.79 C1263.49,1443.18 1263.62,1443.29 1283.72,1428.32 C1293.38,1418.72 1293.24,1418.52 1302.64,1408.61 C1305.68,1404.79 1305.63,1404.74 1308.62,1400.86 C1314.14,1393.69 1314.24,1393.76 1319.67,1386.53 C1327.29,1374.42 1327.30,1374.41 1334.73,1362.18 "/><path d="M1334.73,1362.18 C1302.77,1393.38 1302.72,1393.42 1270.07,1423.90 C1220.45,1463.58 1220.46,1463.72 1170.15,1502.51 C1121.94,1533.71 1121.87,1533.75 1072.99,1563.90 "/><path d="M1441.44,1181.97 C1449.03,1189.65 1449.03,1189.65 1456.72,1197.22 C1462.52,1202.18 1462.52,1202.20 1468.42,1207.03 C1474.75,1211.30 1474.78,1211.27 1481.19,1215.42 C1496.04,1224.24 1496.05,1224.24 1510.95,1232.96 "/><path d="M1510.95,1232.96 C1502.77,1227.43 1502.76,1227.42 1494.68,1221.74 C1485.84,1214.62 1485.85,1214.60 1477.11,1207.35 C1469.30,1200.17 1469.30,1200.16 1461.59,1192.87 "/><path d="M1461.59,1192.87 C1464.02,1176.00 1464.02,1175.99 1466.22,1159.08 C1467.52,1141.46 1467.52,1141.45 1468.59,1123.82 C1468.75,1105.54 1468.75,1105.53 1468.68,1087.25 "/><path d="M1425.73,996.40 C1453.98,1017.91 1453.99,1017.92 1482.43,1039.19 C1507.05,1056.20 1507.09,1056.15 1531.86,1072.96 C1543.17,1080.05 1543.19,1080.03 1554.58,1087.00 C1565.40,1093.15 1565.39,1093.18 1576.28,1099.21 C1594.12,1108.12 1594.12,1108.12 1612.04,1116.89 "/><path d="M1615.71,1109.12 C1634.80,1097.26 1634.81,1097.25 1653.81,1085.25 C1676.58,1070.00 1677.06,1070.47 1699.26,1054.61 C1718.09,1033.77 1718.23,1033.55 1735.97,1011.76 C1750.02,985.23 1750.08,985.02 1762.93,957.86 C1771.77,926.38 1771.76,926.20 1779.40,894.39 C1782.77,858.85 1782.73,858.71 1784.95,823.07 C1782.73,784.48 1782.61,784.39 1779.40,745.85 C1773.74,715.80 1773.30,715.84 1767.20,685.84 C1765.06,675.34 1765.25,675.28 1762.93,664.85 C1749.64,623.50 1749.88,623.37 1735.97,582.26 C1718.05,541.14 1717.77,541.22 1699.26,500.34 C1694.02,490.87 1693.86,490.94 1688.45,481.54 C1671.13,451.43 1671.45,451.21 1653.81,421.32 C1627.66,384.14 1627.68,384.05 1600.84,347.37 C1571.70,313.65 1571.35,313.92 1541.82,280.50 C1541.00,279.72 1540.98,279.73 1540.15,278.97 C1509.24,250.74 1509.54,250.36 1478.34,222.52 C1445.61,198.44 1445.56,198.36 1412.25,175.11 C1378.93,156.78 1378.85,156.69 1345.03,139.32 C1312.18,127.33 1312.06,127.24 1278.83,116.36 C1247.26,110.98 1247.09,110.90 1215.36,106.78 C1185.90,108.14 1185.67,108.11 1156.33,110.84 C1129.74,118.92 1129.57,119.11 1103.37,128.43 C1084.04,139.85 1083.87,139.95 1065.17,152.37 "/><path d="M1103.16,1249.38 C1117.80,1220.25 1117.80,1220.24 1132.17,1190.97 C1145.41,1161.36 1145.41,1161.35 1158.38,1131.62 C1170.16,1101.71 1170.17,1101.71 1181.68,1071.69 C1191.95,1041.67 1191.96,1041.66 1201.95,1011.55 C1210.67,981.60 1210.67,981.59 1219.10,951.56 C1226.20,921.86 1226.20,921.85 1233.00,892.09 C1238.42,862.84 1238.40,862.82 1243.54,833.51 C1246.73,809.71 1246.73,809.70 1249.66,785.86 "/><path d="M1130.44,416.30 C1154.58,421.82 1154.58,421.82 1178.71,427.40 C1207.37,434.34 1207.37,434.33 1236.02,441.34 C1264.60,448.66 1264.60,448.66 1293.17,456.06 C1322.21,463.89 1322.21,463.89 1351.23,471.81 C1384.04,481.11 1384.04,481.11 1416.84,490.49 C1443.03,498.28 1443.03,498.28 1469.21,506.13 C1490.89,512.89 1490.89,512.89 1512.56,519.71 "/><path d="M1124.45,175.26 C1148.78,178.40 1148.92,178.42 1173.09,182.60 C1206.30,193.56 1206.43,193.57 1239.29,205.56 C1273.14,222.95 1273.22,223.04 1306.57,241.40 C1339.85,264.63 1339.90,264.71 1372.60,288.76 C1404.64,317.36 1404.37,317.72 1436.07,346.74 C1437.64,348.44 1437.61,348.48 1439.14,350.21 C1467.12,381.91 1467.48,381.64 1495.10,413.61 C1521.92,450.31 1521.97,450.35 1548.06,487.57 C1571.17,526.82 1571.07,526.93 1593.52,566.58 C1603.61,588.32 1603.33,588.48 1613.14,610.37 C1621.68,629.44 1621.96,629.34 1630.22,648.50 C1643.98,689.68 1644.18,689.68 1657.18,731.09 C1665.89,771.46 1665.93,771.53 1673.66,812.09 C1676.94,850.62 1676.98,850.72 1679.20,889.31 C1676.98,924.95 1676.96,925.07 1673.66,960.63 C1667.50,986.51 1667.46,986.64 1660.26,1012.25 "/><path d="M1135.91,1159.15 C1156.88,1102.78 1156.90,1102.72 1176.93,1046.00 C1192.94,988.72 1193.00,988.67 1207.99,931.11 C1218.55,873.38 1218.32,873.29 1228.05,815.38 C1231.04,786.59 1230.91,786.55 1233.42,757.70 C1234.55,729.17 1234.55,729.16 1235.34,700.62 "/><path d="M1235.34,700.62 C1223.22,681.90 1223.22,681.89 1211.00,663.23 C1206.11,656.26 1206.07,656.29 1201.13,649.36 C1193.17,638.17 1193.23,638.12 1185.21,626.98 C1171.70,609.47 1171.70,609.47 1158.09,592.04 "/><path d="M1139.58,1415.15 C1143.04,1397.09 1143.04,1397.08 1146.27,1378.97 C1148.21,1363.23 1148.22,1363.22 1149.93,1347.45 C1150.90,1329.40 1150.90,1329.38 1151.63,1311.33 "/><path d="M1249.89,541.41 C1263.50,559.00 1263.51,559.00 1276.98,576.71 C1289.91,594.96 1289.92,594.96 1302.70,613.31 C1314.90,632.13 1314.90,632.13 1326.94,651.04 "/><path d="M1315.18,663.22 C1403.27,712.55 1403.28,712.55 1491.33,761.94 C1543.69,791.60 1543.68,791.61 1596.01,821.33 C1620.75,835.59 1620.75,835.59 1645.47,849.90 "/><path d="M1660.44,951.84 C1660.97,971.06 1660.97,971.06 1661.24,990.27 C1660.54,1008.82 1660.54,1008.83 1659.58,1027.36 C1657.66,1045.15 1657.66,1045.16 1655.49,1062.92 "/><path d="M1655.49,1062.92 C1644.87,1057.54 1644.87,1057.54 1634.29,1052.09 C1620.99,1044.90 1620.98,1044.92 1607.73,1037.65 C1590.42,1027.54 1590.41,1027.54 1573.16,1017.34 C1557.27,1007.39 1557.27,1007.38 1541.43,997.34 C1525.25,986.64 1525.25,986.63 1509.11,975.85 C1492.32,964.20 1492.32,964.19 1475.58,952.47 C1460.99,941.92 1460.99,941.92 1446.45,931.30 "/><path d="M1428.32,931.91 C1428.40,939.54 1428.40,939.54 1428.42,947.16 C1428.25,955.73 1428.25,955.73 1428.03,964.29 C1427.60,972.60 1427.60,972.61 1427.11,980.91 C1426.45,988.66 1426.45,988.66 1425.73,996.40 "/><path d="M1660.44,951.84 C1659.82,946.57 1659.82,946.50 1659.56,941.20 C1661.32,929.52 1661.80,929.53 1663.45,917.84 C1663.74,880.96 1663.99,880.87 1663.45,844.01 C1658.37,804.62 1658.32,804.52 1652.21,765.27 C1641.63,724.48 1641.59,724.40 1630.06,683.87 C1614.31,642.87 1614.27,642.81 1597.63,602.16 C1577.18,562.14 1577.14,562.08 1555.86,522.49 C1531.31,484.60 1531.14,484.65 1505.95,447.16 C1493.32,431.35 1493.09,431.52 1480.22,415.88 C1464.78,397.10 1465.02,396.86 1449.33,378.32 C1418.73,347.92 1418.80,347.76 1387.63,317.96 C1355.47,292.53 1355.42,292.45 1322.64,267.82 C1289.72,248.16 1289.65,248.07 1256.21,229.34 C1223.49,215.98 1223.25,216.40 1190.25,203.63 C1187.67,203.04 1187.64,203.03 1185.02,202.62 "/><path d="M1212.72,215.12 C1234.41,227.60 1234.43,227.61 1255.92,240.43 C1280.45,257.04 1280.50,257.01 1304.77,273.98 C1328.80,293.29 1328.82,293.31 1352.54,313.00 C1375.74,334.82 1375.76,334.84 1398.63,357.01 "/><path d="M1249.89,541.41 C1297.70,557.67 1297.71,557.67 1345.43,574.19 C1394.39,592.34 1394.37,592.38 1443.25,610.74 C1472.34,622.29 1472.33,622.34 1501.37,634.01 C1524.92,643.85 1524.91,643.87 1548.43,653.78 C1570.56,663.41 1570.56,663.41 1592.67,673.11 "/><path d="M1592.67,673.11 C1601.05,694.11 1601.05,694.12 1609.28,715.19 C1614.32,729.67 1614.24,729.70 1619.21,744.21 C1621.46,750.77 1621.51,750.76 1623.70,757.34 C1629.83,778.33 1629.84,778.33 1635.87,799.34 "/><path d="M1372.13,1377.25 C1373.97,1376.45 1373.98,1376.44 1375.78,1375.55 C1421.34,1347.14 1421.44,1347.25 1466.87,1318.65 C1469.94,1315.76 1469.88,1315.64 1472.79,1312.56 C1474.22,1310.42 1474.19,1310.39 1475.54,1308.19 C1476.56,1306.19 1476.56,1306.18 1477.53,1304.16 "/><path d="M1368.89,1375.84 C1378.62,1366.22 1378.64,1366.20 1388.16,1356.38 C1396.69,1345.89 1396.70,1345.87 1405.01,1335.19 C1413.10,1322.85 1413.11,1322.83 1420.96,1310.34 "/><path d="M1411.38,1222.87 C1417.65,1228.30 1417.66,1228.31 1424.03,1233.61 C1430.00,1237.70 1429.96,1237.85 1436.07,1241.65 C1445.99,1245.14 1446.07,1245.16 1456.14,1248.20 "/><path d="M1406.99,809.87 C1414.66,830.07 1414.66,830.08 1422.19,850.33 C1426.35,862.91 1426.29,862.93 1430.38,875.54 C1432.88,883.23 1432.93,883.21 1435.38,890.91 C1440.96,911.09 1440.97,911.10 1446.45,931.30 "/><path d="M1441.12,1181.97 C1438.07,1186.98 1438.07,1186.98 1434.97,1191.95 C1431.20,1197.52 1431.20,1197.52 1427.37,1203.05 C1423.41,1208.29 1423.40,1208.29 1419.39,1213.48 C1415.41,1218.20 1415.41,1218.20 1411.38,1222.87 "/><path d="M1428.32,931.91 C1444.87,945.20 1444.87,945.20 1461.46,958.43 C1474.43,968.46 1474.43,968.46 1487.45,978.44 C1502.20,989.36 1502.20,989.36 1517.00,1000.23 C1529.62,1009.11 1529.62,1009.11 1542.28,1017.93 C1555.11,1026.44 1555.11,1026.45 1567.99,1034.88 C1579.43,1041.92 1579.43,1041.94 1590.94,1048.89 C1611.11,1060.21 1611.11,1060.22 1631.34,1071.43 "/><path d="M1468.68,1087.25 C1489.00,1101.87 1489.00,1101.87 1509.44,1116.31 C1532.01,1131.14 1532.02,1131.13 1554.70,1145.78 C1568.52,1153.94 1568.54,1153.91 1582.45,1161.92 C1592.72,1167.30 1592.73,1167.29 1603.06,1172.56 C1610.95,1176.13 1610.95,1176.13 1618.89,1179.58 "/><path d="M1618.89,1179.58 C1611.43,1192.64 1611.42,1192.66 1603.69,1205.56 C1595.15,1217.41 1595.14,1217.43 1586.33,1229.09 C1576.75,1239.67 1576.73,1239.69 1566.91,1250.06 "/><path d="M1566.91,1250.06 C1561.98,1250.21 1561.96,1250.21 1557.03,1250.16 C1550.65,1249.19 1550.61,1249.22 1544.28,1248.01 C1535.73,1245.05 1535.71,1245.04 1527.26,1241.82 C1519.05,1237.52 1519.03,1237.50 1510.95,1232.96 "/><path d="M1599.80,665.71 C1611.09,695.97 1611.10,696.00 1621.94,726.42 C1630.69,756.57 1630.70,756.60 1639.00,786.88 C1644.54,813.74 1644.32,813.80 1649.63,840.72 C1650.16,843.53 1650.16,843.54 1650.68,846.35 "/><path d="M802.92,1572.84 L750.12,1559.31 L723.63,1602.99 "/><path d="M623.62,1549.78 L597.13,1477.90 L544.59,1435.56 L496.95,1447.71 "/><path d="M408.40,1348.99 L409.13,1284.54 L368.62,1223.14 L310.75,1200.96 "/><path d="M253.94,1079.35 L281.71,1037.10 L262.53,970.70 L207.73,919.31 "/><path d="M195.62,802.63 L244.09,792.26 L246.28,773.39 L250.61,736.08 L211.34,667.19 "/><path d="M246.81,582.23 L304.86,606.11 L335.60,573.02 L320.92,502.45 "/><path d="M395.77,468.64 L409.49,447.68 L425.47,439.68 "/><path d="M307.31,603.47 L285.71,595.49 L248.18,582.80 "/><path d="M328.47,497.92 L409.49,447.68 "/><path d="M395.77,468.64 L450.11,521.30 L498.03,518.88 "/><path d="M450.11,521.30 L453.13,489.27 L459.72,470.89 "/><path d="M572.56,1458.11 L496.95,1447.71 "/><path d="M608.39,487.88 L646.57,557.26 "/><path d="M516.12,393.99 L516.68,390.42 L524.56,374.90 "/><path d="M951.55,1262.44 L913.39,1281.25 "/><path d="M564.84,735.63 L597.33,708.33 L613.05,702.68 L637.61,693.85 L670.74,693.13 "/><path d="M610.36,345.24 L620.98,335.26 "/><path d="M1431.09,407.23 L1454.75,420.33 "/><path d="M908.95,305.79 L901.96,280.86 "/><path d="M807.32,261.92 L765.30,308.27 "/><path d="M708.92,298.93 L693.85,275.73 "/><path d="M623.20,314.80 L618.84,355.07 "/><path d="M700.69,586.06 L646.57,557.26 "/><path d="M670.74,693.13 L683.84,692.85 L733.98,705.42 "/><path d="M700.69,586.06 L738.86,557.31 "/><path d="M715.33,316.88 L673.06,363.72 "/><path d="M708.92,298.93 L768.46,278.51 L800.65,269.28 "/><path d="M723.63,1602.99 L816.07,1590.57 L802.66,1572.89 "/><path d="M828.13,184.97 L829.39,183.99 L784.79,211.59 L724.70,251.75 "/><path d="M878.91,157.91 L853.30,169.51 L829.39,183.99 "/><path d="M1197.08,215.09 L1192.22,205.87 L1085.12,157.50 "/><path d="M816.07,1590.57 L850.30,1635.73 "/><path d="M938.85,1631.24 L938.12,1566.02 L978.63,1547.73 L1036.50,1587.14 "/><path d="M1093.31,1525.98 L1065.54,1454.17 L1105.26,1410.80 "/><path d="M1065.69,1454.00 L1084.73,1408.20 L1139.58,1415.15 "/><path d="M1151.63,1311.33 L1103.16,1249.38 L1096.64,1186.25 L1135.91,1159.15 "/><path d="M1158.09,592.04 L1082.82,552.85 "/><path d="M1042.39,998.56 L1011.65,932.74 "/><path d="M941.01,396.18 L874.73,400.50 "/><path d="M897.14,759.17 L849.22,705.75 "/><path d="M878.91,157.91 L922.26,162.29 "/><path d="M897.14,759.17 L951.48,764.34 "/><path d="M1212.72,215.12 L1197.08,215.09 "/><path d="M1400.38,366.39 L1398.63,357.01 L1313.87,288.13 "/><path d="M938.85,1631.24 L1033.01,1584.76 "/><path d="M1130.44,416.30 L1127.75,437.26 "/><path d="M1562.04,595.43 L1577.50,627.01 L1592.45,660.91 "/><path d="M1175.18,502.28 L1151.70,468.75 L1127.75,437.26 "/><path d="M1042.39,998.56 L1100.44,1036.46 "/><path d="M1082.82,552.85 L1059.83,520.20 L1042.31,497.15 "/><path d="M1461.59,1192.87 L1441.44,1181.97 "/><path d="M1468.68,1087.25 L1425.73,996.40 "/><path d="M1612.04,1116.89 L1615.71,1109.12 "/><path d="M1249.66,785.86 L1244.01,767.86 L1234.05,739.16 "/><path d="M1175.18,502.28 L1249.89,541.41 "/><path d="M1326.94,651.04 L1315.18,663.22 "/><path d="M1645.47,849.90 L1649.32,880.58 L1651.69,912.53 L1507.71,830.36 L1340.45,736.32 L1406.99,809.87 L1554.36,891.97 L1660.44,951.84 "/><path d="M1446.45,931.30 L1428.32,931.91 "/><path d="M1316.66,859.59 L1249.66,785.86 "/><path d="M1635.87,799.34 L1509.63,739.44 L1326.94,651.04 "/><path d="M1315.18,663.22 L1328.54,699.29 L1340.45,736.32 "/><path d="M1334.41,1359.38 L1350.99,1355.57 L1368.89,1375.84 L1372.13,1377.25 "/><path d="M1477.53,1304.16 L1482.53,1236.94 "/><path d="M1334.73,1362.18 L1328.92,1310.13 "/><path d="M1380.41,1137.52 L1337.53,1047.22 "/><path d="M1420.96,1310.34 L1411.38,1222.87 "/><path d="M1456.14,1248.20 L1464.31,1246.95 L1491.74,1231.75 L1499.98,1226.50 "/><path d="M1400.38,366.39 L1423.78,391.58 L1442.73,413.67 "/><path d="M1441.44,1181.97 L1441.12,1181.97 "/><path d="M1420.96,1310.34 L1441.02,1321.03 L1458.29,1322.57 L1466.87,1318.65 "/><path d="M1631.34,1071.43 L1622.78,1094.20 L1615.71,1109.12 "/><path d="M1562.04,595.43 L1564.10,588.13 "/><path d="M1592.67,673.11 L1599.80,665.71 "/><path d="M1650.68,846.35 L1645.47,849.90 "/><path d="M1592.45,660.91 L1599.80,665.71 "/><path d="M1612.04,1116.89 L1615.55,1125.97 L1618.89,1179.58 "/><path d="M1633.38,1071.70 L1630.22,1078.00 L1627.74,1081.02 "/><path d="M1631.34,1071.43 L1638.69,1072.39 L1655.49,1062.92 "/><path d="M1650.68,846.35 L1635.87,799.34 "/><path d="M1651.69,912.53 L1657.83,920.37 L1659.56,941.20 "/></g></g><g id="paperID" visibility="hidden" opacity="0.00" transform="scale(0.000100)"><path style="stroke:#000000;stroke-width:0.500;fill:#e6e6e6;fill-rule:evenodd" d="M-2000.00,-2000.00L4000.00,-2000.00L4000.00,3700.00L-2000.00,3700.00zM0.00,0.00L2000.00,0.00L2000.00,1700.00L0.00,1700.00z"/><path style="fill:#000000;fill-opacity:0.118" d="M3.00,1700.00L2000.00,1700.00L2000.00,3.00L2003.00,3.00L2003.00,1703.00L3.00,1703.00z"/></g><g id="ToolTip" visibility="hidden" opacity="0" transform="translate(0,0)"><rect id="ToolTipShadow" opacity="0.20" fill="black" stroke="none" x="0" y="0" width="30" height="8"/><rect id="ToolTipBG" fill="#ffffe1" stroke="black" x="0" y="0" width="30" height="8"/><text xml:space="preserve" id="ToolTipText" fill="black" x="0" y="0" width="30" height="8">tooltip</text></g></g></svg>
