<?xml version="1.0" encoding="UTF-8" standalone="no"?>
<svg xmlns="http://www.w3.org/2000/svg" xmlns:xlink="http://www.w3.org/1999/xlink" width="2000.000mm" height="1700.000mm" viewBox="0.000000 0.000000 2000.000000 1700.000000" stroke-linejoin="round" stroke-linecap="round" fill="none" fill-rule="evenodd"><desc>Composer Export</desc><script type="text/ecmascript"><![CDATA[
if(typeof(top) != "undefined")
{
	top.ShowPaper = ShowPaper;
}
function ShowHotSpot(evt,hotspotid)
{
	var svgDocument = evt.target.ownerDocument;
	var strId = "hotspot."+hotspotid;
	var hotspot = svgDocument.getElementById(strId);
	if(hotspot)
		hotspot.setAttribute("opacity",".5");
}
function HideHotSpot(evt,hotspotid)
{
	var svgDocument = evt.target.ownerDocument;
	var strId = "hotspot."+hotspotid;
	var hotspot = svgDocument.getElementById(strId);
	if(hotspot)
		hotspot.setAttribute("opacity","0");

	var toolTip = svgDocument.getElementById('ToolTip');
	if(toolTip)
		toolTip.setAttribute("visibility","hidden");
}
function ShowToolTip(evt,hotspotid,strTooltip)
{
	if(strTooltip=="")
	return;

	// change text
	var svgDocument = evt.target.ownerDocument;
	var tiptext = svgDocument.getElementById('ToolTipText');
	if( !tiptext )
	return;
	tiptext.firstChild.nodeValue = " " + strTooltip + "  " ;

	// show tooltip before, else some refresh issue

	var toolTip = svgDocument.getElementById('ToolTip');
	if(!toolTip)
	return;

	toolTip.setAttribute("visibility","visible");
	toolTip.setAttribute("opacity",".95");

	// move tooltip
	// get viewbox

	var root = svgDocument.documentElement;
	var vbox = (root.getAttribute("viewBox")).split(' ');
	var x0 = parseFloat(vbox[0]);
	var y0 = parseFloat(vbox[1]);
	var vboxW = parseFloat(vbox[2]);
	var vboxH = parseFloat(vbox[3]);

	// get default width of svg

	var strW = root.getAttribute("width");
	var svgW = parseFloat(strW);
	if(strW.indexOf('mm') != -1)
	svgW *= 3.779;

	var strH = root.getAttribute("height");
	var svgH = parseFloat(strH);
	if(strH.indexOf('mm') != -1)
	svgH *= 3.779;  	// 96 dpi  -> 96/25.4 = 3.779

	// update the viewbox / width / height if svg is embedded in html with zoom fit all
	var realx0 = x0;
	var realy0 = y0;
	var realvboxW = vboxW;
	var realvboxH = vboxH;
	var realsvgW = svgW;
	var realsvgH = svgH;

	if ((typeof(top) == "undefined") || (typeof(top.svgctl1) != "undefined")) // embedded in html
	{
		// get window size in pxl

		svgW = window.innerWidth;
		svgH = window.innerHeight;

		// calculate real viewbox

		realsvgW = svgW;
		realsvgH = svgH;
		if((svgW / svgH) > (vboxW / vboxH))
		{
			realvboxW = (vboxH * svgW) / svgH;
			realvboxH = vboxH;
			realx0 = x0 - (realvboxW - vboxW)/2 ;
		}
		else
		{
			realvboxH = (vboxW * svgH) / svgW;
			realvboxW = vboxW;
			realy0 = y0 - (realvboxH - vboxH)/2 ;
		}
	}

	// get user zoom/pan

	var newScale = root.currentScale;
	var translation = root.currentTranslate;

	// transform pxl to user unit

	var xPos = (((evt.clientX+10- translation.x)/newScale) * realvboxW)/realsvgW  + realx0 ;
	var yPos = (((evt.clientY+5- translation.y)/newScale) * realvboxH)/ realsvgH  + realy0 ;
	var scaleForWidth = ( (1 / newScale) * realvboxH) / realsvgH;

	// move tooltip

	toolTip.setAttribute("transform", "translate(" + xPos + "," + yPos + ")" );

	// resize tooltip

	var fontsize = 12;
	tiptext.setAttribute("font-size",fontsize*scaleForWidth);
	tiptext.setAttribute("y", fontsize*scaleForWidth);
	var tipBG = svgDocument.getElementById('ToolTipBG');
	var outline = tiptext.getBBox();
	if(tipBG)
	{
		tipBG.setAttribute("stroke-width", 1*scaleForWidth);
		tipBG.setAttribute("width", Number(outline.width) );
		tipBG.setAttribute("height", Number(outline.height) + fontsize*.5*scaleForWidth );
	}
	var ToolTipShadow = svgDocument.getElementById('ToolTipShadow');
	if(ToolTipShadow)
	{
		ToolTipShadow.setAttribute("width", Number(outline.width) );
		ToolTipShadow.setAttribute("height", Number(outline.height) + fontsize*.5*scaleForWidth );
		ToolTipShadow.setAttribute("x", 3*scaleForWidth);
		ToolTipShadow.setAttribute("y", 3*scaleForWidth);
	}
}
function ShowPaper()
{
  var svgDocument = getDocument();
  var paper = svgDocument.getElementById("paperID");
  if(paper)
  {
    paper.setAttribute("transform","scale(1)");
    paper.setAttribute("opacity","1");
    paper.setAttribute("visibility","visible");
  }
  var svg = svgDocument.getRootElement();
  if(svg)
  {
    svg.setAttribute("width","2010.000mm");
    svg.setAttribute("height","1710.000mm");
    svg.setAttribute("viewBox","-5.000000 -5.000000 2010.000000 1710.000000");
  }
}
]]></script><defs/><g><path style="fill:#ffffff" d="M1999.44,1699.60L0.38,1699.60L0.38,0.38L1999.44,0.38z"/><path style="fill:#9f9fa4" d="M1486.55,269.03L1498.00,270.90L1514.46,274.72L1522.20,275.92L1523.01,277.47L1524.96,276.94L1527.14,277.16L1526.33,278.66L1528.88,278.69L1529.86,277.98L1541.95,281.27L1566.14,291.38L1590.24,305.40L1615.68,324.42L1633.59,340.82L1644.91,351.10L1657.73,364.96L1667.86,376.43L1688.10,401.92L1699.95,421.52L1699.40,423.49L1702.27,424.39L1705.28,430.73L1705.89,433.73L1707.65,434.23L1721.28,458.95L1733.85,484.50L1750.36,526.44L1758.69,559.03L1759.40,562.86L1760.58,565.85L1761.20,573.04L1761.95,576.78L1762.52,580.62L1763.22,585.75L1763.81,590.75L1764.48,598.47L1764.48,627.60L1763.83,635.30L1762.49,644.19L1760.49,655.13L1753.76,675.08L1745.26,691.99L1737.25,703.03L1727.00,714.39L1704.26,729.76L1689.35,736.45L1677.48,739.83L1669.80,747.39L1659.62,756.27L1636.91,770.41L1616.82,777.00L1603.76,790.62L1586.47,802.55L1569.56,811.05L1555.53,814.81L1550.48,818.65L1540.23,830.00L1521.29,842.83L1505.14,850.82L1492.85,853.50L1490.61,854.19L1486.85,859.21L1476.02,868.70L1461.95,878.77L1442.51,888.55L1433.13,890.89L1429.83,891.10L1429.61,891.90L1421.34,901.69L1411.28,909.42L1389.11,922.83L1367.50,930.44L1357.24,941.78L1345.19,951.32L1323.08,963.52L1304.03,968.61L1303.05,970.17L1291.17,982.43L1277.16,992.56L1258.29,1002.91L1245.18,1006.48L1243.43,1005.33L1242.61,1007.20L1239.11,1011.67L1228.26,1021.17L1212.38,1031.96L1199.79,1038.44L1182.02,1044.80L1176.08,1051.56L1161.56,1063.73L1145.73,1073.31L1136.31,1077.86L1118.40,1082.83L1109.49,1092.97L1099.31,1101.85L1082.20,1112.69L1072.78,1117.25L1059.60,1120.85L1056.29,1121.06L1056.07,1121.87L1045.34,1133.00L1027.57,1145.74L1021.51,1148.62L1021.07,1139.99L1020.73,1148.14L1021.51,1148.62L1021.80,1158.69L1022.49,1167.66L1023.07,1177.74L1023.76,1186.72L1024.34,1195.53L1025.03,1205.77L1025.61,1214.59L1026.30,1224.83L1026.88,1233.65L1027.57,1254.05L1027.57,1284.47L1026.32,1308.62L1021.80,1343.00L1014.80,1375.63L1005.79,1400.92L994.40,1426.38L978.75,1452.66L961.36,1474.65L939.27,1495.76L908.90,1516.21L883.44,1528.87L859.67,1536.87L846.22,1539.61L827.14,1542.75L800.49,1543.98L794.03,1543.98L763.59,1541.48L736.91,1536.35L713.56,1530.20L690.71,1522.55L660.25,1509.82L623.54,1490.63L594.29,1472.87L557.42,1446.21L529.50,1423.31L501.55,1397.90L469.77,1366.15L463.43,1358.51L438.00,1329.31L415.18,1300.04L385.79,1258.28L362.96,1221.39L340.04,1180.79L317.17,1132.51L303.18,1098.22L290.45,1063.94L275.23,1010.54L269.08,983.39L268.93,980.04L268.36,979.62L267.80,975.73L267.68,972.40L267.11,971.93L265.30,961.77L265.12,958.44L264.54,958.02L263.99,954.13L263.85,950.82L263.28,950.40L262.73,946.51L262.57,943.19L261.99,942.76L261.43,937.70L261.26,931.71L260.75,931.25L260.17,925.00L259.99,919.01L259.48,918.54L258.92,912.27L258.75,907.58L258.18,907.13L257.63,893.22L257.45,873.29L256.94,872.82L256.94,861.46L258.86,825.82L263.78,791.17L264.55,789.01L271.42,759.31L281.64,730.14L295.57,702.14L311.59,677.50L328.75,657.82L340.07,647.54L351.66,637.53L380.31,619.17L407.01,606.48L431.98,599.42L454.89,595.61L471.33,594.32L489.15,593.61L519.67,596.12L540.05,599.97L549.70,601.40L581.47,610.29L610.70,621.72L647.55,639.50L742.79,695.56L750.95,693.48L754.37,692.83L753.34,691.20L758.94,685.25L777.12,671.67L798.33,659.84L811.95,655.41L813.99,655.17L814.29,653.21L818.66,648.41L834.30,636.09L856.77,622.99L874.21,617.29L876.24,617.05L876.55,615.09L880.91,610.29L896.20,598.89L917.74,586.13L938.68,577.85L948.25,568.36L968.56,554.36L990.55,543.32L998.72,541.06L1000.76,540.82L1001.06,538.86L1009.24,530.25L1023.23,520.10L1042.28,508.66L1063.20,500.35L1074.04,489.59L1091.84,478.17L1111.29,468.40L1124.19,463.51L1133.75,454.01L1158.31,437.92L1165.50,433.68L1187.01,424.69L1197.28,414.63L1219.26,399.77L1240.44,389.18L1247.76,387.34L1250.14,386.20L1250.09,385.13L1258.26,376.51L1270.98,367.63L1287.48,357.45L1310.25,348.45L1319.65,340.07L1331.97,330.79L1353.55,318.07L1373.81,310.37L1377.64,305.32L1390.43,295.23L1410.71,282.47L1431.06,273.60L1445.94,270.35L1454.73,269.07L1477.59,268.37z"/><path style="fill:#000020" d="M1522.20,275.92L1524.96,276.94L1523.01,277.47z"/><path style="fill:#000020" d="M1529.86,277.98L1528.88,278.69L1526.33,278.66L1527.14,277.16z"/><path style="fill:#000020" d="M1250.14,386.20L1247.76,387.34L1250.09,385.13z"/><path style="fill:#000020" d="M1702.27,424.39L1699.40,423.49L1699.95,421.52z"/><path style="fill:#000020" d="M1707.65,434.23L1705.89,433.73L1705.28,430.73L1705.99,431.02z"/><path style="fill:#000020" d="M1000.76,540.82L998.72,541.06L1001.06,538.86z"/><path style="fill:#000020" d="M1759.40,562.86L1758.69,559.03L1759.26,559.49z"/><path style="fill:#000020" d="M1761.95,576.78L1761.20,573.04L1761.80,573.47z"/><path style="fill:#000020" d="M1763.22,585.75L1762.52,580.62L1763.07,581.04z"/><path style="fill:#000020" d="M1764.48,598.47L1763.81,590.75L1764.30,591.22z"/><path style="fill:#000020" d="M876.24,617.05L874.21,617.29L876.55,615.09z"/><path style="fill:#000020" d="M813.99,655.17L811.95,655.41L814.29,653.21z"/><path style="fill:#000020" d="M754.37,692.83L750.95,693.48L753.34,691.20z"/><path style="fill:#000020" d="M1429.61,891.90L1429.83,891.10L1433.13,890.89z"/><path style="fill:#000020" d="M257.63,893.22L256.94,872.82L257.45,873.29z"/><path style="fill:#000020" d="M258.92,912.27L258.18,907.13L258.75,907.58z"/><path style="fill:#000020" d="M260.17,925.00L259.48,918.54L259.99,919.01z"/><path style="fill:#000020" d="M261.43,937.70L260.75,931.25L261.26,931.71z"/><path style="fill:#000020" d="M262.73,946.51L261.99,942.76L262.57,943.19z"/><path style="fill:#000020" d="M263.99,954.13L263.28,950.40L263.85,950.82z"/><path style="fill:#000020" d="M265.30,961.77L264.54,958.02L265.12,958.44z"/><path style="fill:#000020" d="M267.80,975.73L267.11,971.93L267.68,972.40z"/><path style="fill:#000020" d="M269.08,983.39L268.36,979.62L268.93,980.04z"/><path style="fill:#000020" d="M1245.18,1006.48L1242.61,1007.20L1243.43,1005.33z"/><path style="fill:#000020" d="M1018.61,1086.61L1018.61,1094.81L1017.20,1093.35L1017.20,1084.14z"/><path style="fill:#000020" d="M1056.07,1121.87L1056.29,1121.06L1059.60,1120.85z"/><path style="fill:#000020" d="M1021.51,1148.62L1020.73,1148.14L1021.07,1139.99z"/><path style="fill:#000020" d="M1022.49,1167.66L1021.80,1158.69L1022.31,1159.16z"/><path style="fill:#000020" d="M1023.76,1186.72L1023.07,1177.74L1023.58,1178.22z"/><path style="fill:#000020" d="M1025.03,1205.77L1024.34,1195.53L1024.85,1196.00z"/><path style="fill:#000020" d="M1026.30,1224.83L1025.61,1214.59L1026.12,1215.06z"/><path style="fill:#000020" d="M1027.57,1254.05L1026.88,1233.65L1027.39,1234.12z"/><g id="Actor_.0"><g style="stroke:#000000;stroke-width:1.411"><path d="M258.31,903.12 C259.66,922.92 260.21,922.94 262.39,942.72 C265.72,962.79 265.73,962.80 269.33,982.82 C274.07,1003.24 274.07,1003.25 279.06,1023.61 C285.17,1044.21 285.18,1044.22 291.53,1064.76 C298.97,1085.39 298.98,1085.40 306.65,1105.95 C315.36,1126.46 315.36,1126.47 324.29,1146.88 C334.19,1167.11 334.20,1167.12 344.32,1187.24 C355.34,1207.04 355.35,1207.05 366.58,1226.73 C378.65,1245.94 378.65,1245.95 390.92,1265.03 C403.93,1283.50 403.93,1283.51 417.14,1301.85 C430.99,1319.46 431.00,1319.47 445.04,1336.92 C459.63,1353.53 459.63,1353.53 474.41,1369.97 C489.62,1385.45 489.63,1385.46 505.03,1400.75 C520.76,1414.98 520.77,1414.99 536.67,1429.02 C552.78,1441.90 552.79,1441.91 569.07,1454.57 C585.46,1466.00 585.47,1466.01 602.01,1477.22 C618.54,1487.11 618.55,1487.12 635.23,1496.77 C651.77,1505.05 651.78,1505.06 668.45,1513.07 C684.90,1519.69 684.91,1519.70 701.47,1526.03 C717.68,1530.92 717.69,1530.93 733.99,1535.51 C749.85,1538.66 749.89,1538.52 765.79,1541.48 C766.92,1541.59 766.93,1541.57 768.06,1541.66 C782.34,1542.76 782.34,1542.93 796.62,1543.87 C811.42,1543.43 811.46,1543.44 826.24,1542.65 C840.35,1540.43 840.39,1540.43 854.43,1537.85 C867.75,1533.87 867.79,1533.86 880.99,1529.51 C893.41,1523.78 893.44,1523.76 905.69,1517.68 C917.12,1510.23 917.15,1510.21 928.36,1502.44 C938.71,1493.34 938.73,1493.31 948.82,1483.93 C958.00,1473.24 958.02,1473.21 966.92,1462.28 C974.87,1450.09 974.88,1450.05 982.52,1437.66 C989.16,1424.05 989.17,1424.02 995.49,1410.25 C1000.78,1395.32 1000.78,1395.29 1005.75,1380.25 C1009.64,1364.14 1009.64,1364.11 1013.22,1347.93 C1015.68,1330.73 1015.67,1330.71 1017.83,1313.47 C1018.84,1295.34 1018.83,1295.33 1019.55,1277.19 C1019.11,1258.27 1019.10,1258.25 1018.37,1239.35 C1016.48,1219.77 1016.47,1219.76 1014.30,1200.21 C1010.97,1180.14 1010.96,1180.13 1007.37,1160.11 C1002.63,1139.69 1002.62,1139.68 997.63,1119.32 C991.52,1098.72 991.51,1098.71 985.16,1078.17 C977.72,1057.54 977.62,1057.57 970.04,1036.98 C969.02,1034.55 969.00,1034.56 967.96,1032.14 C960.18,1014.09 960.28,1014.05 952.40,996.05 C942.49,975.82 942.49,975.81 932.38,955.69 C921.35,935.89 921.35,935.88 910.11,916.20 C898.05,896.99 898.04,896.98 885.77,877.90 C872.76,859.43 872.76,859.42 859.55,841.08 C845.70,823.47 845.70,823.46 831.65,806.01 C817.06,789.41 817.05,789.40 802.29,772.96 C789.06,759.50 788.98,759.58 775.67,746.20 C773.67,744.19 773.69,744.16 771.67,742.18 C755.87,728.02 755.93,727.94 740.02,713.91 C723.91,701.03 723.90,701.02 707.62,688.36 C691.23,676.93 691.22,676.92 674.68,665.71 C658.15,655.83 658.14,655.81 641.48,646.17 C624.99,637.92 624.98,637.91 608.36,629.92 C591.86,623.28 591.84,623.26 575.22,616.90 C559.02,612.01 559.00,612.00 542.71,607.42 C526.84,604.27 526.82,604.26 510.90,601.45 C495.51,600.09 495.48,600.08 480.07,599.06 C465.27,599.49 465.24,599.50 450.45,600.28 C438.14,602.20 438.15,602.37 425.86,604.47 C424.06,604.77 424.04,604.73 422.26,605.08 C408.97,609.21 408.90,609.07 395.71,613.43 C383.29,619.15 383.25,619.17 371.00,625.25 C359.57,632.70 359.54,632.72 348.33,640.49 C337.99,649.59 337.96,649.62 327.87,659.00 C318.69,669.69 318.67,669.72 309.77,680.65 C301.83,692.84 301.81,692.88 294.18,705.27 C287.53,718.88 287.52,718.91 281.20,732.68 C275.91,747.61 275.91,747.64 270.94,762.68 C267.05,778.79 267.05,778.82 263.48,795.00 C261.02,812.20 261.02,812.22 258.87,829.46 C257.85,847.58 257.86,847.60 257.14,865.73 C257.58,884.42 257.04,884.52 258.31,903.12 "/><path d="M905.69,1517.68 C909.88,1515.14 909.88,1515.14 914.03,1512.55 C925.38,1504.95 925.49,1505.08 936.70,1497.31 C947.04,1488.21 947.07,1488.19 957.16,1478.80 C966.34,1468.11 966.36,1468.08 975.25,1457.15 C983.20,1444.96 983.22,1444.93 990.85,1432.53 C997.70,1418.37 997.69,1418.34 1004.21,1404.02 C1009.30,1389.64 1009.30,1389.61 1014.08,1375.12 C1017.97,1359.01 1017.98,1358.98 1021.55,1342.80 C1024.01,1325.60 1024.01,1325.58 1026.16,1308.34 C1027.18,1290.22 1027.17,1290.20 1027.89,1272.06 C1027.44,1253.14 1027.44,1253.13 1026.71,1234.22 C1024.81,1214.64 1024.81,1214.63 1022.64,1195.08 C1019.30,1175.01 1019.30,1175.00 1015.70,1154.98 C1010.96,1134.56 1010.96,1134.55 1005.97,1114.19 C999.86,1093.59 999.85,1093.58 993.49,1073.04 C986.06,1052.41 986.05,1052.40 978.38,1031.85 C969.67,1011.34 969.63,1011.35 960.74,990.92 C955.73,980.64 955.66,980.67 950.57,970.42 C945.64,960.49 945.71,960.45 940.71,950.56 C929.65,930.78 929.68,930.75 918.45,911.07 C906.38,891.86 906.34,891.88 894.11,872.77 C888.18,864.32 888.12,864.36 882.13,855.95 C875.01,845.95 875.08,845.90 867.89,835.95 C854.01,818.36 854.03,818.33 839.99,800.88 C825.40,784.28 825.40,784.27 810.62,767.83 C795.40,752.35 795.40,752.35 780.00,737.05 C764.27,722.82 764.26,722.81 748.36,708.78 C732.24,695.90 732.24,695.89 715.96,683.23 C699.57,671.80 699.56,671.79 683.02,660.59 C666.49,650.70 666.48,650.68 649.81,641.04 C633.26,632.76 633.25,632.75 616.58,624.73 C600.13,618.12 600.12,618.10 583.56,611.77 C567.35,606.88 567.34,606.87 551.04,602.29 C535.18,599.15 535.16,599.13 519.24,596.32 C503.85,594.96 503.82,594.95 488.41,593.94 C473.61,594.36 473.57,594.36 458.79,595.15 C444.68,597.37 444.64,597.37 430.59,599.95 C417.28,603.94 417.24,603.94 404.04,608.30 C391.62,614.03 391.65,614.14 379.34,620.12 C375.13,622.62 375.12,622.63 371.00,625.25 "/><path d="M486.02,1019.30 C485.14,1011.39 485.14,1011.38 484.37,1003.45 C484.08,995.78 484.07,995.78 483.89,988.10 C484.18,980.76 484.18,980.75 484.60,973.41 C485.47,966.43 485.47,966.42 486.46,959.45 C487.91,952.89 487.91,952.88 489.49,946.35 C491.50,940.26 491.50,940.25 493.64,934.21 C496.20,928.63 496.21,928.62 498.90,923.10 C501.99,918.07 502.00,918.06 505.22,913.12 C508.82,908.69 508.83,908.68 512.55,904.35 C516.64,900.55 516.65,900.54 520.84,896.85 C525.38,893.71 525.40,893.70 530.03,890.68 C534.94,888.24 534.95,888.25 539.92,885.94 C543.70,884.67 543.73,884.73 547.53,883.53 C549.16,883.01 549.16,882.98 550.80,882.50 C556.50,881.49 556.50,881.45 562.21,880.56 C568.21,880.24 568.22,880.24 574.22,880.07 C580.47,880.48 580.48,880.48 586.71,881.03 C593.16,882.17 593.17,882.18 599.59,883.45 C606.19,885.31 606.20,885.31 612.77,887.29 C619.48,889.86 619.48,889.86 626.14,892.54 C632.49,895.61 632.49,895.62 638.78,898.80 "/><path d="M638.78,898.80 C636.87,897.98 636.86,897.98 634.93,897.20 C632.43,896.42 632.43,896.42 629.92,895.68 C627.25,895.09 627.25,895.09 624.57,894.55 C621.72,894.16 621.71,894.14 618.85,893.81 C612.52,893.56 612.51,893.53 606.18,893.38 C598.90,893.78 598.90,893.79 591.63,894.31 C583.24,895.41 583.23,895.42 574.85,896.63 C565.09,898.47 565.08,898.48 555.33,900.41 C543.82,903.08 543.82,903.09 532.32,905.84 C518.76,909.44 518.76,909.44 505.22,913.12 "/><path d="M505.22,913.12 C507.59,917.69 507.59,917.70 509.90,922.30 C511.88,926.83 511.88,926.84 513.80,931.39 C515.44,935.90 515.44,935.90 517.01,940.44 C518.32,944.97 518.32,944.98 519.56,949.53 C520.56,954.11 520.56,954.12 521.50,958.71 C522.20,963.38 522.19,963.38 522.83,968.06 C523.24,972.83 523.24,972.84 523.60,977.62 C523.73,982.53 523.73,982.53 523.80,987.45 C523.65,992.55 523.65,992.55 523.45,997.64 C523.02,1002.94 523.02,1002.94 522.53,1008.23 C521.82,1013.77 521.82,1013.78 521.05,1019.31 C520.03,1025.15 520.03,1025.15 518.96,1030.97 C517.63,1037.14 517.63,1037.14 516.26,1043.30 C514.60,1049.85 514.59,1049.85 512.89,1056.39 C510.87,1063.39 510.87,1063.40 508.81,1070.38 C506.41,1077.92 506.41,1077.92 503.95,1085.44 "/><path d="M503.95,1085.44 C500.85,1077.11 500.84,1077.11 497.83,1068.74 C495.26,1060.42 495.25,1060.42 492.78,1052.07 C490.76,1043.83 490.75,1043.82 488.83,1035.56 C487.38,1027.44 487.38,1027.44 486.02,1019.30 "/><path d="M503.95,1085.44 C507.48,1093.75 507.48,1093.75 511.10,1102.02 C515.11,1110.21 515.11,1110.22 519.21,1118.37 C523.68,1126.39 523.68,1126.40 528.24,1134.37 C533.13,1142.16 533.13,1142.16 538.10,1149.89 C543.37,1157.38 543.37,1157.38 548.72,1164.81 C554.33,1171.94 554.33,1171.95 560.02,1179.02 C565.94,1185.75 565.94,1185.75 571.93,1192.41 C578.09,1198.68 578.10,1198.69 584.33,1204.88 C590.70,1210.64 590.71,1210.65 597.14,1216.33 C603.68,1221.55 603.68,1221.55 610.28,1226.69 C616.92,1231.32 616.92,1231.32 623.62,1235.86 C630.32,1239.87 630.33,1239.87 637.09,1243.79 "/><path d="M637.09,1243.79 C650.68,1240.09 650.68,1240.09 664.29,1236.47 C675.73,1233.73 675.73,1233.72 687.19,1231.06 C696.94,1229.13 696.94,1229.13 706.70,1227.29 C715.08,1226.08 715.09,1226.08 723.48,1224.98 C730.75,1224.45 730.76,1224.44 738.03,1224.03 C744.36,1224.18 744.37,1224.21 750.70,1224.46 C753.57,1224.80 753.57,1224.82 756.43,1225.21 C759.11,1225.76 759.11,1225.76 761.78,1226.34 C764.30,1227.08 764.30,1227.07 766.80,1227.86 C769.14,1228.81 769.15,1228.81 771.47,1229.81 "/><path d="M771.47,1229.81 C767.87,1234.24 767.86,1234.25 764.14,1238.58 C760.05,1242.38 760.04,1242.39 755.85,1246.08 C751.31,1249.23 751.29,1249.23 746.66,1252.25 C741.70,1254.72 741.68,1254.72 736.65,1257.05 C731.30,1258.81 731.29,1258.81 725.89,1260.43 C720.21,1261.48 720.19,1261.48 714.48,1262.37 C708.48,1262.69 708.47,1262.69 702.47,1262.86 C696.22,1262.45 696.21,1262.45 689.98,1261.90 C683.53,1260.76 683.52,1260.75 677.10,1259.48 C670.50,1257.62 670.49,1257.62 663.92,1255.64 C657.22,1253.07 657.21,1253.07 650.55,1250.39 C643.79,1247.14 643.79,1247.14 637.09,1243.79 "/><path d="M637.09,1243.79 C634.82,1236.74 634.82,1236.74 632.49,1229.71 C630.06,1223.17 630.05,1223.17 627.56,1216.65 C624.96,1210.54 624.96,1210.54 622.30,1204.46 C619.50,1198.71 619.50,1198.71 616.65,1193.00 C613.66,1187.58 613.66,1187.57 610.61,1182.18 C607.40,1177.04 607.40,1177.04 604.13,1171.93 C600.69,1167.02 600.69,1167.02 597.19,1162.16 C593.49,1157.46 593.48,1157.46 589.73,1152.80 C585.75,1148.26 585.75,1148.26 581.72,1143.76 C577.43,1139.37 577.43,1139.37 573.10,1135.02 C568.47,1130.74 568.47,1130.73 563.80,1126.49 C558.79,1122.30 558.78,1122.31 553.73,1118.17 C548.31,1114.03 548.31,1114.03 542.84,1109.95 C536.93,1105.84 536.93,1105.84 530.98,1101.79 C524.55,1097.68 524.55,1097.68 518.08,1093.63 C511.03,1089.51 511.03,1089.51 503.95,1085.44 "/><path d="M638.78,898.80 C645.96,902.88 645.96,902.88 653.07,907.07 C659.78,911.60 659.78,911.61 666.41,916.24 C673.01,921.38 673.02,921.38 679.55,926.60 C685.99,932.28 685.99,932.29 692.36,938.05 C698.60,944.24 698.60,944.25 704.76,950.52 C710.75,957.18 710.76,957.18 716.67,963.91 C722.36,970.98 722.36,970.99 727.97,978.12 C733.32,985.55 733.32,985.55 738.59,993.04 C743.56,1000.77 743.56,1000.77 748.45,1008.56 C753.01,1016.54 753.01,1016.54 757.48,1024.56 C761.58,1032.71 761.58,1032.72 765.59,1040.91 C769.21,1049.18 769.21,1049.18 772.74,1057.49 C775.85,1065.82 775.85,1065.82 778.86,1074.19 C781.44,1082.51 781.44,1082.51 783.91,1090.86 C785.94,1099.10 785.94,1099.11 787.86,1107.37 C789.32,1115.49 789.32,1115.49 790.67,1123.63 C791.55,1131.54 791.55,1131.55 792.32,1139.48 C792.62,1147.14 792.62,1147.15 792.80,1154.81 C792.51,1162.17 792.51,1162.18 792.10,1169.52 C791.22,1176.50 791.23,1176.51 790.23,1183.48 C788.78,1190.04 788.78,1190.05 787.20,1196.58 C785.19,1202.67 785.19,1202.68 783.05,1208.72 C780.49,1214.30 780.48,1214.31 777.79,1219.83 C774.70,1224.86 774.69,1224.87 771.47,1229.81 "/><path d="M746.83,698.32 C748.24,697.91 748.24,697.91 749.66,697.55 C755.18,696.54 755.18,696.51 760.71,695.56 C766.41,694.98 766.42,694.98 772.12,694.50 C777.99,694.40 778.00,694.40 783.86,694.39 C789.87,694.79 789.88,694.79 795.88,695.27 C802.01,696.16 802.02,696.16 808.14,697.13 C814.38,698.52 814.39,698.53 820.61,700.01 C826.95,701.88 826.95,701.88 833.26,703.83 C839.65,706.18 839.65,706.19 846.01,708.62 C852.44,711.41 852.45,711.41 858.84,714.27 C865.28,717.50 865.29,717.51 871.69,720.80 C878.12,724.44 878.12,724.45 884.51,728.15 C890.82,732.12 890.82,732.13 897.10,736.16 C903.50,740.62 903.50,740.62 909.87,745.13 C916.11,749.88 916.12,749.88 922.32,754.69 C928.45,759.77 928.46,759.77 934.55,764.90 C940.54,770.30 940.54,770.31 946.50,775.76 C952.36,781.47 952.36,781.47 958.17,787.23 C963.81,793.17 963.81,793.17 969.39,799.16 C974.84,805.38 974.84,805.38 980.25,811.63 C985.46,818.09 985.46,818.09 990.63,824.59 C995.60,831.26 995.60,831.26 1000.52,837.97 C1005.21,844.83 1005.21,844.83 1009.84,851.72 C1014.24,858.75 1014.24,858.75 1018.58,865.82 C1022.73,873.07 1022.73,873.07 1026.83,880.36 C1030.58,887.54 1030.58,887.54 1034.27,894.74 C1037.76,902.08 1037.77,902.08 1041.20,909.45 C1044.36,916.84 1044.36,916.84 1047.47,924.25 C1050.31,931.64 1050.31,931.64 1053.09,939.06 C1055.60,946.44 1055.60,946.44 1058.04,953.84 C1060.20,961.16 1060.20,961.17 1062.30,968.51 C1064.12,975.76 1064.12,975.77 1065.87,983.03 C1067.31,990.17 1067.31,990.17 1068.68,997.32 C1069.77,1004.32 1069.77,1004.32 1070.79,1011.33 C1071.49,1018.16 1071.49,1018.16 1072.12,1024.99 C1072.44,1031.62 1072.44,1031.62 1072.69,1038.25 C1072.63,1044.64 1072.63,1044.64 1072.48,1051.03 C1072.01,1057.16 1072.01,1057.17 1071.46,1063.29 C1070.59,1069.13 1070.59,1069.14 1069.64,1074.97 C1068.37,1080.51 1068.37,1080.51 1067.01,1086.02 C1065.37,1091.24 1065.37,1091.25 1063.65,1096.44 C1061.64,1101.33 1061.64,1101.33 1059.54,1106.19 C1057.19,1110.73 1057.19,1110.73 1054.76,1115.23 C1052.07,1119.40 1052.07,1119.40 1049.30,1123.52 C1046.30,1127.34 1046.29,1127.35 1043.21,1131.10 C1039.90,1134.52 1039.90,1134.53 1036.52,1137.87 C1032.91,1140.89 1032.91,1140.90 1029.24,1143.84 C1025.14,1146.57 1025.13,1146.57 1020.97,1149.21 "/><path d="M743.76,696.51 C748.20,695.01 748.20,695.01 752.67,693.61 C758.08,692.33 758.09,692.33 763.52,691.14 C769.13,690.31 769.14,690.31 774.76,689.58 C780.53,689.22 780.54,689.22 786.31,688.95 C792.25,689.06 792.26,689.06 798.19,689.27 C804.26,689.88 804.26,689.88 810.32,690.58 C816.51,691.67 816.52,691.67 822.69,692.86 C828.98,694.46 828.99,694.46 835.25,696.14 C841.61,698.23 841.61,698.23 847.94,700.40 C854.35,702.95 854.35,702.95 860.73,705.57 C867.15,708.57 867.16,708.57 873.55,711.64 C879.98,715.05 879.99,715.05 886.38,718.53 C892.79,722.36 892.79,722.36 899.16,726.25 C905.53,730.46 905.53,730.46 911.86,734.73 C918.14,739.29 918.15,739.29 924.39,743.91 C930.58,748.83 930.58,748.83 936.73,753.80 C942.81,759.05 942.81,759.05 948.84,764.34 C954.77,769.88 954.77,769.88 960.65,775.46 C966.41,781.29 966.41,781.29 972.13,787.15 C977.69,793.24 977.69,793.25 983.21,799.38 C988.57,805.71 988.57,805.71 993.88,812.08 C999.00,818.63 999.00,818.63 1004.06,825.22 C1008.91,831.98 1008.91,831.98 1013.70,838.78 C1018.27,845.71 1018.27,845.71 1022.78,852.68 C1027.05,859.77 1027.05,859.77 1031.26,866.90 C1035.23,874.10 1035.23,874.10 1039.15,881.34 C1042.81,888.64 1042.81,888.64 1046.41,895.97 C1049.74,903.33 1049.74,903.33 1053.02,910.71 C1056.03,918.10 1056.04,918.10 1058.99,925.51 C1061.67,932.90 1061.67,932.90 1064.28,940.31 C1066.63,947.67 1066.63,947.67 1068.92,955.04 C1070.90,962.34 1070.90,962.34 1072.83,969.65 C1074.47,976.86 1074.47,976.86 1076.05,984.08 C1077.33,991.16 1077.34,991.16 1078.55,998.25 C1079.46,1005.18 1079.46,1005.18 1080.29,1012.11 C1080.83,1018.86 1080.83,1018.86 1081.29,1025.62 C1081.44,1032.15 1081.44,1032.15 1081.50,1038.68 C1081.27,1044.96 1081.27,1044.97 1080.95,1051.24 C1080.32,1057.26 1080.32,1057.27 1079.59,1063.28 C1078.56,1068.99 1078.55,1068.99 1077.43,1074.68 C1076.00,1080.08 1076.01,1080.09 1074.49,1085.46 C1072.68,1090.53 1072.68,1090.53 1070.78,1095.57 C1068.62,1100.29 1068.62,1100.29 1066.37,1104.97 C1063.86,1109.35 1063.86,1109.36 1061.26,1113.68 C1058.42,1117.69 1058.42,1117.69 1055.50,1121.64 C1052.35,1125.26 1052.35,1125.27 1049.12,1128.82 C1045.67,1132.06 1045.66,1132.06 1042.15,1135.22 C1038.42,1138.05 1038.41,1138.05 1034.63,1140.79 C1029.58,1143.98 1029.57,1143.98 1024.47,1147.09 "/><path d="M746.83,698.32 C791.53,724.63 791.54,724.63 836.13,751.12 C844.61,756.75 844.60,756.78 852.98,762.56 C861.32,768.97 861.33,768.98 869.59,775.50 C877.74,782.61 877.74,782.61 885.80,789.82 C893.70,797.58 893.70,797.58 901.51,805.43 C909.10,813.78 909.11,813.78 916.61,822.22 C923.83,831.09 923.83,831.09 930.96,840.05 C937.76,849.37 937.76,849.38 944.46,858.78 C950.79,868.49 950.79,868.49 957.02,878.27 C962.83,888.30 962.83,888.31 968.54,898.40 C973.78,908.66 973.78,908.66 978.92,918.98 C983.57,929.41 983.59,929.41 988.11,939.89 C995.09,958.11 995.09,958.11 1001.94,976.38 C1004.41,984.05 1004.39,984.06 1006.77,991.77 C1008.81,999.38 1008.81,999.39 1010.79,1007.02 C1012.44,1014.55 1012.44,1014.55 1014.02,1022.10 C1015.27,1029.50 1015.27,1029.50 1016.44,1036.91 C1017.29,1044.16 1017.29,1044.17 1018.06,1051.43 C1018.50,1058.48 1018.50,1058.49 1018.87,1065.54 C1018.92,1072.38 1018.92,1072.38 1018.88,1079.22 C1018.52,1085.80 1018.50,1085.80 1018.08,1092.38 C1017.79,1094.83 1017.79,1094.84 1017.46,1097.28 "/><path d="M1055.81,1121.21 C1058.13,1120.84 1058.14,1120.84 1060.45,1120.42 C1064.25,1119.43 1064.25,1119.44 1068.04,1118.39 C1071.67,1117.08 1071.68,1117.07 1075.29,1115.69 C1078.74,1114.05 1078.74,1114.05 1082.16,1112.34 C1085.63,1110.23 1085.64,1110.22 1089.06,1108.04 C1092.59,1105.37 1092.60,1105.37 1096.07,1102.64 C1099.50,1099.39 1099.50,1099.39 1102.86,1096.07 C1105.99,1092.41 1105.99,1092.40 1109.06,1088.68 C1111.88,1084.62 1111.88,1084.62 1114.63,1080.51 C1117.13,1076.07 1117.13,1076.07 1119.55,1071.58 C1121.73,1066.78 1121.73,1066.78 1123.83,1061.94 C1125.67,1056.82 1125.67,1056.82 1127.43,1051.67 C1128.92,1046.22 1128.92,1046.21 1130.33,1040.74 C1131.47,1035.01 1131.47,1035.00 1132.52,1029.26 C1133.29,1023.24 1133.29,1023.24 1133.98,1017.22 C1134.36,1010.97 1134.36,1010.97 1134.67,1004.71 C1134.68,998.23 1134.68,998.22 1134.60,991.74 C1134.22,985.05 1134.23,985.04 1133.77,978.36 C1132.91,971.10 1132.91,971.09 1131.97,963.84 C1130.84,957.18 1130.84,957.18 1129.64,950.53 C1128.04,943.35 1128.04,943.35 1126.37,936.19 C1124.39,928.91 1124.39,928.91 1122.34,921.64 C1119.98,914.29 1119.98,914.29 1117.55,906.95 C1114.84,899.55 1114.84,899.55 1112.07,892.18 C1109.02,884.77 1109.02,884.76 1105.92,877.38 C1102.54,869.99 1102.53,869.99 1099.10,862.62 C1095.41,855.28 1095.41,855.28 1091.67,847.96 C1087.68,840.69 1087.68,840.69 1083.64,833.46 C1079.36,826.29 1079.36,826.29 1075.04,819.15 C1070.50,812.14 1070.50,812.14 1065.92,805.16 C1061.11,798.31 1061.11,798.31 1056.26,791.50 C1051.24,784.84 1051.24,784.84 1046.16,778.23 C1040.90,771.81 1040.90,771.81 1035.59,765.44 C1030.13,759.27 1030.13,759.27 1024.61,753.15 C1018.94,747.28 1018.94,747.28 1013.23,741.46 C1007.39,735.91 1007.39,735.90 1001.50,730.40 C995.50,725.18 995.49,725.18 989.44,720.01 C983.31,715.14 983.30,715.14 977.13,710.32 C970.89,705.80 970.89,705.79 964.61,701.32 C958.28,697.18 958.28,697.18 951.91,693.09 C945.53,689.32 945.53,689.31 939.11,685.60 C932.69,682.22 932.69,682.22 926.24,678.91 C919.82,675.94 919.81,675.93 913.36,673.02 C906.95,670.46 906.95,670.46 900.50,667.98 C894.13,665.84 894.13,665.84 887.73,663.78 C881.43,662.09 881.43,662.08 875.11,660.46 C868.89,659.22 868.89,659.22 862.65,658.06 C856.55,657.27 856.54,657.27 850.43,656.57 C844.47,656.26 844.46,656.26 838.50,656.05 C832.70,656.23 832.69,656.22 826.90,656.50 C821.29,657.17 821.28,657.17 815.69,657.94 C810.28,659.12 810.27,659.12 804.88,660.41 C799.71,662.08 799.70,662.08 794.56,663.85 C789.61,666.00 789.61,666.01 784.70,668.26 C780.01,670.87 780.00,670.87 775.36,673.57 C770.92,676.63 770.91,676.63 766.54,679.77 C762.37,683.26 762.37,683.27 758.27,686.84 C754.70,690.43 754.70,690.43 751.19,694.09 "/><path d="M791.26,1129.34 C791.15,1135.68 791.15,1135.68 790.97,1142.01 C790.54,1147.31 790.53,1147.31 790.05,1152.60 C789.34,1158.15 789.34,1158.15 788.57,1163.68 C787.55,1169.52 787.55,1169.52 786.48,1175.35 C785.15,1181.51 785.15,1181.51 783.77,1187.67 C782.11,1194.22 782.11,1194.22 780.40,1200.77 C778.39,1207.77 778.39,1207.77 776.33,1214.76 C773.98,1222.12 773.98,1222.12 771.58,1229.46 "/><path d="M775.67,673.39 C782.03,669.49 782.03,669.49 788.44,665.65 C793.21,663.16 793.21,663.15 798.02,660.75 C803.04,658.71 803.05,658.70 808.11,656.76 C813.36,655.19 813.36,655.19 818.64,653.72 C824.12,652.65 824.12,652.65 829.61,651.69 C835.30,651.13 835.31,651.13 841.01,650.67 C846.88,650.62 846.88,650.62 852.75,650.66 C858.78,651.09 858.78,651.09 864.81,651.62 C870.97,652.52 870.98,652.53 877.13,653.52 C883.44,654.90 883.44,654.90 889.73,656.37 C896.06,658.18 896.06,658.18 902.37,660.07 C908.78,662.34 908.78,662.35 915.17,664.69 C921.62,667.38 921.62,667.38 928.05,670.14 C934.50,673.24 934.50,673.25 940.92,676.42 C947.36,679.92 947.37,679.92 953.78,683.48 C960.18,687.39 960.18,687.39 966.54,691.35 C972.88,695.62 972.87,695.62 979.17,699.94 C983.90,703.44 983.90,703.44 988.59,706.98 "/><path d="M1118.48,1082.18 C1120.94,1081.80 1120.95,1081.80 1123.40,1081.34 C1128.51,1079.89 1128.53,1079.91 1133.61,1078.37 C1138.43,1076.39 1138.44,1076.39 1143.21,1074.29 C1147.71,1071.76 1147.72,1071.75 1152.16,1069.11 C1156.32,1066.02 1156.33,1066.01 1160.40,1062.82 C1164.17,1059.19 1164.18,1059.18 1167.85,1055.45 C1171.20,1051.25 1171.21,1051.24 1174.46,1046.97 C1177.39,1042.26 1177.39,1042.24 1180.22,1037.47 C1182.48,1032.81 1182.48,1032.80 1184.65,1028.10 C1186.56,1023.06 1186.56,1023.06 1188.38,1017.99 C1189.95,1012.63 1189.95,1012.62 1191.43,1007.23 C1192.62,1001.55 1192.62,1001.54 1193.73,995.84 C1194.57,989.87 1194.57,989.86 1195.34,983.88 C1195.81,977.66 1195.81,977.66 1196.21,971.43 C1196.32,964.96 1196.32,964.96 1196.36,958.50 C1196.12,951.83 1196.12,951.83 1195.80,945.16 C1195.17,938.31 1195.17,938.31 1194.47,931.47 C1193.49,924.47 1193.49,924.47 1192.44,917.48 C1191.07,910.36 1191.07,910.36 1189.63,903.24 C1187.90,896.02 1187.90,896.02 1186.09,888.81 C1183.98,881.51 1183.98,881.51 1181.80,874.23 C1179.30,866.90 1179.29,866.90 1176.73,859.58 C1173.86,852.21 1173.86,852.21 1170.93,844.86 C1167.69,837.51 1167.69,837.51 1164.39,830.18 C1160.81,822.87 1160.81,822.87 1157.17,815.58 C1153.27,808.32 1153.27,808.32 1149.31,801.10 C1145.11,793.93 1145.11,793.93 1140.85,786.79 C1136.35,779.75 1136.35,779.75 1131.80,772.74 C1127.05,765.85 1127.05,765.85 1122.24,758.98 C1117.24,752.26 1117.24,752.25 1112.19,745.56 C1106.97,739.04 1106.97,739.04 1101.69,732.56 C1096.26,726.27 1096.26,726.27 1090.78,720.01 C1085.17,713.98 1085.17,713.98 1079.51,707.99 C1073.73,702.23 1073.73,702.23 1067.90,696.51 C1061.97,691.07 1061.96,691.07 1055.98,685.68 C1049.92,680.58 1049.92,680.57 1043.82,675.52 C1037.66,670.78 1037.66,670.77 1031.46,666.09 C1025.26,661.78 1025.26,661.78 1019.01,657.54 C1012.64,653.57 1012.64,653.56 1006.22,649.66 C999.86,646.15 999.85,646.15 993.45,642.71 C987.06,639.64 987.06,639.63 980.65,636.63 C974.26,633.98 974.25,633.98 967.84,631.41 C961.46,629.20 961.46,629.20 955.07,627.06 C948.75,625.29 948.75,625.28 942.42,623.59 C936.17,622.25 936.17,622.25 929.90,621.00 C923.75,620.11 923.75,620.10 917.58,619.29 C911.55,618.86 911.54,618.86 905.50,618.51 C899.61,618.52 899.60,618.51 893.71,618.61 C887.92,619.09 887.91,619.09 882.13,619.65 C876.64,620.56 876.64,620.56 871.17,621.57 C865.84,622.95 865.83,622.95 860.52,624.42 C856.10,626.02 856.10,626.03 851.71,627.71 C846.19,630.29 846.17,630.27 840.70,632.95 C836.12,635.73 836.12,635.74 831.60,638.62 C827.33,641.88 827.32,641.89 823.12,645.24 C819.16,648.96 819.18,648.98 815.27,652.76 C814.15,654.03 814.15,654.03 813.06,655.33 "/><path d="M836.50,635.56 C840.51,632.99 840.51,632.99 844.54,630.45 C849.19,627.80 849.18,627.77 853.88,625.18 C858.79,622.98 858.80,622.98 863.75,620.87 C868.93,619.13 868.93,619.13 874.14,617.49 C879.55,616.22 879.56,616.22 885.00,615.05 C890.61,614.25 890.62,614.25 896.24,613.55 C902.05,613.21 902.05,613.21 907.86,612.96 C913.82,613.08 913.83,613.08 919.79,613.29 C925.89,613.86 925.90,613.86 931.99,614.51 C938.20,615.53 938.20,615.54 944.40,616.64 C950.71,618.10 950.72,618.10 957.01,619.65 C963.37,621.55 963.38,621.55 969.72,623.53 C976.13,625.88 976.13,625.88 982.51,628.30 C988.94,631.07 988.94,631.06 995.34,633.90 C1001.76,637.11 1001.76,637.11 1008.14,640.38 C1014.54,644.01 1014.54,644.01 1020.90,647.71 C1027.24,651.75 1027.24,651.75 1033.54,655.85 C1039.79,660.31 1039.79,660.32 1046.00,664.84 C1052.16,669.67 1052.17,669.68 1058.28,674.57 C1064.32,679.78 1064.32,679.78 1070.31,685.04 C1076.22,690.58 1076.22,690.58 1082.09,696.16 C1087.84,702.00 1087.84,702.01 1093.54,707.89 C1099.12,714.01 1099.12,714.01 1104.65,720.17 C1110.04,726.53 1110.04,726.53 1115.38,732.94 C1120.54,739.52 1120.54,739.52 1125.66,746.15 C1130.60,752.93 1130.60,752.93 1135.49,759.74 C1140.17,766.68 1140.17,766.68 1144.80,773.65 C1149.22,780.73 1149.22,780.73 1153.59,787.84 C1157.71,795.02 1157.71,795.02 1161.77,802.24 C1165.60,809.50 1165.60,809.50 1169.36,816.79 C1172.86,824.11 1172.86,824.11 1176.29,831.45 C1179.43,838.79 1179.43,838.79 1182.51,846.15 C1185.29,853.49 1185.29,853.49 1188.01,860.85 C1190.41,868.15 1190.41,868.15 1192.74,875.48 C1194.76,882.72 1194.76,882.72 1196.71,889.98 C1198.34,897.15 1198.33,897.16 1199.91,904.34 C1200.48,907.52 1200.46,907.53 1201.02,910.71 C1201.69,914.58 1201.72,914.57 1202.36,918.44 C1203.24,925.36 1203.25,925.36 1204.07,932.29 C1204.59,939.05 1204.59,939.06 1205.04,945.83 C1205.19,952.39 1205.19,952.39 1205.27,958.95 C1205.05,965.31 1205.05,965.31 1204.75,971.67 C1204.18,977.78 1204.19,977.79 1203.54,983.90 C1202.61,989.75 1202.61,989.76 1201.59,995.60 C1200.30,1001.16 1200.30,1001.16 1198.94,1006.70 C1197.31,1011.95 1197.31,1011.96 1195.59,1017.18 C1193.60,1022.09 1193.60,1022.09 1191.52,1026.96 C1189.19,1031.50 1189.20,1031.51 1186.78,1035.99 C1183.96,1040.34 1183.96,1040.35 1181.05,1044.63 C1177.87,1048.49 1177.86,1048.50 1174.59,1052.30 C1171.04,1055.69 1171.03,1055.69 1167.40,1059.00 C1163.49,1061.91 1163.47,1061.90 1159.50,1064.72 C1155.85,1066.95 1155.85,1066.95 1152.16,1069.11 "/><path d="M875.00,617.30 C877.64,614.54 877.64,614.53 880.34,611.83 C884.44,608.29 884.44,608.28 888.60,604.82 C892.94,601.75 892.94,601.74 897.34,598.75 C902.07,596.03 902.07,596.02 906.85,593.38 C911.77,591.12 911.77,591.12 916.74,588.95 C921.90,587.12 921.91,587.12 927.10,585.39 C932.48,584.01 932.49,584.01 937.89,582.73 C943.47,581.80 943.47,581.80 949.07,580.97 C954.82,580.49 954.83,580.48 960.59,580.10 C966.50,580.09 966.50,580.09 972.41,580.18 C978.46,580.63 978.46,580.63 984.50,581.17 C990.66,582.09 990.67,582.10 996.81,583.12 C1003.07,584.52 1003.07,584.52 1009.31,586.02 C1015.63,587.90 1015.64,587.91 1021.93,589.88 C1028.32,592.25 1028.32,592.26 1034.68,594.71 C1041.10,597.55 1041.10,597.55 1047.48,600.47 C1053.91,603.77 1053.91,603.77 1060.30,607.14 C1066.78,610.90 1066.78,610.91 1073.22,614.73 C1079.49,618.79 1079.49,618.79 1085.72,622.90 C1092.02,627.40 1092.02,627.40 1098.28,631.95 C1104.49,636.80 1104.49,636.80 1110.66,641.70 C1116.76,646.88 1116.76,646.88 1122.81,652.10 C1128.79,657.59 1128.79,657.60 1134.72,663.14 C1140.52,668.91 1140.53,668.91 1146.29,674.74 C1151.92,680.78 1151.92,680.78 1157.51,686.86 C1162.93,693.15 1162.93,693.15 1168.31,699.48 C1173.53,706.01 1173.53,706.01 1178.71,712.57 C1183.64,719.25 1183.64,719.25 1188.52,725.97 C1193.20,732.84 1193.20,732.84 1197.83,739.75 C1202.23,746.77 1202.23,746.77 1206.56,753.82 C1210.63,760.98 1210.63,760.98 1214.64,768.17 C1218.39,775.42 1218.39,775.42 1222.08,782.71 C1225.50,790.04 1225.50,790.04 1228.87,797.39 C1231.95,804.76 1231.96,804.76 1234.98,812.15 C1237.73,819.52 1237.73,819.53 1240.42,826.93 C1242.83,834.28 1242.84,834.28 1245.19,841.65 C1247.25,848.95 1247.25,848.95 1249.25,856.27 C1250.96,863.50 1250.96,863.50 1252.60,870.75 C1253.95,877.86 1253.95,877.86 1255.24,884.99 C1256.23,891.97 1256.23,891.97 1257.15,898.96 C1257.77,905.77 1257.78,905.77 1258.33,912.59 C1258.58,919.24 1258.58,919.24 1258.76,925.89 C1258.64,932.24 1258.65,932.24 1258.46,938.58 C1257.96,944.70 1257.96,944.71 1257.38,950.82 C1256.49,956.66 1256.49,956.67 1255.51,962.49 C1254.24,968.01 1254.25,968.02 1252.89,973.52 C1251.22,978.70 1251.22,978.71 1249.46,983.86 C1247.42,988.69 1247.42,988.69 1245.29,993.48 C1242.89,997.94 1242.89,997.95 1240.40,1002.36 C1237.65,1006.45 1237.64,1006.45 1234.81,1010.48 C1231.74,1014.18 1231.73,1014.19 1228.59,1017.82 C1225.20,1021.13 1225.20,1021.14 1221.74,1024.38 C1218.06,1027.28 1218.06,1027.28 1214.32,1030.11 C1210.36,1032.60 1210.36,1032.60 1206.35,1035.01 C1202.14,1037.06 1202.14,1037.07 1197.89,1039.04 C1193.44,1040.66 1193.43,1040.65 1188.96,1042.19 C1185.22,1043.14 1185.22,1043.14 1181.46,1044.01 "/><path d="M897.34,598.75 C903.87,594.67 903.87,594.66 910.46,590.66 C915.25,588.17 915.26,588.17 920.10,585.78 C925.13,583.73 925.14,583.72 930.21,581.76 C935.49,580.15 935.50,580.15 940.80,578.64 C946.28,577.47 946.28,577.47 951.78,576.39 C957.44,575.68 957.45,575.68 963.12,575.06 C968.96,574.80 968.96,574.80 974.81,574.64 C980.78,574.84 980.79,574.84 986.76,575.13 C992.87,575.80 992.87,575.80 998.97,576.56 C1005.19,577.70 1005.20,577.70 1011.41,578.93 C1017.68,580.55 1017.68,580.55 1023.93,582.25 C1030.29,584.34 1030.30,584.34 1036.62,586.51 C1043.04,589.10 1043.04,589.10 1049.43,591.77 C1055.82,594.79 1055.82,594.79 1062.18,597.89 C1068.59,601.38 1068.59,601.38 1074.96,604.93 C1081.35,608.83 1081.35,608.83 1087.70,612.78 C1094.03,617.07 1094.03,617.07 1100.32,621.41 C1106.57,626.08 1106.57,626.08 1112.78,630.80 C1118.94,635.81 1118.94,635.81 1125.06,640.86 C1131.10,646.19 1131.10,646.20 1137.08,651.57 C1142.99,657.21 1142.99,657.21 1148.85,662.88 C1154.57,668.80 1154.57,668.80 1160.25,674.76 C1165.79,680.91 1165.80,680.91 1171.29,687.11 C1176.63,693.51 1176.63,693.51 1181.91,699.94 C1187.00,706.54 1187.00,706.54 1192.04,713.18 C1196.88,719.96 1196.89,719.96 1201.67,726.79 C1206.23,733.74 1206.23,733.74 1210.74,740.72 C1215.00,747.80 1215.00,747.80 1219.20,754.92 C1223.13,762.11 1223.13,762.12 1227.01,769.35 C1230.62,776.63 1230.62,776.63 1234.17,783.95 C1237.44,791.28 1237.44,791.28 1240.65,798.65 C1243.58,806.02 1243.58,806.02 1246.45,813.41 C1249.04,820.78 1249.04,820.78 1251.58,828.16 C1253.82,835.50 1253.82,835.50 1256.00,842.85 C1257.91,850.21 1257.91,850.21 1259.76,857.59 C1261.28,864.67 1261.28,864.68 1262.72,871.77 C1263.91,878.83 1263.91,878.83 1265.03,885.90 C1265.85,892.80 1265.85,892.80 1266.60,899.71 C1267.05,906.44 1267.05,906.44 1267.43,913.18 C1267.52,919.69 1267.52,919.69 1267.53,926.20 C1267.23,932.48 1267.23,932.48 1266.85,938.75 C1266.18,944.76 1266.19,944.76 1265.44,950.76 C1264.39,956.47 1264.39,956.47 1263.24,962.16 C1261.81,967.54 1261.81,967.55 1260.28,972.90 C1258.46,977.93 1258.46,977.94 1256.54,982.93 C1254.33,987.60 1254.33,987.60 1252.03,992.23 C1249.48,996.52 1249.48,996.52 1246.85,1000.76 C1243.94,1004.67 1243.94,1004.68 1240.96,1008.53 C1237.74,1012.05 1237.74,1012.05 1234.45,1015.50 C1230.92,1018.62 1230.92,1018.63 1227.33,1021.67 C1223.52,1024.37 1223.51,1024.36 1219.65,1026.99 C1215.35,1029.60 1215.34,1029.60 1211.01,1032.14 "/><path d="M926.06,745.21 C931.24,748.46 931.24,748.47 936.39,751.77 C941.51,755.33 941.51,755.33 946.61,758.93 C951.63,762.76 951.64,762.77 956.63,766.65 C961.55,770.77 961.55,770.77 966.43,774.94 C971.24,779.32 971.24,779.32 976.01,783.75 C980.66,788.41 980.66,788.41 985.28,793.11 C989.78,797.99 989.78,797.99 994.25,802.91 C998.58,808.00 998.58,808.00 1002.88,813.13 C1007.02,818.41 1007.02,818.41 1011.13,823.73 C1015.15,829.26 1015.15,829.26 1019.13,834.82 C1022.81,840.32 1022.81,840.33 1026.46,845.85 C1030.01,851.55 1030.01,851.55 1033.52,857.27 C1036.82,863.05 1036.82,863.06 1040.09,868.87 C1043.16,874.72 1043.16,874.72 1046.19,880.59 C1049.02,886.48 1049.02,886.48 1051.81,892.40 C1054.37,898.31 1054.37,898.31 1056.88,904.23 C1059.17,910.13 1059.17,910.13 1061.41,916.04 C1063.41,921.91 1063.41,921.91 1065.37,927.79 C1067.08,933.60 1067.08,933.60 1068.74,939.42 C1070.14,945.16 1070.14,945.16 1071.49,950.90 C1072.58,956.52 1072.58,956.52 1073.61,962.15 C1074.37,967.64 1074.37,967.65 1075.07,973.14 C1075.46,978.05 1075.46,978.05 1075.80,982.96 "/><path d="M930.68,839.70 C937.40,847.43 937.41,847.43 944.05,855.23 C949.17,861.85 949.16,861.86 954.20,868.54 C958.96,875.41 958.97,875.41 963.66,882.33 C968.05,889.41 968.05,889.41 972.38,896.52 C976.40,903.75 976.40,903.75 980.35,911.01 C984.03,918.43 984.03,918.44 987.63,925.89 C990.82,933.17 990.80,933.18 993.93,940.49 C995.08,943.50 995.06,943.51 996.20,946.54 C997.84,950.91 997.87,950.90 999.48,955.29 C1001.86,962.64 1001.87,962.64 1004.18,970.01 C1006.12,977.26 1006.12,977.27 1007.99,984.55 C1009.49,991.65 1009.49,991.66 1010.91,998.78 C1011.93,1005.71 1011.92,1005.72 1012.88,1012.67 C1013.15,1015.84 1013.15,1015.84 1013.36,1019.02 "/><path d="M937.35,579.66 C941.63,575.33 941.64,575.33 946.00,571.08 C950.18,567.62 950.19,567.62 954.43,564.24 C958.88,561.20 958.89,561.19 963.40,558.24 C968.11,555.62 968.12,555.62 972.89,553.10 C977.84,550.93 977.85,550.92 982.84,548.84 C988.04,547.13 988.05,547.12 993.28,545.50 C998.68,544.26 998.69,544.26 1004.12,543.12 C1009.73,542.36 1009.74,542.35 1015.36,541.69 C1021.16,541.43 1021.16,541.43 1026.97,541.27 C1032.93,541.52 1032.93,541.53 1038.89,541.88 C1045.00,542.62 1045.01,542.62 1051.11,543.46 C1057.34,544.70 1057.34,544.71 1063.55,546.04 C1069.88,547.75 1069.88,547.75 1076.19,549.54 C1082.66,551.74 1082.66,551.74 1089.11,554.02 C1095.46,556.58 1095.47,556.58 1101.79,559.21 C1108.25,562.24 1108.25,562.24 1114.68,565.33 C1121.12,568.76 1121.12,568.76 1127.53,572.25 C1133.96,576.08 1133.96,576.08 1140.35,579.96 C1146.70,584.16 1146.70,584.16 1153.03,588.42 C1159.31,592.97 1159.31,592.97 1165.55,597.57 C1171.73,602.48 1171.72,602.49 1177.86,607.45 C1183.90,612.67 1183.90,612.67 1189.91,617.95 C1195.80,623.49 1195.81,623.49 1201.66,629.08 C1207.36,634.92 1207.36,634.92 1213.02,640.80 C1218.53,646.92 1218.53,646.92 1223.99,653.08 C1229.26,659.46 1229.26,659.46 1234.49,665.89 C1239.53,672.51 1239.53,672.51 1244.52,679.17 C1249.30,685.99 1249.30,685.99 1254.03,692.85 C1258.55,699.84 1258.55,699.84 1263.02,706.87 C1267.27,714.01 1267.27,714.01 1271.46,721.18 C1275.41,728.44 1275.42,728.44 1279.32,735.72 C1282.97,743.05 1282.98,743.05 1286.58,750.41 C1289.92,757.79 1289.92,757.79 1293.21,765.20 C1296.23,772.60 1296.23,772.60 1299.20,780.02 C1301.89,787.42 1301.89,787.42 1304.52,794.83 C1306.87,802.17 1306.87,802.18 1309.16,809.54 C1311.15,816.81 1311.15,816.81 1313.08,824.10 C1314.70,831.27 1314.69,831.27 1316.24,838.46 C1317.49,845.50 1317.50,845.50 1318.68,852.55 C1319.53,859.42 1319.53,859.42 1320.30,866.30 C1320.75,872.98 1320.76,872.98 1321.13,879.66 C1321.17,886.11 1321.18,886.11 1321.14,892.56 C1320.78,898.78 1320.78,898.78 1320.34,904.99 C1319.59,910.93 1319.59,910.94 1318.75,916.87 C1317.62,922.54 1317.62,922.54 1316.40,928.20 C1314.92,933.57 1314.92,933.58 1313.35,938.92 C1311.50,943.99 1311.49,943.99 1309.56,949.02 C1307.37,953.75 1307.37,953.76 1305.10,958.45 C1302.59,962.83 1302.59,962.84 1299.99,967.18 C1297.15,971.20 1297.15,971.21 1294.23,975.17 C1291.09,978.80 1291.09,978.81 1287.87,982.37 C1284.43,985.61 1284.42,985.61 1280.91,988.78 C1277.20,991.60 1277.19,991.60 1273.42,994.34 C1269.42,996.72 1269.41,996.72 1265.36,999.02 C1261.12,1000.94 1261.10,1000.93 1256.82,1002.77 C1253.74,1003.83 1253.74,1003.83 1250.64,1004.81 C1246.50,1005.79 1246.50,1005.79 1242.35,1006.69 "/><path d="M965.78,556.95 C971.12,553.63 971.12,553.63 976.52,550.40 C981.35,547.99 981.36,547.99 986.24,545.66 C991.32,543.70 991.32,543.69 996.44,541.82 C1001.73,540.32 1001.74,540.32 1007.05,538.91 C1012.56,537.88 1012.57,537.88 1018.10,536.94 C1023.79,536.40 1023.79,536.40 1029.49,535.95 C1035.36,535.91 1035.37,535.90 1041.24,535.96 C1047.27,536.43 1047.27,536.43 1053.29,537.00 C1059.45,537.96 1059.46,537.97 1065.61,539.02 C1071.88,540.47 1071.89,540.47 1078.14,542.00 C1084.49,543.92 1084.49,543.92 1090.82,545.91 C1097.23,548.28 1097.24,548.28 1103.62,550.72 C1110.06,553.52 1110.06,553.52 1116.47,556.39 C1122.93,559.61 1122.93,559.61 1129.36,562.90 C1135.79,566.52 1135.80,566.52 1142.20,570.21 C1148.59,574.21 1148.59,574.21 1154.95,578.27 C1161.29,582.64 1161.28,582.65 1167.59,587.07 C1170.80,589.50 1170.76,589.55 1173.98,591.96 C1177.14,593.90 1177.18,593.84 1180.35,595.76 C1185.48,599.19 1185.49,599.19 1190.58,602.66 C1195.64,606.39 1195.64,606.39 1200.66,610.18 C1205.60,614.21 1205.60,614.22 1210.51,618.30 C1215.36,622.62 1215.36,622.62 1220.17,626.98 C1224.88,631.57 1224.88,631.58 1229.55,636.20 C1234.12,641.02 1234.12,641.02 1238.66,645.87 C1243.07,650.90 1243.07,650.91 1247.45,655.97 C1251.70,661.19 1251.70,661.19 1255.92,666.43 C1259.99,671.82 1259.99,671.82 1264.02,677.24 C1267.89,682.76 1267.89,682.77 1271.72,688.32 C1275.38,693.97 1275.39,693.97 1279.02,699.63 C1282.45,705.37 1282.44,705.37 1285.83,711.13 C1289.03,716.94 1289.04,716.94 1292.20,722.77 C1295.14,728.63 1295.14,728.63 1298.04,734.51 C1300.73,740.40 1300.73,740.40 1303.38,746.30 C1305.78,752.18 1305.78,752.18 1308.14,758.08 C1310.25,763.94 1310.25,763.94 1312.31,769.82 C1314.12,775.63 1314.12,775.64 1315.88,781.46 C1317.36,787.21 1317.36,787.21 1318.79,792.97 C1319.98,798.71 1319.98,798.71 1321.11,804.46 C1321.95,809.93 1321.95,809.93 1322.73,815.40 C1323.31,821.33 1323.21,821.34 1323.82,827.26 C1324.97,833.37 1325.06,833.35 1326.24,839.45 C1327.31,846.43 1327.32,846.43 1328.32,853.41 C1329.01,860.20 1329.01,860.21 1329.61,867.00 C1329.89,873.68 1329.89,873.68 1330.08,880.36 C1329.96,886.62 1329.97,886.62 1329.76,892.88 C1329.23,898.98 1329.23,898.98 1328.61,905.07 C1327.69,910.89 1327.69,910.89 1326.69,916.70 C1325.39,922.24 1325.39,922.24 1324.01,927.76 C1322.35,932.98 1322.35,932.99 1320.61,938.19 C1318.61,943.09 1318.60,943.09 1316.51,947.96 C1314.17,952.53 1314.17,952.53 1311.74,957.06 C1309.07,961.27 1309.07,961.28 1306.32,965.44 C1303.33,969.28 1303.32,969.28 1300.26,973.06 C1296.98,976.51 1296.97,976.51 1293.62,979.89 C1290.05,982.93 1290.05,982.94 1286.41,985.90 C1282.14,988.74 1282.13,988.74 1277.81,991.49 "/><path d="M1087.45,1109.10 C1090.71,1107.13 1090.71,1107.13 1093.95,1105.13 C1097.78,1102.50 1097.80,1102.52 1101.59,1099.83 C1105.15,1096.79 1105.15,1096.78 1108.65,1093.67 C1111.93,1090.19 1111.93,1090.18 1115.14,1086.64 C1118.11,1082.76 1118.11,1082.75 1121.00,1078.82 C1123.66,1074.56 1123.66,1074.55 1126.25,1070.24 C1128.58,1065.61 1128.58,1065.60 1130.84,1060.94 C1132.84,1055.96 1132.84,1055.96 1134.76,1050.95 C1136.42,1045.66 1136.42,1045.66 1137.99,1040.34 C1139.29,1034.75 1139.29,1034.74 1140.50,1029.13 C1141.45,1023.25 1141.45,1023.24 1142.32,1017.35 C1142.88,1011.21 1142.88,1011.21 1143.36,1005.06 C1143.54,998.68 1143.54,998.68 1143.65,992.29 C1143.43,985.69 1143.43,985.69 1143.14,979.09 C1142.53,972.29 1142.53,972.29 1141.84,965.49 C1140.81,958.51 1140.80,958.51 1139.69,951.54 C1138.26,944.42 1138.26,944.42 1136.76,937.31 C1134.95,930.08 1134.95,930.08 1133.08,922.86 C1130.88,915.52 1130.88,915.52 1128.62,908.20 C1126.07,900.81 1126.07,900.81 1123.47,893.44 C1120.57,886.03 1120.57,886.03 1117.62,878.64 C1114.39,871.23 1114.39,871.23 1111.10,863.84 C1107.56,856.47 1107.56,856.47 1103.96,849.12 C1100.11,841.82 1100.10,841.81 1096.20,834.54 C1092.07,827.33 1092.07,827.33 1087.89,820.15 C1083.48,813.07 1083.47,813.07 1079.01,806.02 C1074.34,799.09 1074.34,799.08 1069.62,792.19 C1064.69,785.45 1064.69,785.45 1059.71,778.74 C1054.60,772.26 1054.60,772.26 1049.43,765.82 C1044.02,759.50 1044.02,759.50 1038.55,753.23 C1032.97,747.24 1032.97,747.24 1027.34,741.29 C1021.58,735.59 1021.58,735.59 1015.76,729.94 C1009.82,724.58 1009.82,724.58 1003.83,719.27 C996.24,713.09 996.24,713.09 988.59,706.98 "/><path d="M988.59,706.98 C990.38,707.99 990.38,707.99 992.14,709.03 C997.27,712.45 997.27,712.45 1002.37,715.91 C1007.42,719.64 1007.42,719.64 1012.44,723.43 C1017.42,727.45 1017.42,727.45 1022.36,731.52 C1027.22,735.83 1027.22,735.83 1032.05,740.18 C1036.80,744.74 1036.80,744.74 1041.52,749.33 C1046.14,754.12 1046.14,754.12 1050.71,758.94 C1055.18,763.93 1055.18,763.93 1059.61,768.95 C1063.92,774.14 1063.92,774.14 1068.19,779.35 C1072.31,784.70 1072.31,784.70 1076.39,790.07 C1080.32,795.56 1080.33,795.56 1084.22,801.07 C1087.93,806.68 1087.93,806.68 1091.60,812.31 C1095.09,818.01 1095.09,818.01 1098.54,823.74 C1101.78,829.52 1101.78,829.52 1104.98,835.32 C1107.97,841.15 1107.97,841.15 1110.91,847.00 C1113.63,852.86 1113.63,852.86 1116.30,858.75 C1118.72,864.61 1118.72,864.61 1121.09,870.50 C1123.21,876.35 1123.21,876.35 1125.28,882.22 C1127.09,888.04 1127.09,888.05 1128.86,893.89 C1130.37,899.65 1130.37,899.65 1131.83,905.43 C1133.04,911.12 1133.04,911.12 1134.19,916.82 C1135.10,922.40 1135.11,922.40 1135.97,928.00 C1136.60,933.64 1136.60,933.64 1137.17,939.29 "/><path d="M1026.71,1234.22 C1020.50,1141.82 1020.50,1141.82 1014.23,1049.43 C1013.50,1040.88 1013.52,1040.88 1012.71,1032.34 C1011.46,1023.59 1011.46,1023.58 1010.11,1014.84 C1008.33,1005.94 1008.33,1005.93 1006.45,997.05 C1004.14,988.03 1004.13,988.03 1001.75,979.04 C999.43,971.43 999.43,971.43 997.05,963.84 "/><path d="M999.63,540.95 C1001.37,538.95 1001.37,538.94 1003.15,536.99 C1007.11,533.25 1007.10,533.24 1011.12,529.57 C1015.36,526.24 1015.36,526.23 1019.66,522.99 C1024.18,520.13 1024.19,520.12 1028.76,517.35 C1033.57,514.95 1033.58,514.95 1038.43,512.65 C1043.51,510.75 1043.51,510.75 1048.62,508.95 C1053.94,507.53 1053.95,507.53 1059.30,506.21 C1064.84,505.27 1064.84,505.28 1070.40,504.44 C1076.15,503.98 1076.16,503.99 1081.92,503.63 C1087.84,503.64 1087.84,503.64 1093.76,503.75 C1099.82,504.22 1099.83,504.23 1105.89,504.79 C1112.08,505.72 1112.08,505.72 1118.27,506.74 C1124.55,508.12 1124.56,508.12 1130.82,509.58 C1137.20,511.40 1137.20,511.41 1143.55,513.31 C1149.96,515.55 1149.96,515.56 1156.34,517.88 C1162.79,520.56 1162.79,520.56 1169.21,523.31 C1175.65,526.40 1175.65,526.40 1182.06,529.56 C1188.47,533.06 1188.48,533.07 1194.85,536.64 C1201.23,540.54 1201.23,540.54 1207.56,544.51 C1213.86,548.81 1213.86,548.82 1220.11,553.18 C1226.31,557.87 1226.32,557.88 1232.47,562.63 C1238.55,567.69 1238.55,567.69 1244.58,572.81 C1250.52,578.23 1250.52,578.23 1256.41,583.70 C1262.20,589.44 1262.20,589.44 1267.94,595.22 C1273.54,601.26 1273.54,601.26 1279.10,607.34 C1284.52,613.64 1284.52,613.64 1289.89,619.98 C1295.16,626.60 1295.16,626.60 1300.38,633.27 C1305.29,639.91 1305.30,639.91 1310.16,646.59 C1314.89,653.50 1314.89,653.51 1319.58,660.45 C1324.06,667.51 1324.06,667.51 1328.49,674.60 C1332.69,681.78 1332.69,681.78 1336.84,688.99 C1340.74,696.26 1340.74,696.26 1344.58,703.56 C1348.17,710.88 1348.17,710.88 1351.71,718.22 C1354.97,725.58 1354.97,725.58 1358.17,732.97 C1361.09,740.32 1361.09,740.32 1363.94,747.70 C1366.49,755.02 1366.50,755.03 1368.99,762.37 C1371.15,769.64 1371.15,769.64 1373.25,776.93 C1375.02,784.11 1375.02,784.12 1376.73,791.32 C1378.11,798.39 1378.11,798.40 1379.41,805.49 C1380.41,812.43 1380.41,812.43 1381.33,819.38 C1381.94,826.16 1381.94,826.16 1382.47,832.95 C1382.70,839.54 1382.71,839.55 1382.87,846.15 C1382.73,852.54 1382.74,852.54 1382.53,858.93 C1382.02,865.09 1382.02,865.09 1381.43,871.25 C1380.57,877.16 1380.57,877.16 1379.63,883.06 C1378.41,888.69 1378.41,888.70 1377.12,894.31 C1375.55,899.64 1375.56,899.65 1373.91,904.95 C1371.99,909.95 1371.99,909.96 1369.99,914.93 C1367.75,919.58 1367.75,919.59 1365.43,924.20 C1362.85,928.48 1362.85,928.48 1360.20,932.71 C1357.28,936.60 1357.28,936.60 1354.29,940.43 C1351.14,943.82 1351.14,943.82 1347.92,947.14 C1344.46,950.11 1344.45,950.12 1340.93,953.01 C1337.18,955.53 1337.18,955.53 1333.37,957.97 C1329.34,960.05 1329.33,960.05 1325.24,962.03 C1320.95,963.66 1320.95,963.66 1316.62,965.20 C1312.10,966.39 1312.09,966.36 1307.55,967.48 C1305.94,967.75 1305.93,967.75 1304.31,967.97 "/><path d="M1032.64,514.90 C1037.20,512.29 1037.21,512.28 1041.82,509.76 C1046.83,507.52 1046.83,507.51 1051.88,505.37 C1057.06,503.67 1057.07,503.67 1062.29,502.07 C1067.71,500.87 1067.71,500.88 1073.15,499.78 C1078.79,499.06 1078.80,499.05 1084.45,498.43 C1090.27,498.19 1090.27,498.20 1096.10,498.06 C1102.09,498.28 1102.09,498.29 1108.08,498.60 C1114.20,499.29 1114.20,499.30 1120.32,500.08 C1126.56,501.22 1126.56,501.22 1132.79,502.45 C1139.12,504.04 1139.12,504.04 1145.44,505.70 C1151.83,507.74 1151.83,507.74 1158.19,509.85 C1164.66,512.32 1164.66,512.32 1171.10,514.85 C1177.51,517.72 1177.51,517.72 1183.89,520.66 C1190.34,523.94 1190.34,523.94 1196.75,527.29 C1203.15,530.98 1203.15,530.98 1209.51,534.74 C1215.86,538.82 1215.86,538.83 1222.17,542.97 C1228.43,547.44 1228.42,547.46 1234.65,551.97 C1237.11,553.91 1237.11,553.91 1239.54,555.87 "/><path d="M1199.30,901.61 C1198.96,897.98 1198.96,897.98 1198.58,894.35 C1197.77,888.76 1197.77,888.76 1196.91,883.18 C1195.82,877.48 1195.82,877.48 1194.67,871.78 C1193.28,865.99 1193.28,865.99 1191.85,860.22 C1190.18,854.36 1190.18,854.36 1188.46,848.51 C1186.52,842.62 1186.51,842.62 1184.52,836.74 C1182.30,830.83 1182.30,830.82 1180.03,824.93 C1177.53,819.01 1177.53,819.01 1174.97,813.12 C1172.20,807.24 1172.20,807.24 1169.38,801.39 C1166.36,795.56 1166.36,795.56 1163.29,789.76 C1159.99,784.01 1159.99,784.01 1156.65,778.29 C1153.11,772.64 1153.11,772.64 1149.52,767.02 C1145.74,761.50 1145.74,761.50 1141.91,756.01 C1137.90,750.62 1137.90,750.62 1133.86,745.27 C1129.69,740.09 1129.69,740.08 1125.48,734.94 C1121.04,729.84 1121.04,729.84 1116.57,724.77 C1112.02,719.91 1112.02,719.91 1107.43,715.09 C1102.73,710.44 1102.73,710.44 1098.00,705.83 C1093.17,701.40 1093.17,701.40 1088.31,697.01 C1083.37,692.85 1083.37,692.85 1078.40,688.73 C1073.38,684.82 1073.39,684.80 1068.32,680.94 C1061.05,675.91 1061.04,675.91 1053.72,670.95 "/><path d="M1061.19,502.42 C1064.52,498.98 1064.53,498.98 1067.93,495.61 C1072.05,492.14 1072.06,492.13 1076.25,488.74 C1080.68,485.71 1080.69,485.71 1085.18,482.77 C1089.89,480.18 1089.90,480.18 1094.66,477.68 C1099.63,475.53 1099.64,475.52 1104.65,473.46 C1109.87,471.77 1109.87,471.77 1115.12,470.16 C1120.56,468.91 1120.56,468.91 1126.02,467.75 C1131.65,466.95 1131.66,466.95 1137.30,466.25 C1143.12,465.90 1143.12,465.90 1148.94,465.64 C1154.90,465.74 1154.91,465.74 1160.87,465.93 C1166.95,466.49 1166.96,466.49 1173.04,467.14 C1179.24,468.15 1179.24,468.15 1185.43,469.25 C1191.71,470.73 1191.71,470.73 1197.97,472.29 C1204.32,474.22 1204.33,474.22 1210.65,476.23 C1217.04,478.62 1217.04,478.62 1223.39,481.10 C1229.80,483.95 1229.80,483.95 1236.18,486.87 C1242.59,490.18 1242.59,490.19 1248.97,493.57 C1255.34,497.33 1255.34,497.34 1261.67,501.16 C1268.01,505.32 1268.01,505.33 1274.30,509.55 C1280.56,514.11 1280.56,514.11 1286.77,518.73 C1292.94,523.64 1292.95,523.64 1299.07,528.61 C1305.13,533.87 1305.13,533.88 1311.14,539.19 C1317.07,544.76 1317.07,544.76 1322.95,550.38 C1328.72,556.24 1328.72,556.24 1334.44,562.14 C1340.02,568.26 1340.02,568.26 1345.56,574.42 C1350.95,580.78 1350.95,580.78 1356.30,587.17 C1361.46,593.75 1361.46,593.75 1366.57,600.37 C1371.52,607.16 1371.52,607.16 1376.43,613.98 C1381.07,620.86 1381.07,620.86 1385.65,627.78 C1390.02,634.83 1390.02,634.83 1394.33,641.91 C1398.40,649.08 1398.40,649.08 1402.42,656.28 C1406.15,663.53 1406.15,663.53 1409.83,670.81 C1413.22,678.12 1413.22,678.12 1416.55,685.46 C1419.58,692.80 1419.58,692.81 1422.56,700.18 C1425.24,707.52 1425.24,707.52 1427.86,714.88 C1430.19,722.21 1430.19,722.21 1432.46,729.56 C1434.42,736.83 1434.42,736.83 1436.32,744.12 C1437.94,751.30 1437.94,751.30 1439.49,758.50 C1440.73,765.58 1440.73,765.58 1441.90,772.68 C1442.80,779.61 1442.80,779.61 1443.63,786.56 C1444.15,793.33 1444.15,793.33 1444.60,800.12 C1444.76,806.69 1444.77,806.69 1444.86,813.27 C1444.65,819.62 1444.66,819.62 1444.38,825.97 C1443.81,832.07 1443.81,832.08 1443.16,838.17 C1442.22,843.99 1442.22,843.99 1441.20,849.79 C1439.89,855.31 1439.89,855.31 1438.49,860.80 C1436.82,865.98 1436.82,865.98 1435.05,871.13 C1433.00,875.94 1433.00,875.95 1430.85,880.72 C1428.43,885.13 1428.42,885.14 1425.91,889.50 C1423.14,893.53 1423.13,893.54 1420.27,897.51 C1417.15,901.13 1417.15,901.14 1413.95,904.69 C1410.44,907.95 1410.43,907.95 1406.84,911.14 C1403.18,913.87 1403.17,913.88 1399.45,916.54 C1395.44,918.90 1395.43,918.91 1391.37,921.19 C1387.09,923.13 1387.08,923.13 1382.76,924.97 C1378.24,926.47 1378.23,926.47 1373.70,927.89 C1370.61,928.58 1370.60,928.58 1367.50,929.21 "/><path d="M1087.45,481.55 C1092.81,478.13 1092.82,478.12 1098.25,474.81 C1103.07,472.42 1103.08,472.42 1107.95,470.13 C1113.04,468.20 1113.05,468.20 1118.18,466.36 C1123.50,464.87 1123.51,464.87 1128.86,463.47 C1134.39,462.44 1134.40,462.44 1139.94,461.50 C1145.66,460.91 1145.66,460.90 1151.39,460.41 C1157.28,460.28 1157.28,460.28 1163.17,460.24 C1169.20,460.56 1169.20,460.56 1175.23,460.96 C1181.37,461.74 1181.37,461.74 1187.50,462.60 C1193.75,463.82 1193.75,463.82 1199.98,465.13 C1206.31,466.82 1206.31,466.82 1212.61,468.58 C1218.98,470.72 1218.98,470.73 1225.33,472.95 C1231.73,475.53 1231.74,475.53 1238.11,478.20 C1244.51,481.25 1244.51,481.25 1250.88,484.37 C1257.28,487.88 1257.28,487.88 1263.65,491.45 C1270.00,495.39 1270.00,495.40 1276.31,499.39 C1282.61,503.73 1282.61,503.73 1288.87,508.13 C1295.09,512.85 1295.09,512.85 1301.28,517.63 C1307.38,522.71 1307.38,522.72 1313.45,527.84 C1318.34,532.25 1318.34,532.25 1323.19,536.70 C1330.14,543.42 1330.15,543.41 1337.05,550.18 C1342.74,556.16 1342.74,556.16 1348.38,562.19 C1353.87,568.43 1353.87,568.43 1359.31,574.71 C1364.60,581.17 1364.60,581.18 1369.85,587.68 C1374.91,594.34 1374.91,594.34 1379.92,601.05 C1384.73,607.89 1384.73,607.89 1389.48,614.77 C1394.02,621.75 1394.02,621.75 1398.50,628.77 C1402.74,635.88 1402.74,635.88 1406.92,643.02 C1410.85,650.23 1410.85,650.23 1414.72,657.47 C1418.32,664.75 1418.32,664.75 1421.85,672.06 C1425.09,679.38 1425.09,679.38 1428.27,686.73 C1431.15,694.08 1431.16,694.08 1433.98,701.45 C1436.50,708.78 1436.50,708.79 1438.95,716.14 C1441.11,723.44 1441.11,723.44 1443.21,730.76 C1445.01,737.99 1445.01,737.99 1446.74,745.23 C1448.18,752.37 1448.19,752.37 1449.57,759.51 C1450.65,766.53 1450.65,766.53 1451.66,773.55 C1452.37,780.42 1452.37,780.42 1453.01,787.29 C1453.36,793.97 1453.36,793.97 1453.65,800.66 C1453.63,807.13 1453.63,807.13 1453.54,813.61 C1453.17,819.85 1453.17,819.85 1452.72,826.09 C1451.98,832.07 1451.98,832.08 1451.15,838.05 C1450.05,843.73 1450.05,843.74 1448.86,849.40 C1447.39,854.77 1447.39,854.77 1445.83,860.11 C1443.98,865.14 1443.99,865.15 1442.05,870.14 C1439.71,875.02 1439.70,875.02 1437.26,879.86 C1434.79,883.92 1434.79,883.93 1432.23,887.95 C1429.31,891.77 1429.30,891.78 1426.30,895.54 C1423.07,898.94 1423.06,898.95 1419.75,902.29 C1416.18,905.30 1416.18,905.32 1412.54,908.24 C1407.99,911.20 1407.98,911.21 1403.36,914.06 "/><path d="M1262.22,869.35 C1261.92,864.96 1261.92,864.96 1261.57,860.57 C1260.88,855.08 1260.88,855.07 1260.13,849.58 C1259.13,843.94 1259.13,843.94 1258.07,838.31 C1256.76,832.57 1256.75,832.57 1255.39,826.85 C1253.79,821.01 1253.79,821.01 1252.13,815.19 C1250.22,809.30 1250.22,809.30 1248.26,803.42 C1246.09,797.49 1246.10,797.49 1243.88,791.58 C1241.43,785.65 1241.43,785.65 1238.93,779.73 C1236.22,773.81 1236.21,773.81 1233.46,767.90 C1230.50,762.01 1230.50,762.01 1227.51,756.15 C1224.30,750.33 1224.30,750.32 1221.05,744.52 C1217.62,738.79 1217.62,738.79 1214.15,733.09 C1210.49,727.47 1210.49,727.47 1206.79,721.87 C1202.93,716.39 1202.93,716.39 1199.02,710.93 C1194.95,705.62 1194.95,705.62 1190.83,700.34 C1186.56,695.20 1186.56,695.20 1182.25,690.10 C1177.80,685.18 1177.80,685.18 1173.32,680.29 C1168.69,675.59 1168.69,675.59 1164.03,670.93 C1159.27,666.46 1159.27,666.46 1154.47,662.03 C1149.58,657.83 1149.58,657.83 1144.65,653.66 C1139.66,649.71 1139.66,649.71 1134.63,645.80 C1129.54,642.13 1129.54,642.13 1124.43,638.50 C1119.08,635.00 1119.08,635.00 1113.70,631.55 "/><path d="M1429.35,891.63 C1430.80,891.40 1430.80,891.39 1432.23,891.11 C1436.80,889.79 1436.82,889.81 1441.36,888.42 C1445.72,886.66 1445.73,886.66 1450.04,884.80 C1455.09,882.02 1455.09,882.00 1460.08,879.12 C1463.01,877.07 1463.01,877.06 1465.90,874.95 C1469.47,871.88 1469.49,871.89 1473.01,868.76 C1476.31,865.30 1476.31,865.29 1479.54,861.76 C1482.54,857.91 1482.54,857.91 1485.46,854.00 C1488.14,849.77 1488.14,849.77 1490.74,845.49 C1493.09,840.90 1493.10,840.89 1495.36,836.26 C1497.36,831.32 1497.36,831.31 1499.28,826.33 C1500.92,821.06 1500.92,821.06 1502.48,815.76 C1503.73,810.16 1503.73,810.16 1504.89,804.54 C1505.76,798.64 1505.76,798.64 1506.55,792.73 C1507.00,786.54 1506.99,786.53 1507.36,780.34 C1507.41,773.89 1507.40,773.89 1507.37,767.44 C1507.03,760.75 1507.03,760.75 1506.62,754.07 C1505.88,747.20 1505.88,747.20 1505.07,740.33 C1503.97,733.28 1503.97,733.28 1502.79,726.24 C1501.31,719.05 1501.30,719.05 1499.75,711.88 C1497.92,704.59 1497.92,704.59 1496.02,697.32 C1493.83,689.96 1493.83,689.96 1491.57,682.62 C1489.03,675.23 1489.03,675.23 1486.43,667.86 C1483.56,660.42 1483.56,660.42 1480.63,653.00 C1477.44,645.60 1477.43,645.60 1474.18,638.23 C1470.67,630.87 1470.67,630.87 1467.10,623.54 C1463.27,616.26 1463.27,616.26 1459.38,609.02 C1455.26,601.85 1455.27,601.84 1451.09,594.70 C1446.67,587.68 1446.67,587.68 1442.20,580.69 C1437.49,573.84 1437.49,573.84 1432.73,567.02 C1427.76,560.36 1427.76,560.36 1422.74,553.74 C1417.51,547.30 1417.51,547.30 1412.23,540.90 C1406.78,534.70 1406.78,534.70 1401.28,528.54 C1395.63,522.61 1395.62,522.61 1389.92,516.72 C1384.09,511.06 1384.09,511.05 1378.21,505.44 C1372.22,500.08 1372.22,500.08 1366.19,494.77 C1360.06,489.72 1360.06,489.72 1353.89,484.72 C1347.67,480.00 1347.67,480.00 1341.40,475.34 C1335.09,470.98 1335.09,470.97 1328.75,466.67 C1322.38,462.68 1322.38,462.68 1315.98,458.75 C1309.58,455.16 1309.58,455.16 1303.15,451.63 C1296.73,448.45 1296.73,448.44 1290.29,445.32 C1283.94,442.58 1283.94,442.58 1277.57,439.91 C1271.17,437.58 1271.16,437.58 1264.74,435.33 C1258.44,433.48 1258.44,433.48 1252.12,431.71 C1245.85,430.35 1245.84,430.35 1239.54,429.08 C1233.52,428.23 1233.52,428.22 1227.49,427.46 C1221.51,427.10 1221.51,427.10 1215.53,426.84 C1209.70,426.96 1209.70,426.96 1203.87,427.18 C1198.21,427.78 1198.20,427.78 1192.55,428.48 C1187.07,429.55 1187.07,429.55 1181.61,430.72 C1176.32,432.23 1176.32,432.23 1171.06,433.85 C1165.99,435.82 1165.98,435.83 1160.95,437.89 C1156.11,440.30 1156.11,440.31 1151.31,442.80 C1146.72,445.65 1146.72,445.65 1142.18,448.58 C1137.86,451.84 1137.85,451.84 1133.59,455.18 C1129.50,458.92 1129.52,458.95 1125.48,462.75 C1124.49,463.82 1124.48,463.82 1123.52,464.91 "/><path d="M1155.10,440.40 C1159.75,437.67 1159.76,437.67 1164.47,435.03 C1169.38,432.74 1169.39,432.74 1174.34,430.54 C1179.48,428.68 1179.49,428.68 1184.66,426.91 C1190.03,425.51 1190.03,425.50 1195.42,424.19 C1200.98,423.25 1200.98,423.25 1206.55,422.39 C1212.29,421.91 1212.30,421.91 1218.04,421.52 C1223.93,421.51 1223.94,421.51 1229.82,421.61 C1235.87,422.09 1235.87,422.09 1241.91,422.66 C1248.06,423.64 1248.06,423.64 1254.20,424.71 C1260.47,426.19 1260.47,426.20 1266.72,427.77 C1273.07,429.73 1273.07,429.73 1279.39,431.77 C1285.79,434.21 1285.79,434.22 1292.16,436.73 C1298.59,439.61 1298.59,439.61 1305.00,442.57 C1311.43,445.88 1311.43,445.89 1317.83,449.27 C1324.33,453.04 1324.33,453.04 1330.80,456.87 C1337.09,460.93 1337.09,460.93 1343.35,465.05 C1349.66,469.52 1349.66,469.53 1355.94,474.05 C1358.59,476.10 1358.59,476.10 1361.22,478.18 "/><path d="M1173.56,591.64 C1176.80,594.09 1176.80,594.09 1180.01,596.58 C1186.13,601.64 1186.14,601.63 1192.23,606.73 C1198.21,612.11 1198.21,612.12 1204.14,617.54 C1209.96,623.22 1209.96,623.22 1215.73,628.94 C1221.35,634.91 1221.35,634.91 1226.93,640.93 C1232.35,647.16 1232.35,647.16 1237.72,653.43 C1242.90,659.92 1242.90,659.92 1248.03,666.45 C1252.95,673.15 1252.95,673.16 1257.82,679.90 C1262.49,686.80 1262.49,686.80 1267.10,693.73 C1271.49,700.79 1271.49,700.79 1275.82,707.88 C1279.93,715.07 1279.93,715.08 1283.99,722.30 C1287.80,729.59 1287.80,729.59 1291.55,736.91 C1295.00,744.11 1295.00,744.11 1298.38,751.34 C1301.67,758.92 1301.67,758.92 1304.89,766.52 C1307.75,773.89 1307.74,773.89 1310.54,781.29 C1313.09,788.75 1313.09,788.75 1315.59,796.23 C1317.74,803.47 1317.75,803.47 1319.83,810.72 C1321.86,818.98 1321.86,818.98 1323.82,827.26 "/><path d="M1186.06,426.56 C1188.49,423.89 1188.49,423.89 1190.98,421.27 C1195.00,417.62 1195.00,417.61 1199.08,414.02 C1203.38,410.76 1203.38,410.75 1207.75,407.58 C1214.22,403.53 1214.24,403.54 1220.76,399.56 C1225.48,396.96 1225.48,396.95 1230.23,394.42 C1235.17,392.26 1235.18,392.26 1240.16,390.19 C1245.36,388.51 1245.37,388.51 1250.60,386.93 C1256.02,385.74 1256.03,385.74 1261.48,384.66 C1267.11,383.98 1267.12,383.98 1272.77,383.40 C1278.60,383.22 1278.61,383.22 1284.44,383.13 C1290.43,383.45 1290.43,383.45 1296.42,383.86 C1302.55,384.64 1302.56,384.64 1308.68,385.51 C1314.93,386.77 1314.93,386.77 1321.16,388.12 C1327.50,389.82 1327.51,389.82 1333.83,391.60 C1340.24,393.75 1340.24,393.75 1346.62,395.97 C1353.07,398.56 1353.07,398.56 1359.48,401.22 C1365.94,404.21 1365.94,404.20 1372.37,407.26 C1378.81,410.66 1378.81,410.66 1385.22,414.13 C1391.64,417.92 1391.64,417.92 1398.03,421.77 C1404.37,425.94 1404.37,425.94 1410.68,430.17 C1416.97,434.72 1416.97,434.72 1423.21,439.33 C1429.35,444.20 1429.35,444.21 1435.45,449.14 C1441.47,454.37 1441.47,454.38 1447.45,459.66 C1453.30,465.22 1453.31,465.22 1459.11,470.83 C1464.79,476.71 1464.79,476.71 1470.41,482.64 C1475.90,488.80 1475.90,488.81 1481.33,495.01 C1486.60,501.44 1486.60,501.45 1491.82,507.92 C1496.84,514.56 1496.84,514.57 1501.82,521.25 C1506.62,528.10 1506.62,528.10 1511.37,534.99 C1515.90,542.01 1515.90,542.01 1520.37,549.06 C1524.64,556.21 1524.64,556.21 1528.85,563.38 C1532.83,570.64 1532.83,570.64 1536.76,577.93 C1540.44,585.26 1540.44,585.26 1544.07,592.62 C1547.44,600.00 1547.44,600.00 1550.76,607.40 C1553.82,614.85 1553.82,614.85 1556.82,622.32 C1559.51,629.63 1559.51,629.63 1562.13,636.96 C1564.47,644.29 1564.47,644.29 1566.75,651.64 C1568.73,658.89 1568.73,658.89 1570.64,666.15 C1572.23,673.30 1572.23,673.30 1573.76,680.46 C1574.96,687.46 1574.96,687.46 1576.09,694.47 C1576.88,701.30 1576.88,701.31 1577.60,708.15 C1577.99,714.80 1577.99,714.80 1578.29,721.46 C1578.29,727.90 1578.29,727.90 1578.21,734.34 C1577.82,740.56 1577.82,740.56 1577.35,746.78 C1576.59,752.73 1576.59,752.73 1575.75,758.68 C1574.62,764.37 1574.62,764.38 1573.41,770.05 C1571.92,775.46 1571.93,775.46 1570.36,780.84 C1568.49,786.02 1568.49,786.02 1566.54,791.16 C1564.41,795.84 1564.41,795.84 1562.21,800.48 C1559.72,804.88 1559.72,804.89 1557.14,809.25 C1554.28,813.35 1554.27,813.35 1551.33,817.40 C1548.26,820.98 1548.26,820.99 1545.12,824.50 C1541.69,827.74 1541.69,827.74 1538.19,830.90 C1534.48,833.71 1534.47,833.71 1530.71,836.43 C1524.81,840.14 1524.80,840.14 1518.86,843.78 C1515.42,845.62 1515.41,845.63 1511.93,847.40 C1508.30,848.89 1508.29,848.89 1504.63,850.31 C1500.81,851.45 1500.81,851.44 1496.97,852.51 C1493.71,853.17 1493.70,853.17 1490.43,853.76 "/><path d="M1490.43,853.76 C1488.01,856.70 1488.01,856.71 1485.53,859.59 C1482.15,862.93 1482.15,862.94 1478.71,866.20 C1475.05,869.14 1475.04,869.15 1471.32,872.00 C1465.73,875.61 1465.72,875.61 1460.08,879.12 "/><path d="M1209.13,406.75 C1213.02,404.36 1213.03,404.35 1216.97,402.04 C1221.80,399.68 1221.81,399.67 1226.69,397.40 C1231.77,395.51 1231.78,395.51 1236.90,393.71 C1242.22,392.32 1242.23,392.32 1247.58,391.02 C1253.13,390.12 1253.14,390.12 1258.70,389.32 C1264.45,388.93 1264.46,388.93 1270.21,388.64 C1276.14,388.73 1276.15,388.74 1282.08,388.93 C1288.16,389.50 1288.17,389.50 1294.24,390.16 C1300.44,391.20 1300.44,391.20 1306.63,392.33 C1312.93,393.83 1312.94,393.83 1319.22,395.40 C1325.60,397.35 1325.60,397.35 1331.96,399.38 C1338.39,401.75 1338.39,401.75 1344.79,404.19 C1351.25,406.99 1351.25,406.99 1357.68,409.86 C1364.13,413.06 1364.13,413.06 1370.55,416.33 C1376.98,419.94 1376.99,419.94 1383.38,423.61 C1389.76,427.60 1389.76,427.60 1396.10,431.66 C1402.41,436.02 1402.41,436.02 1408.68,440.45 C1414.88,445.18 1414.88,445.18 1421.03,449.97 C1427.11,455.05 1427.11,455.05 1433.15,460.18 C1439.09,465.60 1439.09,465.60 1444.97,471.08 C1450.73,476.83 1450.73,476.83 1456.43,482.63 C1462.08,488.77 1462.08,488.78 1467.68,494.97 C1472.96,501.19 1472.96,501.19 1478.19,507.46 C1483.34,514.02 1483.34,514.02 1488.44,520.62 C1493.34,527.38 1493.34,527.38 1498.19,534.18 C1502.85,541.13 1502.86,541.13 1507.47,548.11 C1511.87,555.20 1511.87,555.20 1516.22,562.32 C1520.34,569.54 1520.33,569.54 1524.40,576.79 C1528.22,584.08 1528.22,584.08 1532.00,591.40 C1535.51,598.76 1535.51,598.76 1538.98,606.14 C1542.17,613.52 1542.18,613.52 1545.32,620.92 C1548.17,628.31 1548.17,628.31 1550.96,635.71 C1553.47,643.05 1553.48,643.06 1555.93,650.42 C1558.07,657.70 1558.08,657.70 1560.16,665.00 C1561.92,672.19 1561.92,672.19 1563.61,679.40 C1564.98,686.46 1564.98,686.46 1566.28,693.54 C1567.24,700.45 1567.24,700.46 1568.12,707.38 C1568.69,714.18 1568.69,714.18 1569.17,720.98 C1569.34,727.46 1569.34,727.47 1569.42,733.95 C1569.21,740.27 1569.21,740.27 1568.92,746.59 C1568.32,752.76 1568.32,752.76 1567.64,758.93 C1566.68,764.66 1566.68,764.67 1565.65,770.39 C1564.34,775.93 1564.34,775.93 1562.95,781.46 C1561.28,786.70 1561.28,786.71 1559.53,791.93 C1557.52,796.84 1557.52,796.85 1555.44,801.73 C1553.10,806.31 1553.10,806.32 1550.68,810.85 C1548.02,815.06 1548.02,815.07 1545.28,819.23 C1542.31,823.05 1542.30,823.06 1539.26,826.82 C1535.97,830.24 1535.97,830.25 1532.61,833.60 C1529.03,836.60 1529.01,836.59 1525.38,839.52 C1523.17,841.04 1523.16,841.04 1520.91,842.51 "/><path d="M1385.34,785.11 C1384.48,777.75 1384.48,777.75 1383.54,770.40 C1382.54,764.73 1382.52,764.73 1381.45,759.07 C1380.16,753.30 1380.16,753.30 1378.81,747.55 C1377.21,741.73 1377.21,741.73 1375.56,735.93 C1373.68,730.05 1373.69,730.05 1371.76,724.19 C1369.59,718.30 1369.58,718.30 1367.36,712.43 C1364.90,706.53 1364.90,706.53 1362.40,700.66 C1359.66,694.78 1359.66,694.78 1356.88,688.93 C1353.86,683.12 1353.85,683.12 1350.78,677.32 C1347.50,671.57 1347.50,671.56 1344.18,665.83 C1340.64,660.17 1340.64,660.17 1337.05,654.54 C1333.29,648.98 1333.29,648.97 1329.49,643.44 C1325.50,638.01 1325.50,638.01 1321.47,632.62 C1317.29,627.34 1317.29,627.34 1313.07,622.09 C1308.71,616.98 1308.71,616.98 1304.32,611.90 C1299.80,606.98 1299.80,606.98 1295.24,602.09 C1290.58,597.37 1290.58,597.37 1285.88,592.69 C1281.09,588.20 1281.09,588.20 1276.26,583.76 C1271.36,579.52 1271.36,579.52 1266.43,575.33 C1261.44,571.36 1261.44,571.36 1256.41,567.44 C1251.34,563.77 1251.34,563.77 1246.24,560.13 C1242.91,557.98 1242.91,557.98 1239.54,555.87 "/><path d="M1239.54,555.87 C1243.24,558.79 1243.24,558.79 1246.91,561.74 C1252.93,566.97 1252.93,566.96 1258.91,572.23 C1264.77,577.79 1264.77,577.79 1270.59,583.39 C1276.29,589.27 1276.29,589.27 1281.95,595.19 C1287.47,601.34 1287.46,601.35 1292.93,607.54 C1298.25,613.95 1298.25,613.95 1303.53,620.40 C1308.63,627.02 1308.63,627.02 1313.68,633.68 C1318.55,640.51 1318.55,640.51 1323.36,647.37 C1327.97,654.36 1327.98,654.36 1332.54,661.38 C1336.88,668.50 1336.88,668.51 1341.17,675.66 C1345.24,682.89 1345.24,682.89 1349.26,690.14 C1353.01,697.44 1353.01,697.44 1356.70,704.77 C1360.15,712.12 1360.15,712.12 1363.55,719.49 C1366.65,726.85 1366.65,726.85 1369.70,734.24 C1372.46,741.59 1372.46,741.60 1375.15,748.97 C1377.54,756.28 1377.54,756.28 1379.87,763.61 C1381.87,770.85 1381.87,770.85 1383.80,778.11 C1385.41,785.24 1385.41,785.25 1386.95,792.39 C1388.15,799.41 1388.15,799.41 1389.28,806.44 C1390.11,813.30 1390.11,813.30 1390.86,820.18 C1391.30,826.87 1391.30,826.87 1391.67,833.57 C1391.72,840.07 1391.72,840.08 1391.70,846.58 C1391.39,852.86 1391.39,852.87 1391.01,859.15 C1390.33,865.19 1390.33,865.20 1389.58,871.23 C1388.55,877.01 1388.55,877.01 1387.44,882.77 C1386.06,888.26 1386.06,888.26 1384.59,893.73 C1382.86,898.91 1382.85,898.91 1381.04,904.07 C1378.97,908.91 1378.97,908.92 1376.82,913.73 C1374.42,918.22 1374.42,918.22 1371.93,922.67 C1369.20,926.78 1369.20,926.78 1366.39,930.83 C1363.34,934.54 1363.33,934.55 1360.19,938.19 C1356.66,941.61 1356.65,941.62 1353.04,944.96 C1349.16,947.89 1349.15,947.89 1345.20,950.73 C1340.62,953.53 1340.62,953.53 1335.99,956.25 "/><path d="M1553.25,814.72 C1555.89,814.27 1555.90,814.27 1558.53,813.75 C1563.13,812.45 1563.14,812.47 1567.71,811.09 C1572.07,809.36 1572.07,809.35 1576.40,807.53 C1580.51,805.35 1580.50,805.33 1584.58,803.08 C1590.27,799.62 1590.29,799.64 1595.92,796.11 C1599.87,793.17 1599.88,793.17 1603.75,790.14 C1607.35,786.70 1607.35,786.69 1610.86,783.17 C1614.09,779.23 1614.09,779.22 1617.22,775.21 C1620.06,770.80 1620.06,770.79 1622.82,766.32 C1625.14,761.74 1625.14,761.74 1627.38,757.12 C1629.37,752.14 1629.37,752.14 1631.27,747.13 C1632.89,741.83 1632.89,741.82 1634.43,736.50 C1635.71,730.87 1635.71,730.87 1636.91,725.22 C1637.82,719.31 1637.82,719.31 1638.65,713.39 C1639.21,707.21 1639.21,707.21 1639.69,701.01 C1639.88,694.60 1639.87,694.60 1639.98,688.18 C1639.81,681.56 1639.81,681.55 1639.57,674.93 C1639.02,668.12 1639.02,668.12 1638.40,661.31 C1637.49,654.35 1637.48,654.34 1636.50,647.38 C1635.21,640.28 1635.21,640.28 1633.86,633.19 C1632.19,625.99 1632.19,625.98 1630.46,618.80 C1628.42,611.51 1628.42,611.51 1626.31,604.25 C1623.88,596.91 1623.88,596.91 1621.39,589.60 C1618.59,582.24 1618.59,582.24 1615.73,574.90 C1612.55,567.53 1612.55,567.53 1609.31,560.19 C1605.80,552.88 1605.80,552.87 1602.23,545.58 C1598.43,538.40 1598.43,538.40 1594.59,531.25 C1590.39,523.97 1590.39,523.97 1586.13,516.72 C1581.70,509.64 1581.70,509.64 1577.22,502.60 C1572.51,495.67 1572.51,495.67 1567.76,488.78 C1562.81,482.01 1562.81,482.01 1557.81,475.28 C1552.63,468.71 1552.63,468.71 1547.39,462.18 C1542.00,455.84 1542.00,455.84 1536.56,449.54 C1530.98,443.45 1530.99,443.44 1525.36,437.39 C1519.61,431.59 1519.61,431.59 1513.81,425.82 C1507.92,420.31 1507.92,420.31 1501.98,414.85 C1495.94,409.68 1495.94,409.68 1489.86,404.56 C1483.72,399.75 1483.72,399.74 1477.54,394.99 C1471.30,390.57 1471.30,390.57 1465.01,386.21 C1458.76,382.25 1458.76,382.24 1452.47,378.34 C1446.05,374.71 1446.05,374.70 1439.59,371.14 C1433.20,367.98 1433.20,367.98 1426.77,364.89 C1420.39,362.16 1420.38,362.16 1413.97,359.49 C1407.59,357.19 1407.59,357.19 1401.19,354.97 C1394.85,353.10 1394.85,353.10 1388.49,351.32 C1382.23,349.88 1382.23,349.88 1375.95,348.53 C1369.77,347.55 1369.77,347.55 1363.58,346.66 C1357.52,346.12 1357.51,346.12 1351.45,345.67 C1345.52,345.59 1345.52,345.59 1339.59,345.60 C1333.83,345.96 1333.83,345.96 1328.07,346.42 C1322.48,347.25 1322.48,347.25 1316.90,348.17 C1311.52,349.46 1311.52,349.46 1306.16,350.85 C1301.02,352.60 1301.01,352.60 1295.90,354.45 C1291.00,356.68 1290.99,356.67 1286.14,359.01 C1279.55,362.89 1279.57,362.92 1273.03,366.89 C1268.54,369.81 1268.52,369.79 1264.07,372.78 C1259.88,376.15 1259.87,376.15 1255.75,379.61 C1251.66,383.69 1251.65,383.70 1247.64,387.86 "/><path d="M1273.03,366.89 C1277.76,364.35 1277.77,364.35 1282.55,361.91 C1287.55,359.85 1287.56,359.86 1292.60,357.90 C1297.86,356.30 1297.86,356.30 1303.15,354.79 C1308.62,353.66 1308.63,353.66 1314.12,352.62 C1319.79,351.94 1319.80,351.94 1325.48,351.35 C1331.34,351.13 1331.34,351.13 1337.20,351.00 C1343.20,351.23 1343.21,351.23 1349.20,351.56 C1355.34,352.24 1355.34,352.25 1361.47,353.02 C1367.70,354.15 1367.71,354.15 1373.93,355.36 C1380.25,356.94 1380.25,356.94 1386.55,358.60 C1392.91,360.61 1392.91,360.62 1399.24,362.71 C1405.67,365.17 1405.67,365.17 1412.08,367.71 C1418.50,370.61 1418.50,370.61 1424.89,373.58 C1431.30,376.91 1431.30,376.91 1437.67,380.32 C1444.04,384.08 1444.05,384.08 1450.38,387.90 C1456.69,392.09 1456.69,392.09 1462.96,396.35 C1469.19,400.93 1469.19,400.93 1475.39,405.58 C1481.51,410.54 1481.51,410.55 1487.60,415.57 C1493.61,420.88 1493.61,420.88 1499.58,426.24 C1505.45,431.87 1505.45,431.87 1511.28,437.54 C1516.99,443.47 1516.99,443.47 1522.65,449.44 C1528.18,455.63 1528.19,455.63 1533.68,461.86 C1539.00,468.29 1539.00,468.29 1544.28,474.75 C1549.40,481.39 1549.40,481.39 1554.46,488.07 C1559.33,494.88 1559.33,494.88 1564.15,501.74 C1568.76,508.71 1568.77,508.71 1573.33,515.72 C1577.67,522.82 1577.67,522.82 1581.95,529.95 C1585.99,537.15 1585.99,537.15 1589.96,544.38 C1593.69,551.65 1593.69,551.65 1597.36,558.95 C1600.73,566.27 1600.73,566.27 1604.05,573.62 C1607.07,580.96 1607.08,580.96 1610.04,588.32 C1612.68,595.65 1612.68,595.65 1615.27,603.00 C1617.10,608.86 1617.10,608.86 1618.88,614.73 C1621.21,623.40 1621.23,623.39 1623.50,632.08 C1625.03,639.22 1625.02,639.23 1626.48,646.39 C1627.63,653.41 1627.63,653.42 1628.72,660.45 C1629.51,667.33 1629.51,667.33 1630.23,674.23 C1630.66,680.94 1630.66,680.94 1631.01,687.66 C1631.06,694.19 1631.06,694.19 1631.04,700.71 C1630.74,707.05 1630.74,707.06 1630.36,713.39 C1629.70,719.40 1629.70,719.40 1628.96,725.39 C1627.93,731.17 1627.94,731.17 1626.83,736.94 C1625.45,742.41 1625.45,742.41 1624.00,747.86 C1622.26,753.01 1622.26,753.02 1620.44,758.14 C1618.35,762.93 1618.35,762.94 1616.18,767.69 C1613.74,772.11 1613.73,772.11 1611.21,776.48 C1608.42,780.48 1608.42,780.49 1605.55,784.44 C1602.42,788.02 1602.42,788.03 1599.21,791.54 C1595.74,794.68 1595.73,794.68 1592.19,797.74 C1588.42,800.45 1588.41,800.46 1584.58,803.08 "/><path d="M1301.55,517.87 C1307.00,521.47 1307.00,521.47 1312.42,525.12 C1317.52,528.83 1317.52,528.83 1322.60,532.58 C1327.62,536.56 1327.62,536.56 1332.61,540.58 C1337.52,544.83 1337.52,544.83 1342.39,549.11 C1347.19,553.59 1347.19,553.59 1351.95,558.11 C1356.60,562.82 1356.60,562.83 1361.22,567.58 C1365.70,572.48 1365.70,572.48 1370.14,577.42 C1374.45,582.54 1374.45,582.54 1378.71,587.69 C1382.82,592.97 1382.82,592.97 1386.88,598.29 C1390.78,603.74 1390.78,603.74 1394.63,609.23 C1398.28,614.81 1398.28,614.82 1401.89,620.43 C1405.32,626.14 1405.32,626.14 1408.70,631.87 C1411.88,637.66 1411.88,637.67 1415.01,643.49 C1417.95,649.34 1417.95,649.35 1420.84,655.23 C1423.52,661.13 1423.52,661.13 1426.16,667.05 C1428.57,672.97 1428.57,672.97 1430.94,678.91 C1433.09,684.81 1433.10,684.81 1435.20,690.73 C1437.07,696.60 1437.07,696.60 1438.89,702.49 C1440.48,708.31 1440.48,708.31 1442.03,714.14 C1443.33,719.87 1443.33,719.87 1444.58,725.61 C1445.59,731.24 1445.61,731.24 1446.54,736.87 C1447.44,744.88 1447.44,744.88 1448.26,752.90 "/><path d="M1309.67,349.97 C1311.34,348.13 1311.35,348.13 1313.06,346.33 C1317.10,342.71 1317.09,342.69 1321.18,339.12 C1325.49,335.89 1325.50,335.89 1329.88,332.74 C1336.33,328.65 1336.34,328.65 1342.84,324.63 C1347.56,322.03 1347.56,322.02 1352.32,319.50 C1357.30,317.33 1357.31,317.33 1362.33,315.26 C1367.54,313.53 1367.55,313.53 1372.79,311.90 C1378.21,310.60 1378.21,310.60 1383.66,309.41 C1389.28,308.57 1389.28,308.57 1394.92,307.83 C1400.70,307.45 1400.71,307.45 1406.50,307.16 C1412.44,307.24 1412.45,307.24 1418.40,307.42 C1424.46,307.96 1424.47,307.97 1430.52,308.60 C1436.71,309.62 1436.71,309.63 1442.88,310.73 C1449.15,312.23 1449.16,312.23 1455.41,313.81 C1461.75,315.79 1461.75,315.79 1468.07,317.86 C1474.46,320.32 1474.46,320.32 1480.82,322.86 C1487.23,325.79 1487.23,325.80 1493.61,328.80 C1500.03,332.18 1500.03,332.18 1506.41,335.62 C1512.80,339.41 1512.80,339.41 1519.15,343.26 C1525.50,347.45 1525.50,347.46 1531.81,351.71 C1538.09,356.27 1538.10,356.27 1544.34,360.89 C1550.52,365.81 1550.52,365.81 1556.67,370.79 C1562.75,376.03 1562.75,376.03 1568.79,381.32 C1574.72,386.88 1574.72,386.88 1580.60,392.48 C1586.38,398.32 1586.39,398.32 1592.12,404.20 C1597.70,410.29 1597.70,410.29 1603.24,416.42 C1608.63,422.76 1608.63,422.76 1613.97,429.13 C1619.13,435.67 1619.13,435.68 1624.24,442.25 C1629.14,449.00 1629.14,449.00 1634.00,455.78 C1638.63,462.68 1638.63,462.68 1643.21,469.62 C1647.53,476.68 1647.53,476.68 1651.80,483.78 C1655.82,490.95 1655.82,490.95 1659.78,498.15 C1663.46,505.42 1663.46,505.43 1667.09,512.73 C1670.45,520.05 1670.45,520.05 1673.74,527.41 C1676.77,534.77 1676.77,534.78 1679.74,542.17 C1682.41,549.54 1682.41,549.54 1685.02,556.93 C1687.36,564.28 1687.36,564.28 1689.64,571.65 C1691.63,578.94 1691.63,578.94 1693.55,586.25 C1695.19,593.46 1695.19,593.46 1696.77,600.68 C1698.04,607.77 1698.04,607.77 1699.24,614.87 C1700.16,621.81 1700.16,621.82 1701.01,628.76 C1701.56,635.54 1701.57,635.54 1702.05,642.32 C1702.22,648.89 1702.22,648.90 1702.32,655.46 C1702.13,661.80 1702.13,661.80 1701.86,668.14 C1701.28,674.21 1701.28,674.21 1700.62,680.28 C1699.67,686.06 1699.67,686.07 1698.63,691.83 C1697.27,697.34 1697.27,697.34 1695.82,702.82 C1694.10,707.89 1694.10,707.90 1692.29,712.94 C1690.18,717.69 1690.17,717.70 1687.97,722.41 C1685.50,726.80 1685.50,726.81 1682.94,731.15 C1680.08,735.21 1680.08,735.22 1677.14,739.22 "/><path d="M1677.14,739.22 C1679.11,738.87 1679.12,738.87 1681.08,738.48 C1684.32,737.62 1684.33,737.62 1687.55,736.71 C1690.68,735.62 1690.69,735.63 1693.80,734.47 C1698.02,732.51 1698.04,732.52 1702.22,730.47 C1706.65,727.80 1706.66,727.80 1711.03,725.04 "/><path d="M1330.80,332.19 C1334.93,329.66 1334.94,329.66 1339.12,327.21 C1343.99,324.84 1343.99,324.83 1348.90,322.54 C1354.00,320.61 1354.01,320.60 1359.15,318.76 C1364.47,317.26 1364.48,317.26 1369.83,315.86 C1375.35,314.81 1375.36,314.81 1380.89,313.85 C1386.60,313.25 1386.61,313.25 1392.33,312.75 C1398.20,312.61 1398.21,312.61 1404.08,312.57 C1410.09,312.91 1410.09,312.91 1416.09,313.33 C1422.22,314.14 1422.23,314.14 1428.34,315.03 C1434.57,316.32 1434.58,316.32 1440.79,317.69 C1447.10,319.46 1447.11,319.46 1453.40,321.32 C1459.76,323.58 1459.77,323.59 1466.10,325.93 C1472.52,328.66 1472.52,328.66 1478.90,331.47 C1485.33,334.65 1485.33,334.65 1491.72,337.90 C1498.13,341.51 1498.13,341.51 1504.50,345.19 C1510.88,349.20 1510.88,349.20 1517.22,353.27 C1523.54,357.67 1523.54,357.67 1529.81,362.13 C1536.05,366.88 1536.05,366.88 1542.24,371.69 C1548.37,376.78 1548.37,376.79 1554.46,381.93 C1560.52,387.39 1560.52,387.39 1566.54,392.89 C1572.35,398.55 1572.35,398.55 1578.11,404.25 C1583.78,410.22 1583.78,410.22 1589.41,416.24 C1594.89,422.45 1594.89,422.45 1600.33,428.71 C1605.59,435.16 1605.58,435.16 1610.79,441.65 C1615.81,448.30 1615.82,448.30 1620.79,454.99 C1625.53,461.82 1625.53,461.82 1630.23,468.69 C1634.69,475.68 1634.69,475.68 1639.10,482.71 C1643.25,489.84 1643.25,489.84 1647.34,497.00 C1651.17,504.23 1651.17,504.23 1654.93,511.49 C1658.44,518.81 1658.44,518.81 1661.89,526.15 C1665.06,533.51 1665.06,533.51 1668.17,540.89 C1671.02,548.27 1671.02,548.28 1673.80,555.68 C1676.30,563.05 1676.30,563.05 1678.74,570.44 C1680.89,577.75 1680.89,577.76 1682.99,585.09 C1684.79,592.34 1684.80,592.34 1686.54,599.61 C1687.98,606.76 1687.98,606.76 1689.36,613.93 C1690.45,620.94 1690.46,620.94 1691.48,627.97 C1692.20,634.83 1692.20,634.83 1692.85,641.70 C1693.20,648.36 1693.21,648.36 1693.49,655.02 C1693.46,661.47 1693.46,661.47 1693.36,667.91 C1692.96,674.10 1692.96,674.10 1692.47,680.28 C1691.69,686.19 1691.69,686.20 1690.82,692.10 C1689.64,697.70 1689.64,697.71 1688.37,703.29 C1686.80,708.55 1686.80,708.56 1685.14,713.79 C1683.18,718.71 1683.18,718.72 1681.13,723.59 C1678.82,728.14 1678.82,728.15 1676.42,732.66 C1673.76,736.84 1673.75,736.84 1671.01,740.97 C1668.01,744.78 1668.01,744.78 1664.94,748.53 C1661.63,751.95 1661.63,751.95 1658.26,755.29 C1654.65,758.30 1654.64,758.31 1650.97,761.24 C1647.10,763.84 1647.09,763.85 1643.17,766.37 C1639.02,768.55 1639.01,768.55 1634.82,770.63 C1630.44,772.38 1630.43,772.39 1626.01,774.03 C1621.06,775.39 1621.05,775.39 1616.08,776.64 "/><path d="M1510.48,715.32 C1510.01,709.09 1510.01,709.09 1509.46,702.87 C1508.69,697.34 1508.68,697.34 1507.84,691.81 C1506.74,686.15 1506.74,686.15 1505.59,680.50 C1504.16,674.74 1504.16,674.74 1502.68,669.00 C1500.95,663.16 1500.95,663.16 1499.17,657.34 C1497.14,651.44 1497.13,651.44 1495.05,645.57 C1492.74,639.65 1492.74,639.64 1490.38,633.74 C1487.79,627.82 1487.79,627.82 1485.15,621.92 C1482.31,616.02 1482.30,616.02 1479.41,610.13 C1476.32,604.27 1476.32,604.27 1473.18,598.43 C1469.84,592.65 1469.84,592.65 1466.47,586.89 C1462.91,581.19 1462.91,581.18 1459.32,575.51 C1455.55,569.94 1455.55,569.93 1451.74,564.39 C1447.77,558.94 1447.77,558.94 1443.76,553.53 C1439.60,548.26 1439.60,548.26 1435.40,543.02 C1431.06,537.94 1431.06,537.94 1426.68,532.89 C1422.18,528.02 1422.18,528.02 1417.64,523.19 C1412.99,518.56 1412.99,518.56 1408.30,513.98 C1403.50,509.60 1403.50,509.60 1398.67,505.26 C1393.75,501.17 1393.75,501.17 1388.80,497.12 C1383.77,493.31 1383.77,493.31 1378.71,489.55 C1373.62,486.02 1373.62,486.02 1368.49,482.54 C1364.87,480.34 1364.87,480.33 1361.22,478.18 "/><path d="M1361.22,478.18 C1364.79,480.95 1364.79,480.95 1368.34,483.75 C1374.44,488.91 1374.44,488.91 1380.50,494.11 C1386.48,499.57 1386.48,499.57 1392.41,505.08 C1398.21,510.83 1398.21,510.83 1403.97,516.63 C1409.59,522.65 1409.59,522.65 1415.16,528.72 C1420.57,534.99 1420.57,534.99 1425.92,541.30 C1431.09,547.79 1431.10,547.79 1436.22,554.32 C1441.14,561.03 1441.14,561.03 1446.00,567.78 C1450.64,574.68 1450.63,574.68 1455.21,581.61 C1459.55,588.66 1459.56,588.66 1463.84,595.74 C1467.88,602.92 1467.88,602.93 1471.87,610.14 C1475.61,617.43 1475.61,617.43 1479.29,624.74 C1482.72,632.09 1482.72,632.09 1486.09,639.46 C1489.19,646.85 1489.19,646.85 1492.23,654.26 C1495.00,661.66 1495.00,661.66 1497.72,669.08 C1500.14,676.45 1500.14,676.45 1502.51,683.84 C1504.60,691.15 1504.61,691.15 1506.63,698.48 C1508.36,705.71 1508.36,705.72 1510.03,712.96 C1511.41,720.08 1511.42,720.08 1512.73,727.20 C1513.74,734.17 1513.74,734.17 1514.67,741.15 C1515.30,747.94 1515.30,747.94 1515.86,754.74 C1516.11,761.33 1516.11,761.33 1516.29,767.92 C1516.14,774.27 1516.14,774.28 1515.91,780.62 C1515.37,786.70 1515.38,786.70 1514.75,792.77 C1513.79,798.62 1513.79,798.63 1512.74,804.46 C1511.42,809.87 1511.42,809.87 1510.01,815.25 C1508.30,820.41 1508.30,820.42 1506.50,825.54 C1504.42,830.36 1504.42,830.37 1502.26,835.15 C1499.84,839.61 1499.85,839.63 1497.34,844.04 C1493.93,848.93 1493.93,848.94 1490.43,853.76 "/><path d="M1399.24,290.21 C1404.02,287.20 1404.02,287.20 1408.84,284.26 C1413.61,281.74 1413.61,281.73 1418.42,279.30 C1423.44,277.22 1423.44,277.21 1428.50,275.22 C1433.74,273.60 1433.75,273.60 1439.02,272.08 C1444.47,270.92 1444.47,270.92 1449.93,269.86 C1455.59,269.20 1455.60,269.20 1461.26,268.63 C1467.08,268.47 1467.09,268.47 1472.91,268.40 C1478.90,268.75 1478.91,268.75 1484.90,269.19 C1491.03,270.04 1491.03,270.04 1497.15,270.98 C1503.40,272.31 1503.41,272.31 1509.64,273.72 C1515.98,275.52 1515.98,275.52 1522.30,277.41 C1528.69,279.66 1528.70,279.66 1535.06,281.99 C1541.51,284.67 1541.51,284.67 1547.92,287.43 C1554.37,290.54 1554.37,290.54 1560.79,293.72 C1567.23,297.23 1567.24,297.24 1573.65,300.81 C1580.05,304.71 1580.05,304.71 1586.41,308.67 C1592.76,312.94 1592.77,312.94 1599.08,317.27 C1605.35,321.90 1605.35,321.90 1611.57,326.59 C1617.72,331.56 1617.72,331.56 1623.83,336.58 C1629.85,341.88 1629.85,341.88 1635.83,347.22 C1641.69,352.82 1641.69,352.82 1647.50,358.47 C1653.17,364.36 1653.17,364.36 1658.80,370.30 C1664.27,376.47 1664.27,376.47 1669.69,382.69 C1674.93,389.12 1674.93,389.12 1680.12,395.59 C1685.11,402.24 1685.11,402.24 1690.05,408.94 C1694.78,415.79 1694.78,415.80 1699.46,422.69 C1703.93,429.72 1703.93,429.72 1708.35,436.78 C1712.53,443.94 1712.53,443.94 1716.66,451.14 C1720.57,458.41 1720.57,458.41 1724.42,465.71 C1728.01,473.05 1728.01,473.05 1731.54,480.42 C1734.82,487.81 1734.82,487.81 1738.05,495.22 C1741.02,502.62 1741.02,502.62 1743.93,510.05 C1746.55,517.43 1746.55,517.43 1749.11,524.84 C1751.38,532.18 1751.39,532.18 1753.60,539.53 C1755.51,546.79 1755.51,546.79 1757.36,554.07 C1758.91,561.22 1758.92,561.22 1760.40,568.38 C1761.57,575.39 1761.57,575.39 1762.67,582.41 C1763.44,589.25 1763.44,589.25 1764.14,596.10 C1764.52,602.73 1764.52,602.73 1764.82,609.37 C1764.77,615.84 1764.77,615.85 1764.64,622.32 C1764.21,628.41 1764.21,628.42 1763.70,634.50 C1762.87,640.40 1762.87,640.40 1761.95,646.29 C1760.75,651.89 1760.75,651.90 1759.46,657.49 C1757.88,662.80 1757.88,662.81 1756.22,668.09 C1754.30,673.09 1754.30,673.09 1752.30,678.05 C1750.03,682.71 1750.03,682.71 1747.69,687.33 C1745.09,691.63 1745.09,691.64 1742.41,695.90 C1739.51,699.84 1739.51,699.85 1736.53,703.73 C1733.31,707.28 1733.31,707.29 1730.02,710.77 C1726.52,713.92 1726.52,713.93 1722.95,717.00 C1719.18,719.73 1719.16,719.71 1715.34,722.37 C1713.19,723.72 1713.19,723.72 1711.03,725.04 "/><path d="M1711.03,725.04 C1714.28,722.45 1714.28,722.44 1717.48,719.79 C1720.90,716.51 1720.91,716.52 1724.27,713.18 C1727.39,709.52 1727.39,709.52 1730.44,705.80 C1733.29,701.71 1733.29,701.71 1736.07,697.56 C1738.58,693.13 1738.58,693.12 1741.01,688.65 C1743.20,683.86 1743.20,683.85 1745.30,679.03 C1747.14,673.91 1747.14,673.90 1748.89,668.76 C1750.38,663.32 1750.38,663.32 1751.78,657.86 C1752.90,652.13 1752.89,652.13 1753.92,646.38 C1754.66,640.37 1754.66,640.37 1755.32,634.35 C1755.67,628.08 1755.66,628.08 1755.93,621.81 C1755.87,615.31 1755.87,615.30 1755.73,608.80 C1755.26,602.07 1755.25,602.07 1754.71,595.34 C1753.83,588.42 1753.83,588.41 1752.88,581.51 C1751.61,574.42 1751.61,574.42 1750.27,567.34 C1748.62,560.13 1748.62,560.13 1746.90,552.94 C1744.88,545.62 1744.87,545.62 1742.79,538.33 C1740.43,530.99 1740.43,530.98 1738.00,523.66 C1735.27,516.21 1735.26,516.21 1732.47,508.79 C1729.42,501.36 1729.42,501.36 1726.31,493.96 C1722.93,486.56 1722.93,486.56 1719.50,479.19 C1715.81,471.85 1715.81,471.85 1712.08,464.53 C1708.10,457.28 1708.10,457.28 1704.06,450.06 C1699.79,442.91 1699.79,442.91 1695.46,435.80 C1690.93,428.81 1690.93,428.81 1686.34,421.85 C1681.54,415.04 1681.54,415.04 1676.69,408.26 C1671.65,401.66 1671.65,401.66 1666.55,395.09 C1661.27,388.72 1661.26,388.72 1655.92,382.40 C1650.42,376.30 1650.42,376.30 1644.87,370.24 C1639.16,364.43 1639.15,364.43 1633.39,358.67 C1627.50,353.16 1627.50,353.16 1621.57,347.71 C1615.54,342.51 1615.54,342.50 1609.46,337.36 C1603.30,332.50 1603.30,332.50 1597.10,327.69 C1590.87,323.19 1590.87,323.19 1584.60,318.75 C1578.22,314.58 1578.22,314.57 1571.80,310.46 C1565.39,306.66 1565.39,306.66 1558.94,302.93 C1552.54,299.55 1552.54,299.55 1546.11,296.24 C1539.68,293.26 1539.68,293.26 1533.22,290.34 C1526.82,287.79 1526.82,287.79 1520.40,285.30 C1514.04,283.18 1514.04,283.17 1507.66,281.13 C1501.38,279.46 1501.38,279.45 1495.07,277.87 C1488.88,276.66 1488.88,276.66 1482.67,275.54 C1476.61,274.81 1476.60,274.81 1470.53,274.17 C1464.60,273.95 1464.60,273.95 1458.67,273.82 C1452.91,274.11 1452.90,274.11 1447.15,274.49 C1442.20,275.17 1442.20,275.18 1437.26,275.95 C1431.25,277.32 1431.25,277.31 1425.26,278.78 C1420.10,280.50 1420.09,280.51 1414.96,282.34 C1410.02,284.54 1410.01,284.54 1405.11,286.84 C1400.42,289.47 1400.42,289.48 1395.78,292.20 C1391.34,295.27 1391.33,295.28 1386.95,298.43 C1382.78,301.93 1382.77,301.93 1378.66,305.50 C1375.41,308.75 1375.41,308.76 1372.22,312.08 "/><path d="M1571.81,671.52 C1571.08,664.60 1571.08,664.60 1570.27,657.69 C1569.35,652.06 1569.34,652.06 1568.36,646.45 C1567.12,640.73 1567.11,640.73 1565.82,635.01 C1564.29,629.21 1564.29,629.21 1562.71,623.43 C1560.87,617.58 1560.87,617.58 1558.97,611.75 C1556.84,605.87 1556.84,605.87 1554.65,600.01 C1552.20,594.12 1552.20,594.12 1549.70,588.25 C1546.96,582.38 1546.96,582.38 1544.17,576.53 C1541.17,570.69 1541.18,570.69 1538.13,564.88 C1534.86,559.10 1534.86,559.10 1531.54,553.34 C1528.04,547.64 1528.05,547.63 1524.50,541.96 C1520.77,536.35 1520.77,536.35 1516.99,530.78 C1513.05,525.30 1513.05,525.30 1509.07,519.85 C1504.94,514.51 1504.94,514.51 1500.76,509.21 C1496.45,504.05 1496.44,504.05 1492.09,498.92 C1487.62,493.94 1487.62,493.94 1483.11,488.99 C1478.49,484.23 1478.49,484.22 1473.82,479.50 C1466.98,473.11 1466.99,473.10 1460.08,466.78 C1452.37,460.35 1452.36,460.35 1444.59,453.99 C1439.56,450.27 1439.55,450.28 1434.47,446.63 C1428.86,442.95 1428.86,442.95 1423.21,439.33 "/><path d="M1634.16,634.81 C1633.58,629.43 1633.58,629.43 1632.94,624.07 C1632.06,618.45 1632.07,618.45 1631.13,612.83 C1629.96,607.11 1629.96,607.11 1628.73,601.39 C1627.27,595.58 1627.27,595.58 1625.77,589.78 C1624.02,583.91 1624.02,583.91 1622.22,578.06 C1620.20,572.14 1620.20,572.14 1618.13,566.25 C1615.74,560.12 1615.73,560.12 1613.30,554.02 C1610.81,548.32 1610.81,548.32 1608.29,542.65 C1605.45,536.77 1605.46,536.77 1602.58,530.91 C1599.49,525.11 1599.49,525.11 1596.35,519.33 C1592.99,513.60 1593.00,513.60 1589.60,507.90 C1585.99,502.28 1585.99,502.28 1582.33,496.69 C1578.50,491.21 1578.50,491.20 1574.62,485.74 C1570.60,480.45 1570.60,480.46 1566.54,475.20 C1562.24,469.96 1562.24,469.96 1557.91,464.76 C1553.48,459.75 1553.48,459.75 1549.01,454.78 C1544.41,449.98 1544.41,449.98 1539.77,445.21 C1535.04,440.62 1535.04,440.62 1530.28,436.06 C1525.42,431.71 1525.42,431.71 1520.53,427.40 C1515.57,423.29 1515.57,423.29 1510.58,419.23 C1505.52,415.40 1505.53,415.39 1500.44,411.61 C1494.54,407.57 1494.54,407.57 1488.60,403.58 "/><path d="M1632.73,340.97 C1626.95,335.41 1626.95,335.40 1621.10,329.91 C1615.11,324.76 1615.10,324.76 1609.05,319.69 C1602.88,314.99 1602.88,314.99 1596.66,310.37 C1590.33,306.12 1590.33,306.12 1583.95,301.95 C1577.50,298.19 1577.50,298.18 1571.01,294.51 C1564.55,291.29 1564.55,291.28 1558.05,288.15 C1551.52,285.46 1551.51,285.45 1544.94,282.85 C1538.48,280.74 1538.48,280.73 1531.98,278.72 C1525.57,277.20 1525.56,277.22 1519.12,275.78 C1516.92,275.46 1516.92,275.46 1514.71,275.19 "/><path d="M1696.97,601.86 C1696.52,596.09 1696.52,596.08 1696.00,590.32 C1695.24,584.78 1695.24,584.77 1694.41,579.24 C1693.33,573.58 1693.33,573.58 1692.19,567.94 C1690.81,562.17 1690.81,562.16 1689.37,556.41 C1687.68,550.56 1687.68,550.56 1685.94,544.73 C1683.97,538.83 1683.97,538.82 1681.95,532.94 C1679.70,527.01 1679.69,527.01 1677.39,521.09 C1674.87,515.16 1674.87,515.16 1672.30,509.24 C1669.53,503.33 1669.53,503.33 1666.71,497.43 C1663.68,491.56 1663.68,491.56 1660.61,485.71 C1657.35,479.91 1657.35,479.91 1654.05,474.13 C1650.55,468.42 1650.55,468.42 1647.02,462.74 C1643.30,457.15 1643.31,457.15 1639.55,451.58 C1635.63,446.14 1635.63,446.14 1631.67,440.72 C1627.54,435.45 1627.54,435.45 1623.37,430.20 C1619.06,425.11 1619.06,425.11 1614.71,420.06 C1610.21,415.19 1610.21,415.19 1605.68,410.36 C1601.02,405.72 1601.02,405.72 1596.33,401.11 C1591.54,396.72 1591.53,396.72 1586.70,392.36 C1581.79,388.21 1581.79,388.21 1576.84,384.10 C1571.82,380.23 1571.82,380.23 1566.76,376.40 C1561.66,372.81 1561.66,372.81 1556.52,369.25 C1552.33,366.57 1552.33,366.57 1548.12,363.92 "/><path d="M1632.73,340.97 C1638.94,346.54 1638.94,346.54 1645.08,352.18 C1651.09,358.21 1651.09,358.22 1657.03,364.32 C1662.81,370.78 1662.81,370.78 1668.52,377.30 C1674.03,384.13 1674.03,384.14 1679.47,391.03 C1684.66,398.19 1684.66,398.19 1689.78,405.41 C1694.63,412.86 1694.63,412.86 1699.41,420.36 C1703.88,428.03 1703.87,428.04 1708.28,435.75 C1710.29,439.62 1710.29,439.62 1712.25,443.52 "/><path d="M1643.17,766.37 C1649.79,762.35 1649.80,762.35 1656.37,758.24 C1660.17,755.50 1660.17,755.50 1663.91,752.67 C1667.42,749.53 1667.43,749.52 1670.87,746.31 C1674.04,742.80 1674.04,742.79 1677.14,739.22 "/><path d="M503.95,1085.44 L647.41,997.18 L780.54,1155.53 L789.79,1154.57 "/><path d="M637.09,1243.79 L780.54,1155.53 "/><path d="M647.41,997.18 L648.09,904.14 "/><path d="M684.41,661.54 L746.83,698.32 "/><path d="M988.59,706.98 L988.11,706.62 "/><path d="M1026.62,518.68 L1032.64,514.90 L1031.02,516.04 "/><path d="M1239.54,555.87 L1238.84,555.32 "/><path d="M1153.56,441.48 L1155.10,440.40 L1148.29,444.72 "/><path d="M1361.22,478.18 L1360.46,477.59 "/><path d="M1273.61,994.20 L1278.64,991.06 "/><path d="M1711.03,725.04 L1705.29,728.57 "/><path d="M1404.75,913.35 L1399.45,916.54 "/><path d="M1609.62,325.13 L1621.31,332.67 L1632.73,340.97 "/></g></g><g id="paperID" visibility="hidden" opacity="0.00" transform="scale(0.000100)"><path style="stroke:#000000;stroke-width:0.500;fill:#e6e6e6;fill-rule:evenodd" d="M-2000.00,-2000.00L4000.00,-2000.00L4000.00,3700.00L-2000.00,3700.00zM0.00,0.00L2000.00,0.00L2000.00,1700.00L0.00,1700.00z"/><path style="fill:#000000;fill-opacity:0.118" d="M3.00,1700.00L2000.00,1700.00L2000.00,3.00L2003.00,3.00L2003.00,1703.00L3.00,1703.00z"/></g><g id="ToolTip" visibility="hidden" opacity="0" transform="translate(0,0)"><rect id="ToolTipShadow" opacity="0.20" fill="black" stroke="none" x="0" y="0" width="30" height="8"/><rect id="ToolTipBG" fill="#ffffe1" stroke="black" x="0" y="0" width="30" height="8"/><text xml:space="preserve" id="ToolTipText" fill="black" x="0" y="0" width="30" height="8">tooltip</text></g></g></svg>
