<?xml version="1.0" encoding="UTF-8" standalone="no"?>
<svg xmlns="http://www.w3.org/2000/svg" xmlns:xlink="http://www.w3.org/1999/xlink" width="2000.000mm" height="1700.000mm" viewBox="0.000000 0.000000 2000.000000 1700.000000" stroke-linejoin="round" stroke-linecap="round" fill="none" fill-rule="evenodd"><desc>Composer Export</desc><script type="text/ecmascript"><![CDATA[
if(typeof(top) != "undefined")
{
	top.ShowPaper = ShowPaper;
}
function ShowHotSpot(evt,hotspotid)
{
	var svgDocument = evt.target.ownerDocument;
	var strId = "hotspot."+hotspotid;
	var hotspot = svgDocument.getElementById(strId);
	if(hotspot)
		hotspot.setAttribute("opacity",".5");
}
function HideHotSpot(evt,hotspotid)
{
	var svgDocument = evt.target.ownerDocument;
	var strId = "hotspot."+hotspotid;
	var hotspot = svgDocument.getElementById(strId);
	if(hotspot)
		hotspot.setAttribute("opacity","0");

	var toolTip = svgDocument.getElementById('ToolTip');
	if(toolTip)
		toolTip.setAttribute("visibility","hidden");
}
function ShowToolTip(evt,hotspotid,strTooltip)
{
	if(strTooltip=="")
	return;

	// change text
	var svgDocument = evt.target.ownerDocument;
	var tiptext = svgDocument.getElementById('ToolTipText');
	if( !tiptext )
	return;
	tiptext.firstChild.nodeValue = " " + strTooltip + "  " ;

	// show tooltip before, else some refresh issue

	var toolTip = svgDocument.getElementById('ToolTip');
	if(!toolTip)
	return;

	toolTip.setAttribute("visibility","visible");
	toolTip.setAttribute("opacity",".95");

	// move tooltip
	// get viewbox

	var root = svgDocument.documentElement;
	var vbox = (root.getAttribute("viewBox")).split(' ');
	var x0 = parseFloat(vbox[0]);
	var y0 = parseFloat(vbox[1]);
	var vboxW = parseFloat(vbox[2]);
	var vboxH = parseFloat(vbox[3]);

	// get default width of svg

	var strW = root.getAttribute("width");
	var svgW = parseFloat(strW);
	if(strW.indexOf('mm') != -1)
	svgW *= 3.779;

	var strH = root.getAttribute("height");
	var svgH = parseFloat(strH);
	if(strH.indexOf('mm') != -1)
	svgH *= 3.779;  	// 96 dpi  -> 96/25.4 = 3.779

	// update the viewbox / width / height if svg is embedded in html with zoom fit all
	var realx0 = x0;
	var realy0 = y0;
	var realvboxW = vboxW;
	var realvboxH = vboxH;
	var realsvgW = svgW;
	var realsvgH = svgH;

	if ((typeof(top) == "undefined") || (typeof(top.svgctl1) != "undefined")) // embedded in html
	{
		// get window size in pxl

		svgW = window.innerWidth;
		svgH = window.innerHeight;

		// calculate real viewbox

		realsvgW = svgW;
		realsvgH = svgH;
		if((svgW / svgH) > (vboxW / vboxH))
		{
			realvboxW = (vboxH * svgW) / svgH;
			realvboxH = vboxH;
			realx0 = x0 - (realvboxW - vboxW)/2 ;
		}
		else
		{
			realvboxH = (vboxW * svgH) / svgW;
			realvboxW = vboxW;
			realy0 = y0 - (realvboxH - vboxH)/2 ;
		}
	}

	// get user zoom/pan

	var newScale = root.currentScale;
	var translation = root.currentTranslate;

	// transform pxl to user unit

	var xPos = (((evt.clientX+10- translation.x)/newScale) * realvboxW)/realsvgW  + realx0 ;
	var yPos = (((evt.clientY+5- translation.y)/newScale) * realvboxH)/ realsvgH  + realy0 ;
	var scaleForWidth = ( (1 / newScale) * realvboxH) / realsvgH;

	// move tooltip

	toolTip.setAttribute("transform", "translate(" + xPos + "," + yPos + ")" );

	// resize tooltip

	var fontsize = 12;
	tiptext.setAttribute("font-size",fontsize*scaleForWidth);
	tiptext.setAttribute("y", fontsize*scaleForWidth);
	var tipBG = svgDocument.getElementById('ToolTipBG');
	var outline = tiptext.getBBox();
	if(tipBG)
	{
		tipBG.setAttribute("stroke-width", 1*scaleForWidth);
		tipBG.setAttribute("width", Number(outline.width) );
		tipBG.setAttribute("height", Number(outline.height) + fontsize*.5*scaleForWidth );
	}
	var ToolTipShadow = svgDocument.getElementById('ToolTipShadow');
	if(ToolTipShadow)
	{
		ToolTipShadow.setAttribute("width", Number(outline.width) );
		ToolTipShadow.setAttribute("height", Number(outline.height) + fontsize*.5*scaleForWidth );
		ToolTipShadow.setAttribute("x", 3*scaleForWidth);
		ToolTipShadow.setAttribute("y", 3*scaleForWidth);
	}
}
function ShowPaper()
{
  var svgDocument = getDocument();
  var paper = svgDocument.getElementById("paperID");
  if(paper)
  {
    paper.setAttribute("transform","scale(1)");
    paper.setAttribute("opacity","1");
    paper.setAttribute("visibility","visible");
  }
  var svg = svgDocument.getRootElement();
  if(svg)
  {
    svg.setAttribute("width","2010.000mm");
    svg.setAttribute("height","1710.000mm");
    svg.setAttribute("viewBox","-5.000000 -5.000000 2010.000000 1710.000000");
  }
}
]]></script><defs/><g><path style="fill:#ffffff" d="M1999.44,1699.60L0.38,1699.60L0.38,0.38L1999.44,0.38z"/><path style="fill:#000020" d="M458.96,601.06L457.40,602.07L458.33,595.84z"/><path style="fill:#a0a0a0" d="M524.48,480.29L522.45,495.53L522.45,546.30L523.20,551.43L524.29,559.47L529.30,579.87L538.28,601.39L549.10,620.08L549.20,622.47L538.97,629.36L537.17,629.37L476.02,593.62L473.07,593.63L458.96,601.06L458.33,595.84L460.21,584.40L464.51,566.15L475.60,539.13L486.34,519.37L498.39,502.20L511.07,486.93L523.96,472.96L524.90,472.48z"/><path style="fill:#2f3a96" d="M973.19,256.94L1001.15,259.45L1020.26,261.99L1043.18,265.82L1052.82,267.25L1096.04,277.41L1145.59,293.93L1177.36,307.89L1205.29,323.16L1234.49,342.24L1258.66,361.27L1266.41,368.77L1284.20,387.82L1302.01,411.93L1313.31,432.40L1324.81,460.29L1326.60,471.43L1327.71,474.10L1327.95,476.42L1328.68,481.55L1329.27,485.33L1329.98,490.45L1330.54,500.55L1330.57,545.09L1328.55,561.14L1320.92,587.82L1312.04,606.89L1302.37,622.27L1301.22,623.72L1299.34,627.26L1282.80,647.54L1272.76,657.82L1250.55,677.54L1228.33,693.43L1206.17,706.85L1168.04,725.90L1132.52,739.92L1090.63,752.67L1053.31,760.78L1045.69,762.04L1031.71,764.58L1002.42,768.39L975.72,770.93L950.32,772.19L886.79,771.50L856.29,768.98L834.71,766.41L810.64,762.60L796.70,760.06L790.28,758.78L752.91,750.13L723.14,740.77L722.45,736.07L721.75,735.80L572.51,649.74L557.33,631.88L551.05,622.67L549.89,620.27L549.10,620.08L538.28,601.39L529.30,579.87L524.29,559.47L523.20,551.43L523.02,546.74L522.45,546.30L522.45,495.53L524.48,480.29L524.90,472.48L535.70,440.41L544.08,423.38L554.92,406.27L566.39,391.06L573.97,382.12L585.39,369.40L611.56,347.28L643.34,325.70L672.54,309.17L704.30,295.19L743.70,281.22L786.46,270.35L811.95,265.27L846.12,260.16L870.27,257.63L889.33,256.36L951.59,255.67z"/><path style="fill:#a0a0a0" d="M1333.74,478.04L1352.85,499.58L1370.61,526.29L1383.18,551.84L1390.72,574.79L1392.75,584.47L1393.50,588.21L1394.05,592.11L1394.80,595.86L1395.33,602.19L1396.03,613.71L1395.36,720.42L1392.07,742.82L1385.67,763.11L1373.02,789.85L1359.75,810.88L1344.66,828.82L1334.37,840.14L1316.59,856.66L1306.94,864.81L1306.36,870.27L1307.11,875.43L1306.41,897.04L1305.85,902.10L1301.86,921.97L1292.96,944.83L1286.52,954.91L1285.49,990.97L1281.61,1012.26L1276.08,1027.06L1264.64,1049.92L1248.50,1071.90L1230.83,1089.80L1209.20,1107.56L1186.40,1122.87L1164.23,1135.01L1132.90,1149.42L1098.21,1161.74L1071.53,1169.36L1035.05,1177.35L991.85,1183.70L960.96,1185.84L890.21,1185.84L858.45,1183.30L822.87,1178.22L780.86,1169.40L739.00,1156.64L716.16,1147.71L685.63,1133.77L655.27,1115.85L636.22,1101.87L615.89,1084.08L599.23,1065.17L584.03,1042.26L576.33,1027.08L569.96,1005.50L567.46,983.82L566.95,983.35L566.29,955.80L554.75,931.77L549.63,916.55L548.58,911.02L548.44,906.30L547.90,905.88L547.30,902.09L547.16,897.41L546.61,896.96L546.02,891.96L546.04,875.35L546.61,869.05L547.30,865.68L546.59,865.23L534.58,855.38L514.22,836.36L495.23,813.42L478.54,788.19L476.61,782.74L478.53,783.00L665.30,891.24L668.72,891.21L814.84,807.09L849.56,812.30L863.53,813.57L899.10,816.12L954.60,816.12L1002.02,812.71L1043.59,806.00L1080.71,797.38L1115.98,786.91L1150.69,773.34L1176.95,760.21L1206.20,743.73L1230.80,726.40L1252.19,708.41L1269.69,689.06L1285.36,666.61L1296.41,644.63L1302.71,626.33L1303.03,622.98L1302.37,622.27L1312.04,606.89L1320.92,587.82L1328.55,561.14L1330.57,545.09L1331.05,501.02L1330.54,500.55L1329.98,490.45L1329.82,485.75L1329.27,485.33L1328.68,481.55L1328.53,476.84L1327.95,476.42L1327.71,474.10L1328.82,473.71z"/><path style="fill:#272727" d="M569.96,1084.27L575.08,1100.75L585.30,1122.30L603.17,1148.89L619.70,1165.39L640.00,1183.22L658.94,1196.04L686.90,1212.54L717.43,1226.48L751.70,1239.22L783.41,1248.18L819.05,1255.73L863.53,1262.07L900.37,1264.61L949.52,1264.61L986.77,1262.48L1024.88,1257.39L1062.97,1249.73L1096.94,1240.51L1127.78,1229.42L1157.03,1216.75L1184.41,1202.20L1211.79,1183.84L1233.37,1166.03L1251.90,1145.18L1263.73,1129.05L1274.82,1108.39L1282.81,1084.60L1285.49,1068.48L1285.53,1289.62L1282.26,1308.67L1275.18,1329.81L1263.73,1350.12L1251.04,1367.93L1230.19,1389.01L1213.70,1403.01L1186.39,1421.44L1162.10,1435.27L1131.19,1448.82L1103.29,1459.04L1067.72,1469.21L1040.54,1474.79L1011.31,1479.91L978.28,1483.72L942.77,1485.54L929.99,1485.54L886.79,1484.27L869.00,1483.00L847.43,1480.47L828.36,1477.89L784.68,1469.25L749.16,1459.02L721.25,1448.82L690.73,1434.87L662.94,1419.46L638.73,1403.02L617.16,1383.93L600.62,1366.17L585.30,1343.37L575.06,1323.12L569.99,1305.31L568.93,1298.51L568.76,1293.81L568.21,1293.37L567.62,1288.37L567.47,1282.38L566.95,1281.92L566.95,1062.13L567.46,1062.60z"/><path style="fill:#ff9000" d="M537.17,629.37L538.97,629.36L549.20,622.47L551.05,622.67L557.33,631.88L572.51,649.74L721.75,735.80L722.50,793.77L723.14,740.77L752.91,750.13L790.28,758.78L796.70,760.06L810.64,762.60L834.71,766.41L856.29,768.98L886.79,771.50L950.32,772.19L975.72,770.93L1002.42,768.39L1031.71,764.58L1045.69,762.04L1053.31,760.78L1090.63,752.67L1132.52,739.92L1168.04,725.90L1206.17,706.85L1228.33,693.43L1250.55,677.54L1272.76,657.82L1282.80,647.54L1299.34,627.26L1301.22,623.72L1302.71,626.33L1296.41,644.63L1285.36,666.61L1269.69,689.06L1252.19,708.41L1230.80,726.40L1206.20,743.73L1176.95,760.21L1150.69,773.34L1115.98,786.91L1080.71,797.38L1043.59,806.00L1002.02,812.71L954.60,816.12L899.10,816.12L863.53,813.57L849.56,812.30L814.84,807.09L668.72,891.21L665.30,891.24L478.53,783.00L476.61,782.74L420.13,750.03L420.13,623.42L457.40,602.07L458.96,601.06L473.07,593.63L476.02,593.62z"/><path style="fill:#000020" d="M1328.82,473.71L1327.71,474.10L1326.60,471.43z"/><path style="fill:#000020" d="M1328.68,481.55L1327.95,476.42L1328.53,476.84z"/><path style="fill:#000020" d="M1329.98,490.45L1329.27,485.33L1329.82,485.75z"/><path style="fill:#000020" d="M1330.57,545.09L1330.54,500.55L1331.05,501.02z"/><path style="fill:#000020" d="M523.20,551.43L522.45,546.30L523.02,546.74z"/><path style="fill:#000020" d="M1393.50,588.21L1392.75,584.47L1393.34,584.91z"/><path style="fill:#000020" d="M1394.80,595.86L1394.05,592.11L1394.62,592.52z"/><path style="fill:#000020" d="M1396.03,613.71L1395.33,602.19L1395.84,602.66z"/><path style="fill:#000020" d="M551.05,622.67L549.20,622.47L549.10,620.08L549.89,620.27z"/><path style="fill:#000020" d="M1301.22,623.72L1302.37,622.27L1303.03,622.98L1302.71,626.33z"/><path style="fill:#000020" d="M723.14,740.77L722.50,793.77L721.75,735.80L722.45,736.07z"/><path style="fill:#000020" d="M546.61,869.05L546.59,865.23L547.30,865.68z"/><path style="fill:#000020" d="M1307.11,875.43L1306.36,870.27L1306.94,870.73z"/><path style="fill:#000020" d="M547.30,902.09L546.61,896.96L547.16,897.41z"/><path style="fill:#000020" d="M548.58,911.02L547.90,905.88L548.44,906.30z"/><path style="fill:#000020" d="M567.62,1288.37L566.95,1281.92L567.47,1282.38z"/><path style="fill:#000020" d="M568.93,1298.51L568.21,1293.37L568.76,1293.81z"/><path style="fill:#191919" d="M569.96,1005.50L576.33,1027.08L584.03,1042.26L599.23,1065.17L615.89,1084.08L636.22,1101.87L655.27,1115.85L685.63,1133.77L716.16,1147.71L739.00,1156.64L780.86,1169.40L822.87,1178.22L858.45,1183.30L890.21,1185.84L960.96,1185.84L991.85,1183.70L1035.05,1177.35L1071.53,1169.36L1098.21,1161.74L1132.90,1149.42L1164.23,1135.01L1186.40,1122.87L1209.20,1107.56L1230.83,1089.80L1248.50,1071.90L1264.64,1049.92L1276.08,1027.06L1281.61,1012.26L1285.49,990.97L1285.49,1068.48L1282.81,1084.60L1274.82,1108.39L1263.73,1129.05L1251.90,1145.18L1233.37,1166.03L1211.79,1183.84L1184.41,1202.20L1157.03,1216.75L1127.78,1229.42L1096.94,1240.51L1062.97,1249.73L1024.88,1257.39L986.77,1262.48L949.52,1264.61L900.37,1264.61L863.53,1262.07L819.05,1255.73L783.41,1248.18L751.70,1239.22L717.43,1226.48L686.90,1212.54L658.94,1196.04L640.00,1183.22L619.70,1165.39L603.17,1148.89L585.30,1122.30L575.08,1100.75L569.96,1084.27L567.46,1062.60L566.95,1062.13L566.95,983.35L567.46,983.82z"/><g id="Actor_.0"><g style="stroke:#000000;stroke-width:1.411"><path d="M458.21,599.55 C458.28,598.61 458.28,598.61 458.37,597.67 C459.86,588.84 459.78,588.82 461.38,580.03 C463.78,571.26 463.77,571.24 466.38,562.54 C470.69,551.73 470.70,551.72 475.21,540.99 C479.56,532.50 479.57,532.50 484.08,524.10 C489.39,515.79 489.40,515.78 494.86,507.57 C501.09,499.48 501.10,499.48 507.48,491.49 C514.62,483.65 514.66,483.68 521.89,475.92 C524.17,473.75 524.18,473.75 526.51,471.63 "/><path d="M720.73,861.35 C733.81,864.84 733.81,864.84 746.92,868.20 C761.28,871.39 761.28,871.39 775.67,874.45 C790.36,877.09 790.36,877.08 805.07,879.60 C820.02,881.67 820.02,881.67 834.98,883.63 C850.13,885.13 850.14,885.13 865.29,886.52 C880.58,887.44 880.58,887.44 895.87,888.26 C911.21,888.60 911.22,888.60 926.57,888.84 C941.92,888.60 941.92,888.60 957.27,888.26 C972.56,887.44 972.56,887.44 987.85,886.52 C1003.00,885.13 1003.01,885.13 1018.15,883.63 C1033.12,881.67 1033.12,881.67 1048.07,879.60 C1062.78,877.08 1062.78,877.09 1077.47,874.45 C1091.86,871.39 1091.86,871.39 1106.22,868.20 C1120.22,864.60 1120.23,864.60 1134.20,860.88 C1147.76,856.76 1147.77,856.76 1161.29,852.52 C1174.36,847.90 1174.36,847.90 1187.38,843.16 C1199.89,838.05 1199.89,838.05 1212.35,832.83 C1224.25,827.26 1224.26,827.26 1236.10,821.58 C1247.34,815.57 1247.35,815.57 1258.52,809.45 C1269.05,803.04 1269.06,803.04 1279.52,796.51 C1289.30,789.71 1289.31,789.71 1299.01,782.80 C1308.00,775.65 1308.01,775.65 1316.90,768.38 C1325.17,760.80 1325.18,760.79 1333.33,753.09 C1340.53,745.44 1340.53,745.44 1347.61,737.68 C1354.01,729.65 1354.02,729.65 1360.28,721.52 C1365.76,713.27 1365.77,713.27 1371.10,704.92 C1375.64,696.48 1375.65,696.47 1380.02,687.95 C1383.59,679.35 1383.60,679.34 1387.00,670.68 C1389.59,661.96 1389.60,661.95 1392.00,653.18 C1393.60,644.38 1393.61,644.36 1395.01,635.53 C1395.61,626.68 1395.62,626.66 1396.02,617.80 "/><path d="M1396.02,617.80 C1396.08,668.02 1396.08,668.10 1395.52,718.35 C1393.83,730.82 1393.71,730.86 1391.52,743.28 C1387.73,755.62 1387.71,755.66 1383.55,767.88 C1377.79,779.99 1377.77,780.02 1371.68,791.96 C1364.01,803.72 1363.99,803.74 1356.02,815.31 C1346.50,826.62 1346.47,826.63 1336.69,837.72 C1325.40,848.47 1325.38,848.48 1313.86,859.00 C1300.90,869.11 1300.88,869.12 1287.73,878.98 C1273.21,888.35 1273.19,888.36 1258.52,897.48 C1242.57,906.04 1242.55,906.04 1226.47,914.35 C1209.23,922.01 1209.22,922.01 1191.87,929.43 C1173.49,936.15 1173.48,936.14 1155.01,942.61 C1135.64,948.31 1135.63,948.31 1116.19,953.77 C1096.00,958.41 1095.99,958.41 1075.76,962.82 C1054.93,966.36 1054.92,966.36 1034.05,969.67 C1012.76,972.08 1012.75,972.08 991.43,974.27 C969.85,975.54 969.84,975.54 948.25,976.58 C926.57,976.69 926.57,976.59 904.89,976.58 C903.20,976.50 903.20,976.49 901.51,976.40 C881.61,975.33 881.60,975.44 861.71,974.27 C840.39,972.08 840.38,972.08 819.09,969.67 C798.22,966.36 798.21,966.36 777.38,962.82 C757.14,958.41 757.13,958.41 736.95,953.77 C717.51,948.31 717.50,948.31 698.13,942.61 C679.66,936.15 679.65,936.15 661.27,929.43 C643.92,922.01 643.90,922.01 626.66,914.35 C610.58,906.04 610.57,906.04 594.62,897.48 C579.94,888.36 579.93,888.35 565.41,878.98 C552.26,869.12 552.24,869.11 539.27,859.00 C527.76,848.48 527.74,848.47 516.45,837.72 C506.67,826.63 506.64,826.62 497.12,815.31 C489.15,803.74 489.20,803.69 481.46,791.96 C478.91,787.04 478.90,787.02 476.55,782.00 "/><path d="M524.10,485.20 C522.86,486.50 522.85,486.50 521.65,487.84 C515.53,495.59 515.48,495.56 509.46,503.38 C504.18,511.31 504.18,511.31 499.05,519.34 C494.69,527.46 494.68,527.46 490.47,535.66 C487.04,543.93 487.03,543.94 483.76,552.27 C481.26,560.70 481.26,560.72 478.94,569.20 C477.40,577.61 477.44,577.63 476.06,586.08 C475.79,589.82 475.78,589.83 475.63,593.58 "/><path d="M551.10,918.30 C553.36,926.10 553.37,926.13 555.92,933.83 C561.07,944.58 561.07,944.62 566.52,955.22 C573.51,965.64 573.54,965.67 580.82,975.89 C589.61,985.85 589.69,985.81 598.66,995.61 C602.13,998.76 602.19,998.70 605.71,1001.79 C612.79,1007.99 612.72,1008.09 619.87,1014.20 C631.98,1022.91 631.98,1022.94 644.23,1031.44 C657.78,1039.43 657.80,1039.43 671.49,1047.18 C686.36,1054.33 686.37,1054.33 701.36,1061.24 C717.40,1067.48 717.43,1067.41 733.54,1073.49 C737.97,1074.87 737.98,1074.83 742.42,1076.17 C755.07,1079.98 755.04,1080.08 767.71,1083.79 C785.58,1088.02 785.58,1088.03 803.50,1092.04 C822.01,1095.22 822.02,1095.22 840.56,1098.17 C859.51,1100.24 859.52,1100.24 878.50,1102.09 C897.70,1103.05 897.71,1103.05 916.93,1103.78 C936.19,1103.61 936.20,1103.61 955.46,1103.22 C974.58,1101.93 974.59,1101.91 993.70,1100.41 C1008.22,1098.56 1008.21,1098.46 1022.73,1096.52 C1026.99,1095.95 1026.99,1095.99 1031.24,1095.38 C1049.49,1091.82 1049.51,1091.89 1067.72,1088.18 C1085.25,1083.65 1085.26,1083.65 1102.74,1078.89 C1119.38,1073.36 1119.37,1073.31 1135.96,1067.60 C1141.99,1065.12 1141.97,1065.05 1147.98,1062.50 C1157.50,1058.46 1157.55,1058.55 1167.02,1054.43 C1181.37,1047.06 1181.37,1047.06 1195.62,1039.51 "/><path d="M1195.62,1037.23 C1181.14,1044.90 1181.13,1044.91 1166.53,1052.38 C1155.29,1057.25 1155.24,1057.15 1143.94,1061.91 C1139.42,1063.82 1139.44,1063.87 1134.90,1065.72 C1118.00,1071.47 1118.01,1071.54 1101.06,1077.12 C1083.25,1081.90 1083.24,1081.90 1065.36,1086.44 C1046.81,1090.14 1046.80,1090.13 1028.20,1093.59 C1009.10,1096.17 1009.09,1096.17 989.96,1098.51 C970.52,1099.93 970.51,1099.93 951.05,1101.12 C931.47,1101.38 931.46,1101.38 911.88,1101.41 C892.37,1100.51 892.36,1100.51 872.86,1099.38 C853.63,1097.32 853.62,1097.32 834.41,1095.03 C815.66,1091.85 815.65,1091.85 796.94,1088.43 C778.87,1084.16 778.86,1084.16 760.85,1079.64 C743.64,1074.32 743.63,1074.32 726.51,1068.76 C710.36,1062.45 710.34,1062.45 694.29,1055.89 C679.36,1048.66 679.34,1048.66 664.53,1041.18 C650.98,1033.11 650.96,1033.10 637.55,1024.78 C625.51,1015.95 625.49,1015.94 613.64,1006.87 C603.24,997.37 603.21,997.36 593.04,987.63 C584.39,977.56 584.36,977.55 575.98,967.27 C569.16,956.74 569.14,956.72 562.63,946.00 C557.72,935.12 557.70,935.09 553.14,924.06 C550.19,912.93 550.28,912.88 547.61,901.67 C546.81,895.72 546.84,895.70 546.19,889.74 C546.13,885.05 546.13,884.92 546.19,880.36 "/><path d="M546.19,880.36 C546.84,891.01 546.84,891.02 547.61,901.67 C548.31,906.80 548.30,906.81 549.12,911.93 C550.05,915.13 550.05,915.14 551.10,918.30 "/><path d="M567.23,956.25 C578.98,975.96 578.99,975.98 591.05,995.50 C598.55,1005.52 598.58,1005.53 606.35,1015.34 C615.63,1024.85 615.66,1024.86 625.16,1034.15 C636.11,1043.05 636.14,1043.06 647.27,1051.72 C659.77,1059.91 659.79,1059.91 672.44,1067.86 C686.35,1075.25 686.37,1075.25 700.40,1082.39 C715.56,1088.89 715.57,1088.89 730.83,1095.16 C747.08,1100.71 747.09,1100.71 763.41,1106.02 C780.56,1110.55 780.58,1110.52 797.78,1114.85 C807.96,1116.85 807.98,1116.77 818.18,1118.68 C825.87,1120.12 825.86,1120.19 833.55,1121.56 C851.94,1123.89 851.94,1123.93 870.35,1126.08 C889.04,1127.33 889.05,1127.33 907.76,1128.35 C926.56,1128.46 926.57,1128.46 945.38,1128.35 C964.09,1127.33 964.10,1127.33 982.79,1126.08 C1001.20,1123.93 1001.20,1123.87 1019.59,1121.56 C1024.95,1120.61 1024.94,1120.56 1030.30,1119.55 C1042.83,1117.20 1042.86,1117.30 1055.36,1114.85 C1072.56,1110.53 1072.58,1110.55 1089.73,1106.02 C1106.05,1100.71 1106.03,1100.63 1122.31,1095.16 C1125.56,1093.84 1125.55,1093.80 1128.79,1092.44 C1140.76,1087.42 1140.81,1087.52 1152.74,1082.39 C1166.76,1075.23 1166.78,1075.23 1180.69,1067.86 "/><path d="M1180.69,1126.55 C1166.50,1133.98 1166.49,1133.98 1152.24,1141.31 C1148.12,1143.10 1148.09,1143.04 1143.94,1144.78 C1132.58,1149.51 1132.61,1149.62 1121.21,1154.25 C1104.66,1159.83 1104.65,1159.85 1088.02,1165.20 C1070.56,1169.75 1070.54,1169.69 1053.03,1174.05 C1046.78,1175.26 1046.76,1175.19 1040.50,1176.34 C1028.50,1178.53 1028.51,1178.62 1016.50,1180.72 C997.77,1183.00 997.76,1183.03 979.01,1185.10 C959.21,1186.25 959.20,1186.23 939.39,1187.14 C921.03,1187.11 921.02,1187.12 902.67,1186.86 C883.67,1185.66 883.66,1185.66 864.69,1184.22 C846.04,1181.86 846.02,1181.86 827.41,1179.27 C809.31,1175.78 809.30,1175.78 791.25,1172.05 C773.91,1167.47 773.90,1167.47 756.63,1162.66 C740.24,1157.05 740.23,1157.04 723.93,1151.19 C710.41,1145.36 710.45,1145.25 696.97,1139.30 C695.25,1138.54 695.24,1138.57 693.53,1137.79 C679.64,1130.21 679.57,1130.31 665.77,1122.59 C653.29,1114.31 653.27,1114.30 640.96,1105.78 C630.09,1096.78 630.06,1096.77 619.39,1087.54 C610.24,1077.93 610.21,1077.91 601.30,1068.07 C593.97,1057.96 593.94,1057.93 586.90,1047.61 C581.47,1037.10 581.44,1037.06 576.35,1026.38 C572.87,1015.58 572.85,1015.54 569.76,1004.63 C568.29,993.66 568.34,993.61 567.21,982.59 C567.15,969.62 567.15,969.58 567.38,956.63 "/><path d="M1180.69,1028.61 C1166.54,1036.11 1166.52,1036.12 1152.24,1043.38 C1136.79,1049.97 1136.77,1049.97 1121.21,1056.32 C1104.66,1061.92 1104.65,1061.92 1088.02,1067.27 C1070.56,1071.81 1070.55,1071.81 1053.03,1076.11 C1034.79,1079.57 1034.78,1079.57 1016.50,1082.78 C997.77,1085.09 997.76,1085.09 979.01,1087.16 C959.97,1088.31 959.96,1088.31 940.92,1089.22 C921.80,1089.19 921.79,1089.19 902.67,1088.93 C883.67,1087.72 883.66,1087.72 864.69,1086.29 C846.04,1083.93 846.02,1083.93 827.41,1081.33 C809.31,1077.84 809.30,1077.84 791.25,1074.12 C773.91,1069.54 773.93,1069.46 756.63,1064.72 C753.30,1063.60 753.31,1063.56 750.00,1062.40 C736.97,1057.83 736.92,1057.94 723.93,1053.26 C708.69,1046.66 708.67,1046.68 693.53,1039.85 C679.59,1032.38 679.57,1032.38 665.77,1024.65 C653.29,1016.37 653.27,1016.37 640.96,1007.84 C630.09,998.85 630.08,998.82 619.39,989.60 C612.63,982.53 612.73,982.43 606.06,975.26 C603.68,972.70 603.62,972.74 601.30,970.14 C594.05,959.96 593.94,960.00 586.90,949.68 C581.47,939.16 581.44,939.13 576.35,928.45 C572.87,917.65 572.85,917.61 569.76,906.69 C568.29,895.72 568.44,895.68 567.21,884.66 C567.17,882.40 567.17,882.39 567.21,880.13 "/><path d="M1328.99,485.14 C1330.26,486.47 1330.26,486.47 1331.49,487.84 C1337.60,495.59 1337.66,495.56 1343.68,503.38 C1348.95,511.31 1348.96,511.31 1354.09,519.34 C1358.45,527.46 1358.46,527.46 1362.66,535.66 C1366.10,543.93 1366.11,543.94 1369.37,552.27 C1371.88,560.70 1371.88,560.72 1374.20,569.20 C1375.73,577.61 1375.73,577.63 1377.08,586.08 C1377.55,592.80 1377.46,592.82 1377.85,599.55 C1377.95,601.34 1377.98,601.34 1378.05,603.13 C1377.60,611.65 1377.66,611.66 1377.08,620.18 C1375.73,628.67 1375.73,628.69 1374.19,637.15 C1371.87,645.58 1371.87,645.60 1369.37,653.98 C1366.11,662.31 1366.10,662.33 1362.67,670.59 C1358.46,678.79 1358.45,678.80 1354.09,686.91 C1348.96,694.94 1348.91,694.91 1343.68,702.88 C1342.56,704.36 1342.53,704.34 1341.39,705.80 C1336.44,712.11 1336.49,712.16 1331.49,718.41 C1324.58,725.98 1324.58,725.99 1317.56,733.46 C1309.82,740.76 1309.81,740.76 1301.96,747.94 C1293.41,754.93 1293.40,754.93 1284.75,761.81 C1275.43,768.46 1275.42,768.46 1266.01,774.99 C1255.95,781.28 1255.94,781.28 1245.81,787.44 C1235.07,793.33 1235.05,793.31 1224.25,799.10 C1218.61,801.82 1218.59,801.78 1212.94,804.46 C1207.17,807.19 1207.19,807.23 1201.41,809.92 C1189.42,814.93 1189.43,814.95 1177.40,819.86 C1164.88,824.42 1164.87,824.42 1152.31,828.87 C1139.30,832.95 1139.30,832.94 1126.25,836.91 C1112.82,840.48 1112.81,840.48 1099.34,843.95 C1087.56,846.56 1087.55,846.51 1075.76,849.07 C1073.72,849.51 1073.73,849.53 1071.69,849.96 C1057.56,852.45 1057.56,852.49 1043.42,854.91 C1029.04,856.90 1029.04,856.90 1014.65,858.78 C1000.08,860.23 1000.08,860.23 985.50,861.56 C970.80,862.45 970.80,862.45 956.10,863.23 C941.34,863.57 941.33,863.57 926.57,863.79 C911.81,863.57 911.80,863.57 897.04,863.23 C882.34,862.45 882.34,862.45 867.64,861.56 C853.06,860.23 853.06,860.23 838.49,858.78 C824.10,856.90 824.09,856.90 809.72,854.91 C795.57,852.49 795.57,852.49 781.45,849.96 C766.60,846.75 766.60,846.75 751.79,843.42 "/><path d="M1180.69,1126.55 C1193.55,1118.47 1193.57,1118.46 1206.27,1110.12 C1217.55,1101.30 1217.58,1101.29 1228.67,1092.22 C1238.26,1082.75 1238.29,1082.74 1247.65,1073.04 C1255.45,1063.04 1255.48,1063.02 1262.99,1052.81 C1268.91,1042.38 1268.93,1042.35 1274.52,1031.75 C1278.49,1021.01 1278.51,1020.97 1282.11,1010.10 C1284.08,999.16 1284.11,999.12 1285.67,988.11 C1285.80,972.20 1285.80,972.15 1285.49,956.25 "/><path d="M1285.49,956.25 C1282.80,961.00 1282.79,961.02 1279.92,965.66 C1271.96,975.83 1271.99,975.88 1263.83,985.88 C1254.18,995.58 1254.15,995.59 1244.28,1005.06 C1232.97,1014.14 1232.95,1014.15 1221.46,1023.00 C1208.63,1031.37 1208.61,1031.38 1195.62,1039.51 "/><path d="M1180.69,1067.86 C1193.34,1059.89 1193.35,1059.89 1205.86,1051.72 C1213.47,1045.82 1213.41,1045.73 1220.95,1039.73 C1224.46,1036.94 1224.52,1037.00 1227.98,1034.15 C1237.43,1024.80 1237.51,1024.85 1246.79,1015.34 C1254.56,1005.53 1254.58,1005.51 1262.09,995.50 C1271.14,980.68 1271.16,980.66 1279.92,965.66 "/><path d="M1180.69,1028.61 C1193.55,1020.53 1193.57,1020.52 1206.27,1012.19 C1217.55,1003.36 1217.58,1003.35 1228.67,994.28 C1238.26,984.82 1238.29,984.80 1247.65,975.11 C1255.45,965.11 1255.48,965.09 1262.99,954.87 C1268.91,944.45 1268.93,944.42 1274.52,933.82 C1278.49,923.08 1278.51,923.03 1282.11,912.17 C1284.08,901.23 1284.00,901.18 1285.67,890.18 C1285.78,885.28 1285.78,885.25 1285.67,880.36 "/><path d="M1195.62,1037.23 C1208.82,1028.97 1208.83,1028.96 1221.86,1020.44 C1233.50,1011.43 1233.52,1011.42 1244.97,1002.17 C1254.94,992.53 1254.96,992.51 1264.70,982.63 C1272.19,973.35 1272.07,973.24 1279.43,963.84 C1280.14,962.93 1280.17,962.95 1280.85,962.03 C1287.07,951.32 1287.22,951.38 1293.25,940.57 C1297.67,929.62 1297.69,929.58 1301.75,918.49 C1304.20,907.32 1304.21,907.27 1306.28,896.03 "/><path d="M1306.28,896.03 C1306.19,898.44 1306.19,898.45 1305.97,900.85 C1303.60,911.90 1303.72,911.95 1301.10,922.93 C1296.93,933.82 1296.86,933.83 1292.39,944.60 C1289.06,950.48 1289.05,950.51 1285.49,956.25 "/><path d="M1396.02,617.80 C1395.49,607.73 1395.49,607.72 1394.77,597.67 C1393.36,588.84 1393.36,588.82 1391.76,580.03 C1389.36,571.26 1389.36,571.24 1386.76,562.54 C1382.45,551.73 1382.43,551.72 1377.93,540.99 C1373.58,532.50 1373.57,532.50 1369.05,524.10 C1363.75,515.79 1363.74,515.78 1358.28,507.57 C1352.05,499.48 1352.04,499.48 1345.66,491.49 C1338.52,483.65 1338.48,483.68 1331.25,475.92 C1328.97,473.76 1328.97,473.75 1326.64,471.64 "/><path d="M458.29,599.12 L458.00,602.22 "/><path d="M1195.62,1039.51 L1195.62,1037.23 "/><path d="M546.19,880.36 L546.10,879.06 L547.46,865.26 "/><path d="M546.10,879.06 L547.63,865.39 "/><path d="M1180.69,1067.86 L1180.69,1126.55 "/><path d="M1180.69,933.48 L1180.69,1028.61 "/><path d="M1285.49,956.25 L1285.58,956.10 "/><path d="M1306.28,896.03 L1306.79,873.41 L1306.95,878.61 L1306.29,895.54 "/><path d="M1306.79,873.41 L1305.53,865.38 "/><path d="M1394.92,599.55 L1394.85,599.12 "/></g></g><g id="Actor_.1"><g style="stroke:#000000;stroke-width:1.411"><path d="M580.66,654.22 C578.31,651.97 578.31,651.97 575.98,649.70 C572.52,646.10 572.52,646.11 569.09,642.48 C565.85,638.82 565.85,638.82 562.64,635.13 C559.63,631.41 559.63,631.40 556.66,627.65 C553.87,623.87 553.87,623.87 551.13,620.06 C548.58,616.22 548.58,616.22 546.07,612.35 C543.75,608.46 543.75,608.46 541.48,604.55 C539.40,600.62 539.40,600.62 537.37,596.66 C535.54,592.69 535.54,592.68 533.75,588.69 C532.16,584.68 532.16,584.68 530.62,580.65 C529.27,576.61 529.27,576.61 527.98,572.55 C526.88,568.49 526.88,568.49 525.83,564.41 C524.99,560.32 524.99,560.32 524.19,556.22 C523.59,552.12 523.59,552.12 523.05,548.01 C522.70,543.90 522.70,543.90 522.41,539.78 C522.32,535.66 522.32,535.66 522.27,531.54 C522.43,514.71 522.44,514.71 522.62,497.89 C522.66,497.55 522.66,497.55 522.73,497.22 "/><path d="M522.66,500.89 C522.59,510.82 522.59,510.87 522.89,520.79 C524.79,532.20 524.79,532.24 527.05,543.58 C530.86,554.84 530.88,554.87 535.05,566.01 C540.77,577.02 540.79,577.05 546.83,587.89 C554.39,598.53 554.42,598.55 562.26,608.99 C571.60,619.16 571.62,619.17 581.20,629.12 C592.22,638.71 592.24,638.72 603.46,648.08 C616.06,657.00 616.08,657.01 628.84,665.69 C642.89,673.85 642.91,673.85 657.09,681.78 C672.44,689.10 672.46,689.10 687.93,696.19 C704.45,702.61 704.46,702.61 721.07,708.79 C738.58,714.23 738.60,714.23 756.19,719.45 C774.53,723.87 774.54,723.87 792.94,728.07 C811.94,731.44 811.95,731.44 830.99,734.57 C850.46,736.84 850.47,736.84 869.96,738.89 C889.70,740.05 889.71,740.05 909.47,740.98 C929.30,741.01 929.31,741.01 949.14,740.82 C968.88,739.74 968.88,739.74 988.60,738.42 C1008.04,736.23 1008.05,736.23 1027.46,733.80 C1046.42,730.52 1046.43,730.52 1065.35,727.01 C1083.65,722.67 1083.66,722.67 1101.91,718.10 C1119.37,712.74 1119.38,712.74 1136.77,707.16 C1153.23,700.85 1153.24,700.85 1169.61,694.31 "/><path d="M1169.61,719.98 C1175.25,717.48 1175.25,717.48 1180.86,714.91 C1191.65,709.54 1191.67,709.57 1202.40,704.10 C1212.52,698.34 1212.52,698.34 1222.57,692.45 C1231.95,686.28 1231.93,686.25 1241.26,679.99 C1244.23,677.75 1244.21,677.72 1247.16,675.45 C1252.77,671.13 1252.81,671.18 1258.38,666.81 C1266.15,659.94 1266.17,659.95 1273.85,652.97 C1280.77,645.81 1280.76,645.79 1287.59,638.53 C1291.07,634.26 1291.02,634.22 1294.46,629.91 C1296.99,626.74 1297.04,626.77 1299.53,623.56 C1304.61,615.89 1304.65,615.90 1309.61,608.15 C1313.78,600.30 1313.78,600.29 1317.78,592.36 C1320.98,584.36 1320.95,584.34 1324.01,576.28 C1324.99,572.76 1324.99,572.75 1325.86,569.20 "/><path d="M1325.86,569.20 C1324.51,574.80 1324.51,574.82 1323.00,580.39 C1319.98,588.43 1319.98,588.45 1316.79,596.43 C1312.80,604.33 1312.79,604.35 1308.64,612.17 C1303.69,619.90 1303.68,619.91 1298.58,627.55 C1292.70,635.06 1292.64,635.02 1286.67,642.47 C1285.39,643.89 1285.37,643.88 1284.06,645.28 C1277.26,652.43 1277.32,652.49 1270.46,659.58 C1262.86,666.49 1262.85,666.50 1255.14,673.29 C1246.71,679.88 1246.70,679.88 1238.18,686.34 C1228.97,692.57 1228.97,692.57 1219.68,698.67 C1209.73,704.51 1209.71,704.49 1199.71,710.22 C1194.57,712.85 1194.55,712.81 1189.39,715.39 C1183.89,718.16 1183.91,718.20 1178.38,720.92 C1167.11,725.87 1167.11,725.89 1155.80,730.73 C1143.96,735.22 1143.95,735.22 1132.07,739.59 C1119.72,743.59 1119.71,743.59 1107.32,747.47 C1094.52,750.95 1094.51,750.95 1081.67,754.32 C1068.48,757.27 1068.47,757.27 1055.25,760.10 C1041.73,762.51 1041.73,762.49 1028.19,764.80 C1021.68,765.68 1021.67,765.64 1015.15,766.49 C1007.89,767.43 1007.89,767.47 1000.62,768.38 C986.65,769.64 986.65,769.66 972.68,770.83 C958.60,771.54 958.60,771.54 944.51,772.13 C930.39,772.27 930.38,772.27 916.26,772.29 C902.15,771.85 902.15,771.85 888.05,771.29 C874.04,770.28 874.04,770.28 860.03,769.15 C846.19,767.57 846.18,767.57 832.35,765.87 C818.74,763.73 818.73,763.73 805.14,761.48 C791.82,758.79 791.82,758.79 778.53,755.98 C765.58,752.76 765.58,752.76 752.66,749.42 C740.14,745.68 740.15,745.64 727.66,741.82 C724.86,740.84 724.86,740.84 722.07,739.82 "/><path d="M522.62,497.89 C523.49,489.85 523.49,489.84 524.49,481.82 C526.04,473.65 526.01,473.63 527.73,465.49 C530.24,457.39 530.30,457.40 532.95,449.34 C534.33,445.86 534.35,445.87 535.79,442.41 C539.34,434.51 539.27,434.47 542.92,426.62 C547.36,418.85 547.37,418.84 551.97,411.16 C557.35,403.59 557.41,403.63 562.88,396.11 C565.00,393.35 564.99,393.34 567.14,390.60 C573.41,383.38 573.37,383.35 579.72,376.20 C586.81,369.22 586.82,369.22 594.02,362.35 C601.96,355.67 601.96,355.66 610.00,349.11 C621.08,341.11 621.09,341.11 632.27,333.24 C641.59,327.37 641.60,327.37 650.99,321.62 C661.01,316.15 661.01,316.15 671.09,310.80 C681.75,305.75 681.75,305.75 692.46,300.81 C703.70,296.21 703.71,296.21 715.00,291.73 C726.77,287.60 726.78,287.60 738.59,283.58 C750.83,279.94 750.84,279.94 763.12,276.42 C775.77,273.29 775.78,273.29 788.46,270.27 C801.46,267.66 801.46,267.66 814.49,265.17 C828.61,262.98 828.61,262.98 842.74,260.91 C855.98,259.42 855.98,259.42 869.23,258.03 C882.61,257.08 882.62,257.12 896.00,256.24 C898.76,256.15 898.76,256.17 901.51,256.10 C912.22,255.82 912.22,255.77 922.93,255.54 C936.40,255.70 936.40,255.69 949.87,255.94 C963.29,256.64 963.29,256.64 976.70,257.44 C989.99,258.68 990.00,258.68 1003.28,260.03 C1017.41,261.94 1017.41,261.94 1031.52,263.97 C1044.62,266.32 1044.63,266.32 1057.71,268.79 C1070.53,271.67 1070.54,271.67 1083.33,274.68 C1095.69,278.06 1095.69,278.05 1108.01,281.55 C1119.96,285.43 1119.96,285.43 1131.87,289.43 C1143.30,293.79 1143.31,293.79 1154.70,298.27 C1165.57,303.08 1165.58,303.08 1176.40,308.01 C1186.65,313.26 1186.66,313.26 1196.85,318.62 C1206.43,324.26 1206.44,324.26 1215.95,330.03 C1224.82,336.05 1224.79,336.11 1233.62,342.19 C1236.10,343.92 1236.11,343.90 1238.57,345.66 C1246.78,352.16 1246.82,352.13 1254.96,358.71 C1262.39,365.50 1262.40,365.50 1269.72,372.40 C1276.30,379.48 1276.32,379.47 1282.77,386.66 C1290.66,396.79 1290.67,396.80 1298.41,407.05 C1303.27,414.67 1303.26,414.69 1307.96,422.41 C1311.87,430.22 1311.82,430.25 1315.62,438.12 C1317.06,441.55 1317.05,441.56 1318.44,445.01 C1321.34,453.05 1321.41,453.04 1324.19,461.11 C1326.18,469.23 1326.16,469.24 1327.97,477.40 C1329.19,486.05 1329.23,486.06 1330.25,494.73 C1330.50,506.17 1330.58,506.20 1330.52,517.63 C1328.90,529.05 1328.89,529.09 1326.90,540.45 C1323.34,551.73 1323.33,551.77 1319.42,562.94 C1313.96,573.99 1313.94,574.02 1308.16,584.91 C1300.85,595.61 1300.82,595.63 1293.22,606.13 C1284.12,616.37 1284.10,616.38 1274.76,626.41 C1263.96,636.08 1263.94,636.09 1252.94,645.54 C1240.55,654.56 1240.53,654.56 1227.98,663.35 C1214.12,671.62 1214.11,671.62 1200.11,679.65 C1184.93,687.10 1184.91,687.10 1169.61,694.31 "/><path d="M573.41,650.03 C571.68,648.24 571.68,648.24 569.99,646.42 C563.78,639.04 563.72,639.07 557.59,631.62 C552.24,624.05 552.23,624.04 547.03,616.36 C542.62,608.59 542.61,608.58 538.36,600.71 C534.91,592.77 534.91,592.75 531.62,584.74 C529.72,578.68 529.72,578.67 527.98,572.55 "/><path d="M567.69,478.13 C567.72,480.40 567.65,480.40 567.74,482.67 C569.53,492.80 569.43,492.84 571.44,502.92 C574.83,512.93 574.85,512.96 578.55,522.86 C583.63,532.64 583.66,532.67 589.02,542.30 C595.74,551.76 595.77,551.78 602.74,561.06 C611.04,570.10 611.06,570.11 619.57,578.96 C629.37,587.48 629.39,587.49 639.36,595.81 C650.56,603.74 650.58,603.74 661.92,611.46 C674.41,618.72 674.42,618.72 687.03,625.76 C700.68,632.27 700.69,632.27 714.44,638.57 C729.13,644.28 729.14,644.28 743.90,649.77 C759.47,654.61 759.48,654.61 775.12,659.25 C791.43,663.18 791.43,663.18 807.79,666.91 C824.68,669.90 824.69,669.90 841.61,672.69 C858.91,674.71 858.92,674.71 876.25,676.53 C893.80,677.56 893.81,677.56 911.37,678.39 C929.00,678.42 929.01,678.42 946.64,678.25 C964.17,677.28 964.18,677.28 981.71,676.12 C998.99,674.16 999.00,674.16 1016.25,672.01 C1033.11,669.09 1033.12,669.09 1049.93,665.96 C1066.20,662.11 1066.21,662.11 1082.42,658.05 C1097.95,653.29 1097.96,653.29 1113.42,648.33 C1128.05,642.72 1128.06,642.72 1142.61,636.90 C1156.21,630.49 1156.22,630.49 1169.72,623.87 C1182.16,616.73 1182.17,616.73 1194.49,609.38 C1205.65,601.57 1205.67,601.57 1216.68,593.55 C1226.45,585.15 1226.47,585.15 1236.07,576.54 C1244.37,567.64 1244.40,567.62 1252.48,558.52 C1259.24,549.18 1259.26,549.17 1265.76,539.66 C1270.90,529.98 1270.92,529.95 1275.77,520.13 C1279.24,510.20 1279.26,510.17 1282.42,500.13 C1284.19,490.04 1284.20,490.00 1285.63,479.86 C1285.69,469.69 1285.69,469.65 1285.40,459.49 C1283.72,449.36 1283.71,449.32 1281.70,439.24 C1278.31,429.23 1278.29,429.20 1274.59,419.30 C1269.50,409.52 1269.48,409.49 1264.12,399.86 C1257.39,390.40 1257.37,390.38 1250.40,381.10 C1242.10,372.06 1242.08,372.05 1233.57,363.20 C1223.77,354.68 1223.75,354.67 1213.77,346.35 C1202.58,338.42 1202.56,338.42 1191.22,330.70 C1178.73,323.44 1178.71,323.44 1166.11,316.40 C1152.46,309.89 1152.44,309.89 1138.69,303.59 C1124.01,297.88 1124.00,297.88 1109.24,292.39 C1093.67,287.55 1093.66,287.55 1078.02,282.91 C1061.71,278.98 1061.70,278.98 1045.35,275.25 C1028.46,272.26 1028.45,272.26 1011.53,269.47 C994.23,267.45 994.22,267.45 976.89,265.63 C959.34,264.60 959.33,264.60 941.77,263.77 C924.14,263.74 924.13,263.74 906.50,263.91 C888.96,264.88 888.96,264.88 871.43,266.04 C854.15,268.00 854.14,268.00 836.88,270.15 C820.03,273.07 820.02,273.07 803.20,276.20 C786.94,280.05 786.93,280.05 770.71,284.11 C755.19,288.87 755.18,288.87 739.72,293.84 C725.09,299.44 725.08,299.44 710.53,305.26 C696.93,311.67 696.92,311.67 683.42,318.29 C670.98,325.43 670.97,325.43 658.65,332.78 C647.49,340.59 647.47,340.59 636.46,348.61 C626.68,357.01 626.66,357.01 617.07,365.62 C608.76,374.53 608.74,374.54 600.65,383.64 C593.90,392.98 593.88,392.99 587.38,402.50 C582.24,412.18 582.22,412.21 577.37,422.03 C573.90,431.96 573.88,431.99 570.72,442.03 C568.95,452.12 568.96,452.16 567.50,462.30 C567.45,470.20 567.60,470.21 567.69,478.13 "/><path d="M697.03,299.81 C699.60,300.15 699.64,300.16 702.19,300.65 C704.97,301.90 704.97,301.94 707.71,303.30 C709.14,304.25 709.14,304.25 710.53,305.26 "/><path d="M1169.61,719.98 C1163.84,722.41 1163.84,722.41 1158.06,724.82 C1152.14,727.13 1152.14,727.13 1146.21,729.41 C1140.16,731.61 1140.16,731.61 1134.10,733.77 C1127.92,735.83 1127.91,735.83 1121.72,737.87 C1115.42,739.81 1115.42,739.81 1109.11,741.72 C1102.69,743.53 1102.69,743.53 1096.26,745.31 C1089.74,746.99 1089.74,746.99 1083.20,748.64 C1076.58,750.18 1076.58,750.18 1069.95,751.69 C1063.24,753.10 1063.24,753.10 1056.52,754.48 C1049.73,755.75 1049.73,755.75 1042.93,756.99 C1036.06,758.12 1036.06,758.12 1029.19,759.22 C1022.26,760.21 1022.26,760.21 1015.33,761.17 C1008.34,762.02 1008.34,762.02 1001.35,762.84 C994.32,763.54 994.32,763.54 987.28,764.22 C980.21,764.78 980.21,764.78 973.14,765.31 C966.04,765.73 966.03,765.73 958.93,766.12 C951.81,766.39 951.81,766.39 944.69,766.63 C937.56,766.76 937.56,766.76 930.42,766.85 C923.29,766.83 923.29,766.83 916.15,766.79 C909.02,766.62 909.02,766.62 901.90,766.43 C894.78,766.12 894.78,766.12 887.67,765.78 C880.58,765.33 880.58,765.33 873.49,764.84 C866.43,764.25 866.43,764.25 859.38,763.62 C852.36,762.88 852.36,762.88 845.35,762.11 C838.39,761.22 838.38,761.22 831.42,760.31 C824.52,759.28 824.52,759.28 817.61,758.23 C810.78,757.06 810.78,757.06 803.94,755.87 C797.18,754.56 797.18,754.56 790.42,753.23 C783.74,751.79 783.74,751.79 777.07,750.32 C770.49,748.74 770.48,748.74 763.91,747.14 C757.42,745.43 757.42,745.43 750.94,743.69 C744.57,741.85 744.57,741.85 738.20,739.98 C731.94,738.01 731.94,738.01 725.69,736.02 C721.53,734.60 721.53,734.60 717.38,733.15 "/><path d="M742.42,494.32 C741.84,492.92 741.80,492.93 741.25,491.53 C739.89,486.08 739.83,486.08 738.61,480.60 C738.17,475.11 738.16,475.08 737.91,469.58 C738.43,464.07 738.43,464.05 739.14,458.56 C740.61,453.15 740.62,453.13 742.27,447.77 C744.72,442.37 744.73,442.36 747.34,437.04 C750.70,431.85 750.70,431.82 754.23,426.74 C759.68,420.57 759.69,420.54 765.31,414.53 C772.06,408.79 772.08,408.78 778.98,403.22 C786.92,398.02 786.94,398.01 795.01,393.00 C804.02,388.42 804.05,388.44 813.15,384.03 C821.03,380.86 821.05,380.88 828.99,377.85 C837.38,375.18 837.39,375.18 845.82,372.63 C854.64,370.46 854.65,370.46 863.49,368.41 C872.63,366.78 872.64,366.78 881.80,365.26 C891.18,364.16 891.19,364.17 900.58,363.19 C910.09,362.65 910.10,362.65 919.62,362.22 C929.17,362.24 929.17,362.24 938.73,362.37 C948.22,362.95 948.23,362.95 957.71,363.64 C967.05,364.77 967.06,364.77 976.38,366.01 C985.47,367.68 985.47,367.68 994.53,369.46 C1003.28,371.65 1003.28,371.65 1011.99,373.95 C1020.33,376.65 1020.34,376.65 1028.64,379.46 C1036.39,382.61 1036.40,382.61 1044.11,385.87 C1051.30,389.46 1051.31,389.46 1058.44,393.17 C1064.96,397.16 1064.97,397.16 1071.41,401.27 C1077.20,405.62 1077.21,405.62 1082.90,410.09 C1087.89,414.75 1087.91,414.76 1092.79,419.53 C1096.94,424.47 1096.95,424.47 1100.97,429.51 C1104.23,434.66 1104.24,434.67 1107.36,439.91 C1109.70,445.22 1109.71,445.24 1111.89,450.63 C1113.30,456.06 1113.30,456.08 1114.52,461.56 C1114.97,467.05 1114.94,467.07 1115.23,472.58 C1114.98,475.35 1114.92,475.35 1114.61,478.13 C1114.30,480.86 1114.37,480.88 1114.00,483.60 C1112.48,489.05 1112.51,489.07 1110.84,494.48 C1108.41,499.83 1108.40,499.85 1105.80,505.12 C1102.43,510.31 1102.42,510.32 1098.91,515.42 C1094.65,520.39 1094.64,520.39 1090.26,525.26 C1085.15,529.95 1085.14,529.96 1079.93,534.54 C1074.02,538.91 1074.01,538.91 1068.02,543.17 C1061.38,547.18 1061.37,547.18 1054.66,551.06 C1047.36,554.66 1047.35,554.66 1039.99,558.13 C1032.10,561.28 1032.09,561.28 1024.15,564.31 C1015.75,566.98 1015.75,566.98 1007.31,569.53 C998.50,571.70 998.49,571.70 989.65,573.75 C980.50,575.38 980.50,575.38 971.34,576.90 C961.96,578.00 961.95,577.99 952.56,578.97 C943.05,579.51 943.04,579.51 933.52,579.94 C923.97,579.92 923.96,579.92 914.41,579.79 C904.92,579.21 904.91,579.21 895.43,578.52 C886.09,577.39 886.08,577.39 876.76,576.15 C867.67,574.48 867.67,574.48 858.60,572.70 C849.86,570.51 849.86,570.51 841.15,568.21 C832.84,565.52 832.83,565.52 824.56,562.72 C816.78,559.57 816.77,559.57 809.03,556.29 C801.84,552.70 801.83,552.70 794.70,548.99 C788.18,545.00 788.17,545.00 781.72,540.89 C775.94,536.54 775.93,536.54 770.24,532.07 C765.24,527.41 765.23,527.40 760.35,522.63 C756.20,517.70 756.19,517.69 752.17,512.65 C748.91,507.50 748.91,507.49 745.78,502.25 C744.04,498.32 744.10,498.28 742.42,494.32 "/><path d="M776.08,532.79 C771.74,528.73 771.73,528.73 767.48,524.57 C763.52,519.85 763.50,519.84 759.65,515.02 C756.53,510.09 756.52,510.08 753.54,505.07 C751.29,499.98 751.28,499.96 749.20,494.81 C747.85,489.61 747.85,489.59 746.68,484.35 "/><path d="M813.15,384.03 C813.76,384.56 813.77,384.56 814.35,385.13 C815.45,386.65 815.47,386.65 816.52,388.21 C817.30,390.04 817.31,390.05 818.02,391.91 C818.33,393.70 818.33,393.71 818.55,395.51 "/><path d="M818.55,395.51 C811.77,398.75 811.76,398.75 804.99,402.02 C804.01,402.58 804.01,402.59 803.03,403.17 C797.82,406.22 797.79,406.17 792.61,409.27 C787.03,413.17 787.02,413.17 781.52,417.18 C776.63,421.38 776.62,421.39 771.82,425.68 C768.63,429.09 768.67,429.14 765.53,432.59 C764.57,433.64 764.55,433.63 763.61,434.70 C760.27,439.39 760.22,439.37 756.97,444.13 C754.41,448.97 754.39,448.98 751.97,453.89 C750.23,458.86 750.22,458.87 748.65,463.89 C747.76,468.94 747.75,468.95 747.04,474.03 C747.01,479.11 747.02,479.13 747.16,484.21 C747.88,488.59 747.88,488.61 748.75,492.97 "/><path d="M774.88,531.86 C780.41,536.19 780.41,536.20 786.03,540.42 C792.28,544.40 792.29,544.41 798.62,548.28 C805.53,551.88 805.54,551.88 812.52,555.36 C820.04,558.54 820.04,558.54 827.61,561.61 C835.63,564.32 835.63,564.32 843.68,566.93 C852.13,569.16 852.14,569.16 860.62,571.28 C869.42,573.01 869.42,573.01 878.24,574.63 C887.28,575.83 887.29,575.83 896.35,576.93 C905.56,577.60 905.56,577.60 914.77,578.16 C924.04,578.29 924.05,578.29 933.32,578.31 C942.55,577.89 942.56,577.86 951.79,577.37 C954.45,577.10 954.45,577.08 957.10,576.79 C963.55,576.07 963.56,576.12 970.01,575.36 C978.90,573.87 978.90,573.88 987.78,572.30 C996.36,570.31 996.36,570.31 1004.92,568.21 C1013.10,565.73 1013.11,565.73 1021.26,563.14 C1028.96,560.20 1028.94,560.16 1036.62,557.15 C1037.25,556.86 1037.25,556.85 1037.88,556.54 C1044.37,553.42 1044.40,553.47 1050.86,550.29 C1057.37,546.52 1057.38,546.52 1063.82,542.63 C1069.63,538.50 1069.64,538.50 1075.37,534.26 "/><path d="M818.55,395.51 C825.83,392.61 825.84,392.61 833.15,389.79 C837.50,388.39 837.51,388.42 841.88,387.05 C845.26,385.99 845.25,385.96 848.64,384.93 C856.76,382.92 856.75,382.90 864.89,380.97 C873.30,379.41 873.30,379.41 881.73,377.95 C890.35,376.87 890.36,376.88 899.00,375.90 C907.76,375.31 907.77,375.32 916.54,374.83 C925.35,374.75 925.35,374.77 934.17,374.76 C936.78,374.88 936.78,374.90 939.39,375.04 C945.56,375.37 945.57,375.32 951.73,375.69 C960.39,376.61 960.40,376.60 969.05,377.61 C977.51,379.00 977.51,379.01 985.96,380.50 C992.99,382.10 992.98,382.15 1000.00,383.79 C1001.15,384.06 1001.15,384.05 1002.30,384.33 C1010.10,386.69 1010.12,386.65 1017.90,389.07 C1025.28,391.82 1025.29,391.82 1032.63,394.67 C1039.06,397.61 1039.07,397.62 1045.45,400.66 C1052.20,404.39 1052.21,404.39 1058.89,408.22 C1064.57,412.08 1064.57,412.09 1070.17,416.05 C1075.16,420.21 1075.17,420.22 1080.07,424.48 C1084.32,428.90 1084.33,428.91 1088.49,433.42 C1091.97,438.07 1091.96,438.08 1095.34,442.80 C1096.96,445.69 1096.91,445.72 1098.48,448.64 C1099.53,450.58 1099.57,450.57 1100.58,452.53 C1102.40,457.49 1102.44,457.49 1104.13,462.50 C1105.14,467.54 1105.14,467.56 1105.98,472.62 C1106.13,477.70 1106.12,477.72 1106.10,482.80 C1105.50,487.13 1105.49,487.15 1104.73,491.44 "/><path d="M1074.76,534.70 C1079.04,530.95 1079.05,530.94 1083.24,527.08 C1087.43,522.43 1087.44,522.42 1091.52,517.67 C1094.88,512.79 1094.89,512.78 1098.11,507.82 C1100.59,502.77 1100.60,502.76 1102.93,497.64 C1104.53,492.46 1104.53,492.44 1105.96,487.21 "/><path d="M1327.83,561.61 C1328.06,560.81 1328.06,560.80 1328.25,559.99 C1329.39,551.78 1329.48,551.78 1330.50,543.57 C1330.71,535.34 1330.64,535.33 1330.73,527.09 C1330.64,521.58 1330.64,521.58 1330.50,516.07 "/><path d="M1169.61,694.31 L1169.61,719.98 "/><path d="M527.09,569.20 L525.83,564.41 "/><path d="M692.46,300.81 L697.03,299.81 "/><path d="M1325.86,569.20 L1327.83,561.61 L1325.86,569.20 "/></g></g><g id="Actor_.2"><g style="stroke:#000000;stroke-width:1.411"><path d="M567.42,1282.59 C568.40,1292.71 568.40,1292.76 569.76,1302.83 C572.86,1313.75 572.87,1313.79 576.35,1324.59 C581.44,1335.27 581.47,1335.30 586.90,1345.82 C593.94,1356.14 593.97,1356.16 601.30,1366.28 C610.21,1376.12 610.24,1376.13 619.39,1385.74 C630.09,1395.00 630.11,1395.00 641.02,1404.02 C653.30,1412.53 653.32,1412.53 665.77,1420.80 C679.57,1428.52 679.59,1428.52 693.53,1435.99 C708.67,1442.82 708.68,1442.82 723.93,1449.40 C740.23,1455.25 740.24,1455.25 756.63,1460.86 C773.90,1465.68 773.91,1465.68 791.25,1470.26 C809.30,1473.98 809.31,1473.98 827.41,1477.47 C846.02,1480.07 846.04,1480.07 864.69,1482.43 C883.66,1483.87 883.67,1483.87 902.67,1485.07 C921.79,1485.33 921.80,1485.33 940.92,1485.36 C959.96,1484.45 959.97,1484.45 979.01,1483.31 C997.76,1481.23 997.77,1481.23 1016.50,1478.93 C1034.76,1475.72 1034.77,1475.72 1052.98,1472.27 C1070.52,1467.96 1070.50,1467.86 1088.02,1463.41 C1089.47,1462.95 1089.46,1462.93 1090.91,1462.46 C1106.06,1457.46 1106.11,1457.58 1121.21,1452.46 C1136.77,1446.11 1136.79,1446.11 1152.24,1439.52 C1166.52,1432.26 1166.54,1432.25 1180.69,1424.75 "/><path d="M1180.69,1204.68 C1166.17,1212.32 1166.16,1212.33 1151.52,1219.74 C1136.42,1226.18 1136.41,1226.18 1121.21,1232.38 C1104.66,1237.98 1104.65,1237.98 1088.02,1243.33 C1070.54,1247.88 1070.52,1247.88 1052.98,1252.19 C1034.77,1255.64 1034.74,1255.53 1016.50,1258.85 C1015.83,1258.93 1015.83,1258.93 1015.15,1259.00 C997.08,1261.12 997.09,1261.23 979.01,1263.23 C959.97,1264.37 959.96,1264.37 940.92,1265.28 C921.80,1265.25 921.79,1265.25 902.67,1264.99 C883.67,1263.79 883.67,1263.74 864.69,1262.35 C856.58,1261.34 856.59,1261.27 848.48,1260.20 C837.95,1258.79 837.93,1258.88 827.41,1257.39 C809.32,1253.87 809.30,1253.91 791.25,1250.18 C773.91,1245.60 773.91,1245.58 756.63,1240.78 C745.71,1237.06 745.74,1236.97 734.85,1233.15 C729.39,1231.23 729.36,1231.30 723.93,1229.32 C708.71,1222.68 708.67,1222.74 693.53,1215.91 C679.59,1208.44 679.57,1208.44 665.77,1200.72 C653.31,1192.45 653.30,1192.43 641.00,1183.93 C631.94,1176.45 632.02,1176.34 623.04,1168.75 C621.22,1167.21 621.18,1167.24 619.39,1165.66 C610.32,1155.97 610.21,1156.04 601.30,1146.20 C593.97,1136.09 593.94,1136.06 586.90,1125.74 C581.47,1115.23 581.44,1115.19 576.35,1104.51 C572.87,1093.71 572.85,1093.67 569.76,1082.76 C568.29,1071.78 568.29,1071.74 567.21,1060.72 "/><path d="M1180.69,1424.75 C1193.54,1416.65 1193.55,1416.64 1206.27,1408.33 C1213.78,1402.48 1213.71,1402.38 1221.16,1396.43 C1224.91,1393.43 1224.97,1393.49 1228.67,1390.42 C1238.21,1380.90 1238.29,1380.95 1247.65,1371.25 C1255.45,1361.25 1255.48,1361.23 1262.99,1351.02 C1268.91,1340.59 1268.93,1340.56 1274.52,1329.96 C1278.49,1319.22 1278.51,1319.18 1282.11,1308.31 C1284.08,1297.37 1284.22,1297.32 1285.67,1286.32 C1285.99,1176.31 1285.99,956.23 1285.67,1066.24 "/><path d="M1285.67,1066.24 C1284.03,1077.24 1284.03,1077.27 1282.11,1088.23 C1280.11,1094.37 1279.97,1094.34 1277.83,1100.45 C1276.17,1105.16 1276.28,1105.21 1274.52,1109.88 C1268.86,1120.45 1268.91,1120.51 1262.99,1130.94 C1255.48,1141.15 1255.45,1141.17 1247.65,1151.17 C1238.29,1160.87 1238.26,1160.88 1228.67,1170.35 C1217.58,1179.42 1217.55,1179.42 1206.27,1188.25 C1193.57,1196.58 1193.55,1196.60 1180.69,1204.68 "/><path d="M1180.69,1424.75 L1180.69,1204.68 "/><path d="M567.21,1060.72 L567.21,1280.80 L567.42,1282.59 "/></g></g><g id="Actor_.3"><g style="stroke:#000000;stroke-width:1.411"><path d="M567.21,982.59 C568.28,993.61 568.29,993.66 569.76,1004.63 C572.85,1015.54 572.87,1015.58 576.35,1026.38 C581.44,1037.06 581.47,1037.10 586.90,1047.61 C593.94,1057.93 593.97,1057.96 601.30,1068.07 C610.21,1077.91 610.24,1077.93 619.39,1087.54 C630.06,1096.77 630.11,1096.75 640.96,1105.78 C648.16,1110.79 648.23,1110.70 655.49,1115.63 C660.63,1119.11 660.59,1119.18 665.77,1122.59 C679.60,1130.26 679.59,1130.31 693.53,1137.79 C708.67,1144.61 708.68,1144.61 723.93,1151.19 C740.23,1157.05 740.24,1157.05 756.63,1162.66 C773.90,1167.47 773.91,1167.47 791.25,1172.05 C809.30,1175.78 809.31,1175.78 827.41,1179.27 C846.02,1181.86 846.04,1181.86 864.69,1184.22 C883.66,1185.66 883.67,1185.66 902.67,1186.86 C921.79,1187.13 921.79,1187.04 940.92,1187.15 C943.94,1187.02 943.94,1186.99 946.97,1186.83 C962.99,1185.96 963.00,1186.07 979.01,1185.10 C997.76,1183.02 997.77,1183.03 1016.50,1180.72 C1034.78,1177.50 1034.79,1177.50 1053.03,1174.05 C1070.55,1169.75 1070.56,1169.75 1088.02,1165.20 C1104.65,1159.85 1104.66,1159.83 1121.21,1154.25 C1132.61,1149.62 1132.58,1149.51 1143.94,1144.78 C1148.09,1143.04 1148.12,1143.10 1152.24,1141.31 C1166.49,1133.98 1166.50,1133.98 1180.69,1126.55 "/><path d="M1180.69,1204.68 C1166.17,1212.32 1166.16,1212.33 1151.52,1219.74 C1136.42,1226.18 1136.41,1226.18 1121.21,1232.38 C1104.66,1237.98 1104.65,1237.98 1088.02,1243.33 C1070.56,1247.87 1070.55,1247.87 1053.03,1252.18 C1034.79,1255.63 1034.77,1255.52 1016.50,1258.85 C1015.83,1258.93 1015.83,1258.93 1015.15,1259.00 C997.08,1261.12 997.09,1261.23 979.01,1263.23 C959.97,1264.37 959.96,1264.37 940.92,1265.28 C921.80,1265.25 921.79,1265.25 902.67,1264.99 C883.67,1263.79 883.67,1263.74 864.69,1262.35 C856.58,1261.34 856.59,1261.27 848.48,1260.20 C837.95,1258.79 837.93,1258.88 827.41,1257.39 C809.32,1253.87 809.30,1253.91 791.25,1250.18 C773.91,1245.60 773.90,1245.60 756.63,1240.78 C740.24,1235.17 740.23,1235.17 723.93,1229.32 C708.68,1222.74 708.67,1222.74 693.53,1215.91 C679.59,1208.44 679.57,1208.44 665.77,1200.72 C653.31,1192.45 653.29,1192.44 641.00,1183.93 C630.11,1174.92 630.08,1174.91 619.39,1165.66 C610.24,1156.05 610.21,1156.04 601.30,1146.20 C593.97,1136.09 593.94,1136.06 586.90,1125.74 C581.47,1115.23 581.44,1115.19 576.35,1104.51 C572.87,1093.71 572.90,1093.66 569.76,1082.76 C568.82,1075.96 568.82,1075.92 568.18,1069.10 "/><path d="M1180.69,1204.68 C1193.55,1196.60 1193.57,1196.58 1206.27,1188.25 C1217.55,1179.42 1217.58,1179.42 1228.67,1170.35 C1238.26,1160.88 1238.29,1160.87 1247.65,1151.17 C1255.45,1141.17 1255.48,1141.15 1262.99,1130.94 C1268.91,1120.51 1268.93,1120.48 1274.52,1109.88 C1278.49,1099.14 1278.51,1099.10 1282.11,1088.23 C1284.08,1077.29 1284.17,1077.24 1285.67,1066.24 C1285.95,1027.20 1285.95,1105.33 1285.67,988.11 "/><path d="M1285.67,988.11 C1284.09,999.11 1284.08,999.16 1282.11,1010.10 C1278.51,1020.97 1278.49,1021.01 1274.52,1031.75 C1268.93,1042.35 1268.79,1042.30 1262.99,1052.81 C1262.23,1053.88 1262.19,1053.86 1261.40,1054.91 C1254.52,1063.98 1254.64,1064.09 1247.65,1073.04 C1238.28,1082.73 1238.26,1082.75 1228.67,1092.22 C1217.58,1101.29 1217.55,1101.30 1206.27,1110.12 C1193.57,1118.46 1193.55,1118.47 1180.69,1126.55 "/><path d="M568.18,1069.10 L567.21,1060.72 L567.21,982.59 "/><path d="M1180.69,1126.55 L1180.69,1204.68 "/></g></g><g id="Actor_.4"><g style="stroke:#000000;stroke-width:1.411"><path d="M814.66,807.12 C832.80,809.98 832.81,809.98 850.99,812.62 C869.53,814.40 869.54,814.40 888.09,815.96 C906.84,816.64 906.85,816.64 925.60,817.11 C944.35,816.70 944.36,816.70 963.11,816.07 C981.68,814.57 981.69,814.57 1000.25,812.84 C1018.45,810.26 1018.45,810.22 1036.63,807.46 C1044.84,805.79 1044.83,805.72 1053.03,803.98 C1062.45,801.98 1062.48,802.06 1071.88,799.98 C1088.78,795.31 1088.80,795.34 1105.64,790.48 C1121.63,784.88 1121.65,784.88 1137.56,779.06 C1152.48,772.56 1152.47,772.52 1167.31,765.83 C1173.63,762.45 1173.64,762.45 1179.87,758.93 "/><path d="M1179.87,758.93 C1178.79,759.56 1178.78,759.56 1177.68,760.16 C1162.62,767.10 1162.66,767.20 1147.54,774.01 C1131.38,780.13 1131.37,780.13 1115.12,786.02 C1097.98,791.16 1097.97,791.16 1080.76,796.07 C1062.82,800.18 1062.81,800.18 1044.82,804.06 C1026.22,807.10 1026.21,807.10 1007.58,809.91 C988.65,811.84 988.64,811.84 969.70,813.54 C950.46,814.36 950.45,814.36 931.21,814.95 C911.97,814.63 911.96,814.63 892.72,814.09 C873.65,812.65 873.64,812.65 854.58,810.99 C835.87,808.44 835.86,808.44 817.18,805.67 "/><path d="M1204.55,745.03 C1217.32,736.43 1217.33,736.41 1229.93,727.55 C1240.80,718.46 1240.82,718.45 1251.49,709.12 C1260.71,699.44 1260.74,699.43 1269.71,689.53 C1277.18,679.36 1277.21,679.34 1284.40,668.97 C1290.05,658.41 1290.08,658.38 1295.40,647.66 C1299.17,636.81 1299.08,636.75 1302.61,625.81 C1303.12,622.96 1303.12,622.94 1303.47,620.07 "/><path d="M419.59,745.77 L419.59,743.75 L419.59,749.12 L423.67,751.47 "/><path d="M423.44,751.34 L484.85,786.79 L478.74,783.27 "/><path d="M419.59,743.75 L419.59,736.16 L419.59,743.75 "/><path d="M419.59,736.16 L419.59,675.45 L419.59,680.48 "/><path d="M419.59,675.45 L419.59,624.40 L420.15,624.08 "/><path d="M419.59,631.74 L425.94,620.74 L667.36,760.12 L673.71,771.12 L673.71,888.50 L667.36,892.17 L661.01,888.50 L661.01,771.12 L419.59,631.74 "/><path d="M419.59,624.40 L474.30,592.81 L512.27,614.73 L510.36,613.63 "/><path d="M666.67,891.77 L484.85,786.79 "/><path d="M512.58,614.91 L515.15,616.40 L512.27,614.73 "/><path d="M722.07,737.64 L722.07,736.16 L722.07,743.20 L673.71,771.12 L661.01,771.12 L667.36,760.12 L715.72,732.20 L719.70,734.49 L515.15,616.40 "/><path d="M537.88,629.52 L550.18,622.37 L545.45,625.09 L550.18,622.37 L549.63,620.12 "/><path d="M550.18,622.37 L550.90,621.95 "/><path d="M661.01,888.50 L660.05,887.95 "/><path d="M673.71,888.50 L674.24,888.19 L667.36,892.17 "/><path d="M674.24,888.19 L750.00,844.45 L742.42,848.83 "/><path d="M712.12,730.12 L715.72,732.20 L722.07,743.20 L722.07,794.55 L727.27,797.55 L726.86,797.31 "/><path d="M719.70,734.49 L722.07,735.86 L722.07,736.16 "/><path d="M795.45,759.52 L728.43,798.22 L722.07,816.56 L814.78,763.04 "/><path d="M722.07,816.56 L722.07,794.55 "/><path d="M728.43,798.22 L727.27,797.55 "/><path d="M750.00,844.45 L798.68,816.35 "/><path d="M795.45,818.21 L816.27,806.19 "/><path d="M810.61,809.46 L817.18,805.67 L817.18,763.42 "/><path d="M1174.24,762.04 L1177.68,760.16 "/><path d="M1179.87,758.93 L1194.59,750.92 L1204.55,745.03 L1181.82,757.90 "/></g></g><g id="paperID" visibility="hidden" opacity="0.00" transform="scale(0.000100)"><path style="stroke:#000000;stroke-width:0.500;fill:#e6e6e6;fill-rule:evenodd" d="M-2000.00,-2000.00L4000.00,-2000.00L4000.00,3700.00L-2000.00,3700.00zM0.00,0.00L2000.00,0.00L2000.00,1700.00L0.00,1700.00z"/><path style="fill:#000000;fill-opacity:0.118" d="M3.00,1700.00L2000.00,1700.00L2000.00,3.00L2003.00,3.00L2003.00,1703.00L3.00,1703.00z"/></g><g id="ToolTip" visibility="hidden" opacity="0" transform="translate(0,0)"><rect id="ToolTipShadow" opacity="0.20" fill="black" stroke="none" x="0" y="0" width="30" height="8"/><rect id="ToolTipBG" fill="#ffffe1" stroke="black" x="0" y="0" width="30" height="8"/><text xml:space="preserve" id="ToolTipText" fill="black" x="0" y="0" width="30" height="8">tooltip</text></g></g></svg>
