<?xml version="1.0" encoding="UTF-8" standalone="no"?>
<!-- Created with Inkscape (http://www.inkscape.org/) -->

<svg
   width="81.663239mm"
   height="94.29657mm"
   viewBox="0 0 81.663239 94.29657"
   version="1.1"
   id="svg5"
   xml:space="preserve"
   xmlns="http://www.w3.org/2000/svg"
   xmlns:svg="http://www.w3.org/2000/svg"><defs
     id="defs2" /><g
     id="layer1"
     style="display:inline"
     transform="translate(-67.932069,-138.69177)"><path
       id="path463"
       style="display:inline;fill:#0cff28;fill-opacity:1;stroke-width:7.33928;stroke-linecap:square;stroke-miterlimit:5;paint-order:stroke markers fill"
       d="m 108.76369,138.69177 -40.831617,23.57427 v 47.14803 l 40.831617,23.57427 40.83162,-23.57427 v -47.14803 z m -0.59841,13.94747 h 1.19837 a 2.9972393,2.9972393 0 0 1 2.99724,2.99723 v 35.48827 a 3.5966867,3.5966867 0 0 0 6.14019,2.54403 l 0.3514,-0.3514 a 2.3977915,2.3977915 0 0 0 0.70125,-1.6955 v -35.9854 a 2.9972393,2.9972393 0 0 1 1.69705,-2.70061 2.9972393,2.9972393 0 0 1 1.30018,-0.29662 h 1.19889 a 2.9972393,2.9972393 0 0 1 2.99672,2.99723 v 37.6809 a 5.9944782,5.9944782 0 0 1 -1.75441,4.23851 l -5.14181,5.1418 a 17.383986,17.383986 0 0 0 -5.09219,12.29176 v 9.58494 h -11.98842 v -9.58494 a 17.383986,17.383986 0 0 0 -5.091162,-12.29176 l -5.141805,-5.1418 a 5.9944782,5.9944782 0 0 1 -1.755966,-4.23851 v -39.47924 a 1.1988958,1.1988958 0 0 1 0.943095,-1.17099 0.23977887,0.23977887 0 0 1 0.288355,0.19741 8.3769955,8.3769955 0 0 0 5.202267,6.48332 1.1988958,1.1988958 0 0 1 0.759127,1.11466 v 31.15934 a 2.3977915,2.3977915 0 0 0 0.321427,1.19838 2.3977915,2.3977915 0 0 0 0.381888,0.49712 l 0.34985,0.3514 a 3.5966867,3.5966867 0 0 0 6.141224,-2.54403 v -35.48827 a 2.9972393,2.9972393 0 0 1 2.99724,-2.99723 z" /></g></svg>
